<svg width="20" height="20" fill="none" xmlns="http://www.w3.org/2000/svg"><path d="M3.06 2.36h-.002a.713.713 0 00-.712.716v10.73c0 .394.321.715.716.716 1.666.004 4.457.351 6.383 2.366V5.658a.686.686 0 00-.099-.363C7.766 2.75 4.73 2.363 3.06 2.359zm14.593 11.447V3.075a.713.713 0 00-.712-.716h-.001c-1.67.004-4.707.391-6.287 2.936a.686.686 0 00-.098.362v11.231c1.925-2.015 4.716-2.362 6.382-2.366a.718.718 0 00.716-.715z" fill="#4994EC"/><path d="M19.284 4.832h-.52v8.973a1.831 1.831 0 01-1.824 1.826c-1.413.003-3.743.28-5.393 1.841 2.854-.698 5.862-.244 7.576.147A.714.714 0 0020 16.92V5.548a.716.716 0 00-.715-.716zm-18.05 8.973V4.832H.716A.716.716 0 000 5.548V16.92a.714.714 0 00.876.697c1.714-.39 4.723-.844 7.576-.146-1.65-1.561-3.98-1.838-5.393-1.84a1.831 1.831 0 01-1.825-1.827z" fill="#4994EC"/></svg>