<svg width="24" height="24" fill="none" xmlns="http://www.w3.org/2000/svg"><g clip-path="url(#clip0)"><path d="M5.467 15.52l.923-7.437h5.871l.368 2.96-7.162 4.477zm9.442 7.23h-.833l.001-.014a.626.626 0 00-.012-.123l-1.039-8.37-7.982 4.989-.041.022-.423 3.405c-.003.03-.004.06-.003.091h-.835a.625.625 0 100 1.25H14.91a.625.625 0 100-1.25zm-2.5-17h-.437l-.13-1H9.77c-.061 0-.12-.033-.173-.056a.476.476 0 01-.141-.105.482.482 0 01-.135-.23c-.006-.03-.023-.062-.023-.093v-.488c0-.03.017-.06.023-.09a.454.454 0 01.449-.355h1.9l-.1-.8a.625.625 0 00-.195-1.197A2.004 2.004 0 009.475 0h-.298c-.87 0-1.624.544-1.9 1.333h-.035a.625.625 0 00-.165 1.228L6.68 5.75h-.52a.625.625 0 00-.424 1.083h7.098a.623.623 0 00-.424-1.083zm8.263-3.546a.61.61 0 00-.504-.136l-7.663 1.358a.624.624 0 00.002 1.231l7.667 1.359a.589.589 0 00.497-.136.612.612 0 00.21-.48V2.683a.611.611 0 00-.21-.479z" fill="#1A1A1A"/></g><defs><clipPath id="clip0"><path fill="#fff" d="M0 0h24v24H0z"/></clipPath></defs></svg>