<svg width="249" height="199" viewBox="0 0 249 199" fill="none" xmlns="http://www.w3.org/2000/svg">
<g clip-path="url(#clip0_101_30)">
<path d="M0 0H249V198.184L0 178.365V0Z" fill="#FECE2F"/>
<path d="M114.371 122.645C108.875 122.645 103.757 121.909 99.0153 120.436C94.3098 118.928 90.215 116.791 86.7309 114.025C83.2467 111.259 80.5168 107.901 78.5413 103.949C76.5657 99.9983 75.5779 95.5623 75.5779 90.6413C75.5779 85.5408 76.5657 80.9252 78.5413 76.7945C80.5168 72.6637 83.2467 69.1616 86.7309 66.2881C90.215 63.3786 94.3098 61.1516 99.0153 59.6071C103.757 58.0266 108.875 57.2364 114.371 57.2364H115.772V47.5382H133.821V57.2364H135.114C140.61 57.2364 145.71 58.0087 150.416 59.5532C155.157 61.0977 159.252 63.3247 162.7 66.2342C166.184 69.1077 168.914 72.6099 170.89 76.7406C172.865 80.8354 173.853 85.433 173.853 90.5336C173.853 95.4545 172.865 99.9085 170.89 103.896C168.914 107.847 166.184 111.223 162.7 114.025C159.252 116.791 155.157 118.928 150.416 120.436C145.71 121.909 140.61 122.645 135.114 122.645H133.821V132.451H115.772V122.645H114.371ZM114.371 73.7234C111.174 73.7234 108.282 74.0466 105.696 74.6932C103.11 75.3397 100.901 76.3634 99.0691 77.7643C97.2373 79.1292 95.8185 80.8893 94.8127 83.0444C93.8429 85.1636 93.358 87.696 93.358 90.6413C93.358 93.3712 93.8609 95.7239 94.8666 97.6995C95.8723 99.6391 97.2911 101.238 99.123 102.495C100.955 103.752 103.164 104.686 105.75 105.296C108.336 105.871 111.21 106.158 114.371 106.158H115.772V73.7234H114.371ZM135.222 106.158C138.383 106.158 141.238 105.853 143.789 105.243C146.375 104.596 148.566 103.644 150.362 102.387C152.158 101.094 153.541 99.4775 154.511 97.5378C155.516 95.5623 156.019 93.2275 156.019 90.5336C156.019 87.5882 155.516 85.0559 154.511 82.9367C153.541 80.8174 152.158 79.0753 150.362 77.7104C148.566 76.3455 146.375 75.3397 143.789 74.6932C141.238 74.0466 138.383 73.7234 135.222 73.7234H133.821V106.158H135.222Z" fill="#1A1A1A"/>
<path d="M114.371 122.645C108.875 122.645 103.757 121.909 99.0153 120.436C94.3098 118.928 90.215 116.791 86.7309 114.025C83.2467 111.259 80.5168 107.901 78.5413 103.949C76.5657 99.9983 75.5779 95.5623 75.5779 90.6413C75.5779 85.5408 76.5657 80.9252 78.5413 76.7945C80.5168 72.6637 83.2467 69.1616 86.7309 66.2881C90.215 63.3786 94.3098 61.1516 99.0153 59.6071C103.757 58.0266 108.875 57.2364 114.371 57.2364H115.772V47.5382H133.821V57.2364H135.114C140.61 57.2364 145.71 58.0087 150.416 59.5532C155.157 61.0977 159.252 63.3247 162.7 66.2342C166.184 69.1077 168.914 72.6099 170.89 76.7406C172.865 80.8354 173.853 85.433 173.853 90.5336C173.853 95.4545 172.865 99.9085 170.89 103.896C168.914 107.847 166.184 111.223 162.7 114.025C159.252 116.791 155.157 118.928 150.416 120.436C145.71 121.909 140.61 122.645 135.114 122.645H133.821V132.451H115.772V122.645H114.371ZM114.371 73.7234C111.174 73.7234 108.282 74.0466 105.696 74.6932C103.11 75.3397 100.901 76.3634 99.0691 77.7643C97.2373 79.1292 95.8185 80.8893 94.8127 83.0444C93.8429 85.1636 93.358 87.696 93.358 90.6413C93.358 93.3712 93.8609 95.7239 94.8666 97.6995C95.8723 99.6391 97.2911 101.238 99.123 102.495C100.955 103.752 103.164 104.686 105.75 105.296C108.336 105.871 111.21 106.158 114.371 106.158H115.772V73.7234H114.371ZM135.222 106.158C138.383 106.158 141.238 105.853 143.789 105.243C146.375 104.596 148.566 103.644 150.362 102.387C152.158 101.094 153.541 99.4775 154.511 97.5378C155.516 95.5623 156.019 93.2275 156.019 90.5336C156.019 87.5882 155.516 85.0559 154.511 82.9367C153.541 80.8174 152.158 79.0753 150.362 77.7104C148.566 76.3455 146.375 75.3397 143.789 74.6932C141.238 74.0466 138.383 73.7234 135.222 73.7234H133.821V106.158H135.222Z" fill="black" fill-opacity="0.2"/>
</g>
<defs>
<clipPath id="clip0_101_30">
<rect width="249" height="198.184" fill="white"/>
</clipPath>
</defs>
</svg>
