<svg width="295" height="83" viewBox="0 0 295 83" fill="none" xmlns="http://www.w3.org/2000/svg">
<path d="M0 17.474L293.426 0L279.067 83L6.86775 78.007L0 17.474Z" fill="#FECE2F"/>
<path d="M34.1334 56.7663C32.4928 56.7663 30.9648 56.5464 29.5494 56.1068C28.1448 55.6565 26.9224 55.0185 25.8823 54.1928C24.8422 53.3672 24.0273 52.3646 23.4375 51.1851C22.8478 50.0056 22.5529 48.6814 22.5529 47.2124C22.5529 45.6898 22.8478 44.3119 23.4375 43.0788C24.0273 41.8457 24.8422 40.8002 25.8823 39.9424C26.9224 39.0739 28.1448 38.4091 29.5494 37.948C30.9648 37.4762 32.4928 37.2403 34.1334 37.2403H34.5516V34.3452H39.9397V37.2403H40.3257C41.9663 37.2403 43.4889 37.4709 44.8935 37.9319C46.3089 38.393 47.5313 39.0578 48.5607 39.9263C49.6008 40.7842 50.4157 41.8296 51.0054 43.0627C51.5952 44.2851 51.8901 45.6576 51.8901 47.1802C51.8901 48.6492 51.5952 49.9788 51.0054 51.169C50.4157 52.3485 49.6008 53.3565 48.5607 54.1928C47.5313 55.0185 46.3089 55.6565 44.8935 56.1068C43.4889 56.5464 41.9663 56.7663 40.3257 56.7663H39.9397V59.6935H34.5516V56.7663H34.1334ZM34.1334 42.162C33.1791 42.162 32.3159 42.2585 31.5439 42.4515C30.7718 42.6445 30.1124 42.9501 29.5655 43.3683C29.0187 43.7758 28.5951 44.3012 28.2949 44.9445C28.0054 45.5772 27.8606 46.3331 27.8606 47.2124C27.8606 48.0273 28.0107 48.7296 28.311 49.3194C28.6112 49.8984 29.0348 50.3756 29.5816 50.7509C30.1285 51.1261 30.7879 51.4049 31.5599 51.5872C32.332 51.7588 33.1898 51.8446 34.1334 51.8446H34.5516V42.162H34.1334ZM40.3579 51.8446C41.3015 51.8446 42.1539 51.7534 42.9152 51.5711C43.6872 51.3781 44.3413 51.094 44.8775 50.7187C45.4136 50.3327 45.8264 49.8502 46.1159 49.2711C46.4162 48.6814 46.5663 47.9844 46.5663 47.1802C46.5663 46.301 46.4162 45.545 46.1159 44.9124C45.8264 44.2797 45.4136 43.7597 44.8775 43.3522C44.3413 42.9448 43.6872 42.6445 42.9152 42.4515C42.1539 42.2585 41.3015 42.162 40.3579 42.162H39.9397V51.8446H40.3579Z" fill="#1A1A1A"/>
<path d="M34.1334 56.7663C32.4928 56.7663 30.9648 56.5464 29.5494 56.1068C28.1448 55.6565 26.9224 55.0185 25.8823 54.1928C24.8422 53.3672 24.0273 52.3646 23.4375 51.1851C22.8478 50.0056 22.5529 48.6814 22.5529 47.2124C22.5529 45.6898 22.8478 44.3119 23.4375 43.0788C24.0273 41.8457 24.8422 40.8002 25.8823 39.9424C26.9224 39.0739 28.1448 38.4091 29.5494 37.948C30.9648 37.4762 32.4928 37.2403 34.1334 37.2403H34.5516V34.3452H39.9397V37.2403H40.3257C41.9663 37.2403 43.4889 37.4709 44.8935 37.9319C46.3089 38.393 47.5313 39.0578 48.5607 39.9263C49.6008 40.7842 50.4157 41.8296 51.0054 43.0627C51.5952 44.2851 51.8901 45.6576 51.8901 47.1802C51.8901 48.6492 51.5952 49.9788 51.0054 51.169C50.4157 52.3485 49.6008 53.3565 48.5607 54.1928C47.5313 55.0185 46.3089 55.6565 44.8935 56.1068C43.4889 56.5464 41.9663 56.7663 40.3257 56.7663H39.9397V59.6935H34.5516V56.7663H34.1334ZM34.1334 42.162C33.1791 42.162 32.3159 42.2585 31.5439 42.4515C30.7718 42.6445 30.1124 42.9501 29.5655 43.3683C29.0187 43.7758 28.5951 44.3012 28.2949 44.9445C28.0054 45.5772 27.8606 46.3331 27.8606 47.2124C27.8606 48.0273 28.0107 48.7296 28.311 49.3194C28.6112 49.8984 29.0348 50.3756 29.5816 50.7509C30.1285 51.1261 30.7879 51.4049 31.5599 51.5872C32.332 51.7588 33.1898 51.8446 34.1334 51.8446H34.5516V42.162H34.1334ZM40.3579 51.8446C41.3015 51.8446 42.1539 51.7534 42.9152 51.5711C43.6872 51.3781 44.3413 51.094 44.8775 50.7187C45.4136 50.3327 45.8264 49.8502 46.1159 49.2711C46.4162 48.6814 46.5663 47.9844 46.5663 47.1802C46.5663 46.301 46.4162 45.545 46.1159 44.9124C45.8264 44.2797 45.4136 43.7597 44.8775 43.3522C44.3413 42.9448 43.6872 42.6445 42.9152 42.4515C42.1539 42.2585 41.3015 42.162 40.3579 42.162H39.9397V51.8446H40.3579Z" fill="black" fill-opacity="0.2"/>
<path d="M50.9636 58.7285L61.4825 35.3103H66.6133L77.1966 58.7285H71.2455L69.4602 54.6914H58.6678L56.8986 58.7285H50.9636ZM67.4014 49.9949L64.072 42.4354L60.7427 49.9949H67.4014Z" fill="#1A1A1A"/>
<path d="M50.9636 58.7285L61.4825 35.3103H66.6133L77.1966 58.7285H71.2455L69.4602 54.6914H58.6678L56.8986 58.7285H50.9636ZM67.4014 49.9949L64.072 42.4354L60.7427 49.9949H67.4014Z" fill="black" fill-opacity="0.2"/>
<path d="M79.1717 35.3103H90.157C91.8083 35.3103 93.2827 35.514 94.5801 35.9214C95.8775 36.3289 96.9712 36.8918 97.8612 37.6103C98.7619 38.3287 99.4482 39.1865 99.92 40.1837C100.392 41.1702 100.628 42.2478 100.628 43.4166C100.628 44.5424 100.392 45.5772 99.92 46.5208C99.4482 47.4536 98.7619 48.2525 97.8612 48.9173C96.9712 49.5821 95.8775 50.1021 94.5801 50.4774C93.2827 50.842 91.8083 51.0243 90.157 51.0243H84.785V58.7285H79.1717V35.3103ZM90.157 46.3278C91.0041 46.3278 91.7332 46.2581 92.3444 46.1187C92.9556 45.9686 93.4542 45.7648 93.8402 45.5075C94.2263 45.2501 94.5104 44.9499 94.6927 44.6068C94.875 44.2529 94.9661 43.8669 94.9661 43.4487C94.9661 42.9877 94.875 42.5534 94.6927 42.1459C94.5104 41.7278 94.2263 41.3632 93.8402 41.0522C93.4542 40.7305 92.9556 40.4786 92.3444 40.2963C91.7332 40.1033 91.0041 40.0068 90.157 40.0068H84.785V46.3278H90.157Z" fill="#1A1A1A"/>
<path d="M79.1717 35.3103H90.157C91.8083 35.3103 93.2827 35.514 94.5801 35.9214C95.8775 36.3289 96.9712 36.8918 97.8612 37.6103C98.7619 38.3287 99.4482 39.1865 99.92 40.1837C100.392 41.1702 100.628 42.2478 100.628 43.4166C100.628 44.5424 100.392 45.5772 99.92 46.5208C99.4482 47.4536 98.7619 48.2525 97.8612 48.9173C96.9712 49.5821 95.8775 50.1021 94.5801 50.4774C93.2827 50.842 91.8083 51.0243 90.157 51.0243H84.785V58.7285H79.1717V35.3103ZM90.157 46.3278C91.0041 46.3278 91.7332 46.2581 92.3444 46.1187C92.9556 45.9686 93.4542 45.7648 93.8402 45.5075C94.2263 45.2501 94.5104 44.9499 94.6927 44.6068C94.875 44.2529 94.9661 43.8669 94.9661 43.4487C94.9661 42.9877 94.875 42.5534 94.6927 42.1459C94.5104 41.7278 94.2263 41.3632 93.8402 41.0522C93.4542 40.7305 92.9556 40.4786 92.3444 40.2963C91.7332 40.1033 91.0041 40.0068 90.157 40.0068H84.785V46.3278H90.157Z" fill="black" fill-opacity="0.2"/>
<path d="M126.761 47.4697C126.761 49.2604 126.471 50.8742 125.892 52.311C125.324 53.7371 124.52 54.9488 123.48 55.946C122.44 56.9432 121.19 57.7098 119.732 58.246C118.274 58.7821 116.66 59.0502 114.891 59.0502C113.154 59.0502 111.551 58.7821 110.082 58.246C108.624 57.7098 107.369 56.9432 106.318 55.946C105.267 54.9488 104.447 53.7371 103.857 52.311C103.268 50.8742 102.973 49.2604 102.973 47.4697V46.5851C102.973 44.7944 103.262 43.186 103.841 41.7599C104.431 40.3231 105.246 39.1061 106.286 38.1089C107.337 37.1009 108.591 36.3289 110.05 35.7928C111.508 35.2566 113.111 34.9886 114.859 34.9886C116.628 34.9886 118.242 35.2566 119.7 35.7928C121.158 36.3289 122.407 37.1009 123.448 38.1089C124.498 39.1061 125.313 40.3231 125.892 41.7599C126.471 43.186 126.761 44.7944 126.761 46.5851V47.4697ZM121.115 46.5529C121.115 44.3119 120.574 42.6177 119.491 41.4704C118.408 40.3124 116.864 39.7333 114.859 39.7333C113.872 39.7333 112.993 39.8835 112.221 40.1837C111.46 40.4732 110.811 40.9075 110.275 41.4865C109.739 42.0548 109.331 42.7678 109.052 43.6257C108.774 44.4727 108.634 45.4485 108.634 46.5529V47.4697C108.634 48.5634 108.774 49.5392 109.052 50.397C109.342 51.2441 109.755 51.9572 110.291 52.5362C110.838 53.1152 111.497 53.5602 112.269 53.8711C113.041 54.1714 113.915 54.3215 114.891 54.3215C116.896 54.3215 118.435 53.7317 119.507 52.5523C120.579 51.362 121.115 49.6679 121.115 47.4697V46.5529Z" fill="#1A1A1A"/>
<path d="M126.761 47.4697C126.761 49.2604 126.471 50.8742 125.892 52.311C125.324 53.7371 124.52 54.9488 123.48 55.946C122.44 56.9432 121.19 57.7098 119.732 58.246C118.274 58.7821 116.66 59.0502 114.891 59.0502C113.154 59.0502 111.551 58.7821 110.082 58.246C108.624 57.7098 107.369 56.9432 106.318 55.946C105.267 54.9488 104.447 53.7371 103.857 52.311C103.268 50.8742 102.973 49.2604 102.973 47.4697V46.5851C102.973 44.7944 103.262 43.186 103.841 41.7599C104.431 40.3231 105.246 39.1061 106.286 38.1089C107.337 37.1009 108.591 36.3289 110.05 35.7928C111.508 35.2566 113.111 34.9886 114.859 34.9886C116.628 34.9886 118.242 35.2566 119.7 35.7928C121.158 36.3289 122.407 37.1009 123.448 38.1089C124.498 39.1061 125.313 40.3231 125.892 41.7599C126.471 43.186 126.761 44.7944 126.761 46.5851V47.4697ZM121.115 46.5529C121.115 44.3119 120.574 42.6177 119.491 41.4704C118.408 40.3124 116.864 39.7333 114.859 39.7333C113.872 39.7333 112.993 39.8835 112.221 40.1837C111.46 40.4732 110.811 40.9075 110.275 41.4865C109.739 42.0548 109.331 42.7678 109.052 43.6257C108.774 44.4727 108.634 45.4485 108.634 46.5529V47.4697C108.634 48.5634 108.774 49.5392 109.052 50.397C109.342 51.2441 109.755 51.9572 110.291 52.5362C110.838 53.1152 111.497 53.5602 112.269 53.8711C113.041 54.1714 113.915 54.3215 114.891 54.3215C116.896 54.3215 118.435 53.7317 119.507 52.5523C120.579 51.362 121.115 49.6679 121.115 47.4697V46.5529Z" fill="black" fill-opacity="0.2"/>
<path d="M152.235 50.7026C152.127 51.9572 151.806 53.0991 151.27 54.1285C150.744 55.1471 150.01 56.0264 149.066 56.7663C148.123 57.4954 146.975 58.0583 145.624 58.4551C144.273 58.8518 142.729 59.0502 140.992 59.0502C139.212 59.0502 137.609 58.7875 136.183 58.2621C134.757 57.7367 133.545 56.9807 132.548 55.9942C131.551 54.997 130.784 53.7907 130.248 52.3753C129.712 50.9599 129.444 49.3569 129.444 47.5662V46.4886C129.444 44.7086 129.717 43.1056 130.264 41.6795C130.822 40.2534 131.604 39.0471 132.612 38.0606C133.631 37.0634 134.859 36.3021 136.295 35.7767C137.743 35.2406 139.357 34.9725 141.137 34.9725C142.874 34.9725 144.402 35.1869 145.721 35.6158C147.05 36.0448 148.176 36.6399 149.098 37.4012C150.031 38.1625 150.755 39.0632 151.27 40.1033C151.795 41.1434 152.122 42.28 152.251 43.5131H146.654C146.578 42.8804 146.428 42.3282 146.203 41.8564C145.978 41.3846 145.651 40.9933 145.222 40.6823C144.793 40.3606 144.246 40.1247 143.581 39.9746C142.917 39.8138 142.102 39.7333 141.137 39.7333C140.118 39.7333 139.233 39.8513 138.483 40.0872C137.732 40.3124 137.105 40.693 136.601 41.2291C136.108 41.7546 135.738 42.4462 135.491 43.304C135.245 44.1511 135.121 45.2019 135.121 46.4564V47.5662C135.121 48.8315 135.229 49.893 135.443 50.7509C135.657 51.6087 136.001 52.3003 136.472 52.8257C136.944 53.3404 137.55 53.7103 138.29 53.9355C139.03 54.1607 139.93 54.2732 140.992 54.2732C141.946 54.2732 142.761 54.2089 143.437 54.0802C144.112 53.9408 144.67 53.7264 145.109 53.4369C145.56 53.1474 145.903 52.7774 146.139 52.3271C146.385 51.8767 146.552 51.3352 146.637 50.7026H152.235Z" fill="#1A1A1A"/>
<path d="M152.235 50.7026C152.127 51.9572 151.806 53.0991 151.27 54.1285C150.744 55.1471 150.01 56.0264 149.066 56.7663C148.123 57.4954 146.975 58.0583 145.624 58.4551C144.273 58.8518 142.729 59.0502 140.992 59.0502C139.212 59.0502 137.609 58.7875 136.183 58.2621C134.757 57.7367 133.545 56.9807 132.548 55.9942C131.551 54.997 130.784 53.7907 130.248 52.3753C129.712 50.9599 129.444 49.3569 129.444 47.5662V46.4886C129.444 44.7086 129.717 43.1056 130.264 41.6795C130.822 40.2534 131.604 39.0471 132.612 38.0606C133.631 37.0634 134.859 36.3021 136.295 35.7767C137.743 35.2406 139.357 34.9725 141.137 34.9725C142.874 34.9725 144.402 35.1869 145.721 35.6158C147.05 36.0448 148.176 36.6399 149.098 37.4012C150.031 38.1625 150.755 39.0632 151.27 40.1033C151.795 41.1434 152.122 42.28 152.251 43.5131H146.654C146.578 42.8804 146.428 42.3282 146.203 41.8564C145.978 41.3846 145.651 40.9933 145.222 40.6823C144.793 40.3606 144.246 40.1247 143.581 39.9746C142.917 39.8138 142.102 39.7333 141.137 39.7333C140.118 39.7333 139.233 39.8513 138.483 40.0872C137.732 40.3124 137.105 40.693 136.601 41.2291C136.108 41.7546 135.738 42.4462 135.491 43.304C135.245 44.1511 135.121 45.2019 135.121 46.4564V47.5662C135.121 48.8315 135.229 49.893 135.443 50.7509C135.657 51.6087 136.001 52.3003 136.472 52.8257C136.944 53.3404 137.55 53.7103 138.29 53.9355C139.03 54.1607 139.93 54.2732 140.992 54.2732C141.946 54.2732 142.761 54.2089 143.437 54.0802C144.112 53.9408 144.67 53.7264 145.109 53.4369C145.56 53.1474 145.903 52.7774 146.139 52.3271C146.385 51.8767 146.552 51.3352 146.637 50.7026H152.235Z" fill="black" fill-opacity="0.2"/>
<path d="M155.239 56.0103C155.239 55.6028 155.309 55.2222 155.448 54.8683C155.588 54.5145 155.791 54.2089 156.059 53.9516C156.327 53.6942 156.649 53.4905 157.024 53.3404C157.4 53.1903 157.823 53.1152 158.295 53.1152C158.767 53.1152 159.19 53.1903 159.566 53.3404C159.952 53.4905 160.279 53.6942 160.547 53.9516C160.815 54.2089 161.019 54.5145 161.158 54.8683C161.308 55.2222 161.383 55.6028 161.383 56.0103C161.383 56.4178 161.308 56.7984 161.158 57.1523C161.019 57.5061 160.815 57.8117 160.547 58.0691C160.279 58.3264 159.952 58.5301 159.566 58.6802C159.19 58.8304 158.767 58.9054 158.295 58.9054C157.823 58.9054 157.4 58.8304 157.024 58.6802C156.649 58.5301 156.327 58.3264 156.059 58.0691C155.791 57.8117 155.588 57.5061 155.448 57.1523C155.309 56.7984 155.239 56.4178 155.239 56.0103Z" fill="#1A1A1A"/>
<path d="M155.239 56.0103C155.239 55.6028 155.309 55.2222 155.448 54.8683C155.588 54.5145 155.791 54.2089 156.059 53.9516C156.327 53.6942 156.649 53.4905 157.024 53.3404C157.4 53.1903 157.823 53.1152 158.295 53.1152C158.767 53.1152 159.19 53.1903 159.566 53.3404C159.952 53.4905 160.279 53.6942 160.547 53.9516C160.815 54.2089 161.019 54.5145 161.158 54.8683C161.308 55.2222 161.383 55.6028 161.383 56.0103C161.383 56.4178 161.308 56.7984 161.158 57.1523C161.019 57.5061 160.815 57.8117 160.547 58.0691C160.279 58.3264 159.952 58.5301 159.566 58.6802C159.19 58.8304 158.767 58.9054 158.295 58.9054C157.823 58.9054 157.4 58.8304 157.024 58.6802C156.649 58.5301 156.327 58.3264 156.059 58.0691C155.791 57.8117 155.588 57.5061 155.448 57.1523C155.309 56.7984 155.239 56.4178 155.239 56.0103Z" fill="black" fill-opacity="0.2"/>
<path d="M165.67 35.3103H169.145L176.624 54.6432L184.119 35.3103H187.593V58.7285H185.084V49.0299L185.325 38.5592L177.556 58.7285H175.675L167.938 38.6075L168.179 49.0299V58.7285H165.67V35.3103Z" fill="#1A1A1A"/>
<path d="M165.67 35.3103H169.145L176.624 54.6432L184.119 35.3103H187.593V58.7285H185.084V49.0299L185.325 38.5592L177.556 58.7285H175.675L167.938 38.6075L168.179 49.0299V58.7285H165.67V35.3103Z" fill="black" fill-opacity="0.2"/>
<path d="M205.155 35.3103V37.4012H193.687V45.604H203.707V47.6949H193.687V56.6376H205.251V58.7285H191.162V35.3103H205.155Z" fill="#1A1A1A"/>
<path d="M205.155 35.3103V37.4012H193.687V45.604H203.707V47.6949H193.687V56.6376H205.251V58.7285H191.162V35.3103H205.155Z" fill="black" fill-opacity="0.2"/>
<path d="M207.632 56.6376H209.24C209.497 56.3481 209.814 55.9138 210.189 55.3348C210.575 54.745 210.956 53.9569 211.331 52.9704C211.706 51.9732 212.044 50.7616 212.344 49.3355C212.655 47.8986 212.859 46.1884 212.955 44.2047L213.422 35.3103H226.305V56.6376H228.83L228.782 64.4383H226.305V58.7285H210.157V64.4544H207.68L207.632 56.6376ZM215.497 44.2047C215.422 45.6844 215.277 47.0569 215.062 48.3222C214.859 49.5874 214.607 50.7401 214.306 51.7802C214.006 52.8096 213.663 53.7317 213.277 54.5467C212.902 55.3616 212.505 56.0586 212.087 56.6376H223.796V37.4012H215.834L215.497 44.2047Z" fill="#1A1A1A"/>
<path d="M207.632 56.6376H209.24C209.497 56.3481 209.814 55.9138 210.189 55.3348C210.575 54.745 210.956 53.9569 211.331 52.9704C211.706 51.9732 212.044 50.7616 212.344 49.3355C212.655 47.8986 212.859 46.1884 212.955 44.2047L213.422 35.3103H226.305V56.6376H228.83L228.782 64.4383H226.305V58.7285H210.157V64.4544H207.68L207.632 56.6376ZM215.497 44.2047C215.422 45.6844 215.277 47.0569 215.062 48.3222C214.859 49.5874 214.607 50.7401 214.306 51.7802C214.006 52.8096 213.663 53.7317 213.277 54.5467C212.902 55.3616 212.505 56.0586 212.087 56.6376H223.796V37.4012H215.834L215.497 44.2047Z" fill="black" fill-opacity="0.2"/>
<path d="M235.36 35.3103V54.3697L247.118 35.3103H249.643V58.7285H247.118V39.6529L235.36 58.7285H232.835V35.3103H235.36Z" fill="#1A1A1A"/>
<path d="M235.36 35.3103V54.3697L247.118 35.3103H249.643V58.7285H247.118V39.6529L235.36 58.7285H232.835V35.3103H235.36Z" fill="black" fill-opacity="0.2"/>
<path d="M253.197 58.7285L261.625 35.3103H263.958L272.402 58.7285H269.764L267.593 52.3753H257.99L255.819 58.7285H253.197ZM258.698 50.2844H266.885L262.799 38.318L258.698 50.2844Z" fill="#1A1A1A"/>
<path d="M253.197 58.7285L261.625 35.3103H263.958L272.402 58.7285H269.764L267.593 52.3753H257.99L255.819 58.7285H253.197ZM258.698 50.2844H266.885L262.799 38.318L258.698 50.2844Z" fill="black" fill-opacity="0.2"/>
</svg>
