<svg width="86" height="83" viewBox="0 0 86 83" fill="none" xmlns="http://www.w3.org/2000/svg">
<path d="M0 17.4737L86 0L81.7915 83L2.01277 78.0075L0 17.4737Z" fill="white"/>
<path d="M36 69C29.5894 69 23.5624 66.5036 19.0294 61.9706C14.4964 57.4376 12 51.4106 12 45C12 38.5894 14.4965 32.5625 19.0294 28.0294C23.5623 23.4963 29.5894 21 36 21C42.4106 21 48.4376 23.4964 52.9706 28.0294C57.5036 32.5624 60 38.5894 60 45C60 51.4106 57.5035 57.4375 52.9706 61.9706C48.4377 66.5037 42.4106 69 36 69ZM36 24C24.4206 24 15 33.4206 15 45C15 56.5794 24.4206 66 36 66C47.5794 66 57 56.5794 57 45C57 33.4206 47.5794 24 36 24Z" fill="#FECE2F"/>
<path d="M36 43.5C33.9323 43.5 32.25 41.8177 32.25 39.75C32.25 37.6823 33.9323 36 36 36C38.0677 36 39.75 37.6823 39.75 39.75C39.75 40.5784 40.4215 41.25 41.25 41.25C42.0785 41.25 42.75 40.5784 42.75 39.75C42.75 36.5437 40.5021 33.8542 37.5 33.1701V31.5C37.5 30.6716 36.8285 30 36 30C35.1715 30 34.5 30.6716 34.5 31.5V33.1701C31.4979 33.8542 29.25 36.5437 29.25 39.75C29.25 43.472 32.278 46.5 36 46.5C38.0677 46.5 39.75 48.1823 39.75 50.25C39.75 52.3177 38.0677 54 36 54C33.9323 54 32.25 52.3177 32.25 50.25C32.25 49.4216 31.5785 48.75 30.75 48.75C29.9215 48.75 29.25 49.4216 29.25 50.25C29.25 53.4563 31.4979 56.1458 34.5 56.8299V58.5C34.5 59.3284 35.1715 60 36 60C36.8285 60 37.5 59.3284 37.5 58.5V56.8299C40.5021 56.1458 42.75 53.4563 42.75 50.25C42.75 46.528 39.722 43.5 36 43.5Z" fill="#FECE2F"/>
</svg>
