<svg width="86" height="83" viewBox="0 0 86 83" fill="none" xmlns="http://www.w3.org/2000/svg">
<path d="M0 17.4737L86 0L81.7915 83L2.01277 78.0075L0 17.4737Z" fill="white"/>
<g clip-path="url(#clip0)">
<path d="M52.7939 33.1272C52.1568 32.4902 51.1568 32.3963 50.412 32.9037C47.6065 34.816 33.5342 44.4321 32.0218 45.9443C29.8287 48.1376 29.8287 51.7061 32.0218 53.8994C33.1184 54.9959 34.559 55.5443 35.9994 55.5443C37.4397 55.5443 38.8802 54.9959 39.9769 53.8994C41.4892 52.387 51.1051 38.3148 53.0175 35.5092C53.5248 34.7646 53.431 33.7644 52.7939 33.1272ZM37.3251 51.2477C36.5941 51.9788 35.4045 51.9788 34.6736 51.2477C33.9425 50.5167 33.9424 49.3275 34.6732 48.5964C35.2608 48.0157 39.2562 45.1663 44.1718 41.7494C40.755 46.6651 37.9056 50.6602 37.3251 51.2477Z" fill="#FECE2F"/>
<path d="M20.6467 58.6436L18.332 59.7728C16.6383 56.7501 15.75 53.3763 15.75 49.9226C15.75 47.3922 16.2166 44.9687 17.0681 42.7336L19.7204 44.0058C19.982 44.1312 20.2581 44.1907 20.53 44.1907C21.2288 44.1907 21.8995 43.7983 22.2219 43.1261C22.6697 42.1925 22.2759 41.0725 21.3422 40.6246L18.7236 39.3685C21.9783 34.0604 27.6096 30.3596 34.1251 29.7587V32.5788C34.1251 33.6144 34.9645 34.4538 36.0001 34.4538C37.0357 34.4538 37.8751 33.6144 37.8751 32.5788V29.7573C40.109 29.9606 42.2705 30.5295 44.3224 31.4558C45.266 31.8819 46.3766 31.462 46.8027 30.5184C47.2288 29.5745 46.8091 28.464 45.8652 28.0379C42.7559 26.6344 39.4368 25.9226 36 25.9226C29.5894 25.9226 23.5625 28.419 19.0294 32.952C14.4965 37.4851 12 43.512 12 49.9226C12 54.6598 13.4061 59.2671 16.0662 63.2459C16.4245 63.7817 17.0169 64.079 17.6261 64.079C17.9031 64.079 18.1836 64.0176 18.4471 63.889L22.2908 62.014C23.2216 61.56 23.608 60.4375 23.154 59.5068C22.7 58.5761 21.5774 58.1898 20.6467 58.6436Z" fill="#FECE2F"/>
<path d="M57.885 40.0582C57.459 39.1144 56.3487 38.6944 55.4045 39.1207C54.4608 39.5468 54.041 40.6572 54.4671 41.601C55.6505 44.2221 56.2504 47.0221 56.2504 49.9233C56.2504 53.3821 55.3592 56.7613 53.6605 59.7875L51.2439 58.6367C50.3091 58.1916 49.1902 58.5884 48.7449 59.5235C48.2997 60.4584 48.6967 61.5773 49.6317 62.0225L53.5692 63.8975C53.8282 64.0208 54.1028 64.0797 54.3743 64.0797C54.9837 64.0797 55.5762 63.7821 55.934 63.2467C58.5943 59.2677 60.0004 54.6605 60.0004 49.9233C60.0004 46.4865 59.2886 43.1674 57.885 40.0582Z" fill="#FECE2F"/>
</g>
<defs>
<clipPath id="clip0">
<rect width="48" height="48" fill="white" transform="translate(12 21)"/>
</clipPath>
</defs>
</svg>
