<svg version="1.1" id="Слой_1" xmlns="http://www.w3.org/2000/svg" x="0" y="0" viewBox="0 0 86 83" xml:space="preserve"><style>.st1{fill:#fece2f}</style><path d="M0 17.5L86 0l-4.2 83L2 78 0 17.5z" fill="#fff"/><path class="st1" d="M37.3 69.7c-6.4 0-12.4-2.5-17-7-4.5-4.5-7-10.6-7-17s2.5-12.4 7-17c4.5-4.5 10.6-7 17-7s12.4 2.5 17 7c4.5 4.5 7 10.6 7 17s-2.5 12.4-7 17-10.6 7-17 7zm0-45c-11.6 0-21 9.4-21 21s9.4 21 21 21 21-9.4 21-21-9.4-21-21-21z"/><path class="st1" d="M37.3 44.2c-2.1 0-3.8-1.7-3.8-3.8s1.7-3.8 3.8-3.8 3.8 1.7 3.8 3.8c0 .8.7 1.5 1.5 1.5s1.5-.7 1.5-1.5c0-3.2-2.2-5.9-5.3-6.6v-1.7c0-.8-.7-1.5-1.5-1.5s-1.5.7-1.5 1.5v1.7c-3 .7-5.2 3.4-5.2 6.6 0 3.7 3 6.8 6.7 6.8 2.1 0 3.8 1.7 3.8 3.8s-1.7 3.8-3.8 3.8-3.8-1.7-3.8-3.8c0-.8-.7-1.5-1.5-1.5s-1.5.7-1.5 1.5c0 3.2 2.2 5.9 5.2 6.6v1.7c0 .8.7 1.5 1.5 1.5s1.5-.7 1.5-1.5v-1.7c3-.7 5.3-3.4 5.3-6.6.1-3.8-2.9-6.8-6.7-6.8z"/></svg>