<svg width="177" height="18" fill="none" xmlns="http://www.w3.org/2000/svg"><path d="M12.223 17.279V5.29h7.028V.927H.076V5.29h7.029v11.99h5.118zm14.024-6.836V.927H21.3V17.28h4.367l8.53-9.516v9.516h4.947V.927h-4.367l-8.53 9.516zm29.541.755v6.08h4.948V.929h-4.948v5.976h-7.95V.927h-4.947V17.28h4.948V11.2h7.95zm18.726 6.08c1.126 0 2.15-.102 3.105-.377 2.558-.722 4.23-2.817 4.23-5.668 0-2.714-1.433-4.603-3.719-5.462-1.092-.412-2.388-.447-3.616-.447H69.43V.927h-4.948V17.28h10.032zm-.853-8.106c.682 0 1.33 0 1.91.206.819.275 1.297.962 1.297 1.786 0 .859-.478 1.58-1.262 1.924-.547.24-1.092.24-1.945.24H69.43V9.172h4.23zm17.06 1.923l5.901 6.184h6.586l-8.223-8.52L102.9.927h-6.21l-5.97 6.15h-1.366V.926h-4.947V17.28h4.947v-6.184h1.365zM113.387.481c-6.654 0-10.646 3.779-10.646 8.656 0 4.878 3.992 8.657 10.646 8.657 6.619 0 10.611-3.779 10.611-8.657 0-4.877-3.992-8.656-10.611-8.656zm0 13.328c-3.31 0-5.425-1.992-5.425-4.672 0-2.68 2.115-4.637 5.425-4.637 3.275 0 5.425 1.958 5.425 4.637 0 2.68-2.15 4.672-5.425 4.672zM140.475 0h-4.947v1.649c-6.21.137-9.929 2.782-9.929 7.454s3.719 7.11 9.929 7.248V18h4.947v-1.649c6.244-.137 9.963-2.576 9.963-7.248 0-4.672-3.719-7.317-9.963-7.454V0zm-4.947 12.847c-3.412-.137-4.913-1.545-4.913-3.744 0-2.199 1.501-3.779 4.913-3.916v7.66zm4.947-7.66c3.446.137 4.914 1.717 4.914 3.916s-1.468 3.607-4.914 3.744v-7.66zM166.898 0h-4.947v1.649c-6.21.137-9.929 2.782-9.929 7.454s3.719 7.11 9.929 7.248V18h4.947v-1.649c6.244-.137 9.964-2.576 9.964-7.248 0-4.672-3.72-7.317-9.964-7.454V0zm-4.947 12.847c-3.412-.137-4.914-1.545-4.914-3.744 0-2.199 1.502-3.779 4.914-3.916v7.66zm4.947-7.66c3.445.137 4.914 1.717 4.914 3.916s-1.469 3.607-4.914 3.744v-7.66z" fill="#fff"/></svg>