<svg width="86" height="83" viewBox="0 0 86 83" fill="none" xmlns="http://www.w3.org/2000/svg">
<path d="M0 17.4737L86 0L81.7915 83L2.01277 78.0075L0 17.4737Z" fill="white"/>
<path d="M22.8333 67L21.846 67.1585C21.9238 67.6434 22.3422 68 22.8333 68V67ZM53.1667 67V68C53.6578 68 54.0762 67.6434 54.154 67.1585L53.1667 67ZM45.5833 50.125L44.7307 50.6475C44.8833 50.8965 45.1372 51.0664 45.4256 51.1125C45.7141 51.1586 46.0082 51.0762 46.2308 50.8871L45.5833 50.125ZM30.4167 50.125L29.7692 50.8871C29.9918 51.0762 30.2859 51.1586 30.5744 51.1125C30.8628 51.0664 31.1167 50.8965 31.2693 50.6475L30.4167 50.125ZM17.5126 40.1585L21.846 67.1585L23.8207 66.8415L19.4874 39.8415L17.5126 40.1585ZM22.8333 68H53.1667V66H22.8333V68ZM54.154 67.1585L58.4874 40.1585L56.5126 39.8415L52.1793 66.8415L54.154 67.1585ZM56.8525 39.2379L44.9358 49.3629L46.2308 50.8871L58.1475 40.7621L56.8525 39.2379ZM17.8525 40.7621L29.7692 50.8871L31.0642 49.3629L19.1475 39.2379L17.8525 40.7621ZM31.2693 50.6475L38.8526 38.2725L37.1474 37.2275L29.564 49.6025L31.2693 50.6475ZM37.1474 38.2725L44.7307 50.6475L46.436 49.6025L38.8526 37.2275L37.1474 38.2725ZM40.25 34.375C40.25 35.7226 39.2074 36.75 38 36.75V38.75C40.3824 38.75 42.25 36.7553 42.25 34.375H40.25ZM38 36.75C36.7926 36.75 35.75 35.7226 35.75 34.375H33.75C33.75 36.7553 35.6176 38.75 38 38.75V36.75ZM35.75 34.375C35.75 33.0274 36.7926 32 38 32V30C35.6176 30 33.75 31.9947 33.75 34.375H35.75ZM38 32C39.2074 32 40.25 33.0274 40.25 34.375H42.25C42.25 31.9947 40.3824 30 38 30V32ZM20.75 36.625C20.75 37.9726 19.7074 39 18.5 39V41C20.8824 41 22.75 39.0053 22.75 36.625H20.75ZM18.5 39C17.2926 39 16.25 37.9726 16.25 36.625H14.25C14.25 39.0053 16.1176 41 18.5 41V39ZM16.25 36.625C16.25 35.2774 17.2926 34.25 18.5 34.25V32.25C16.1176 32.25 14.25 34.2447 14.25 36.625H16.25ZM18.5 34.25C19.7074 34.25 20.75 35.2774 20.75 36.625H22.75C22.75 34.2447 20.8824 32.25 18.5 32.25V34.25ZM59.75 36.625C59.75 37.9726 58.7074 39 57.5 39V41C59.8824 41 61.75 39.0053 61.75 36.625H59.75ZM57.5 39C56.2926 39 55.25 37.9726 55.25 36.625H53.25C53.25 39.0053 55.1176 41 57.5 41V39ZM55.25 36.625C55.25 35.2774 56.2926 34.25 57.5 34.25V32.25C55.1176 32.25 53.25 34.2447 53.25 36.625H55.25ZM57.5 34.25C58.7074 34.25 59.75 35.2774 59.75 36.625H61.75C61.75 34.2447 59.8824 32.25 57.5 32.25V34.25Z" fill="#FECE2F"/>
</svg>
