<svg width="139" height="131" fill="none" xmlns="http://www.w3.org/2000/svg"><path d="M56.269 122.796c.12-1.478.111-4.38-1.255-7.655-1.577-3.787-6.334-5.418-6.334-5.418s-1.151 5.47 1.09 9.072c.722 1.162 2.093 2.3 3.38 3.202a58.533 58.533 0 01-6.791-2.416c.372-1.396.87-4.215.105-7.633-.876-3.921-5.191-6.304-5.191-6.304s-2.041 5.084-.493 8.942c.506 1.259 1.66 2.612 2.76 3.708a60.878 60.878 0 01-4.109-2.191 41.045 41.045 0 01-2.317-1.356c.593-1.251 1.6-3.923 1.44-7.427-.175-3.935-3.933-6.966-3.933-6.966s-2.84 4.561-2.002 8.544c.294 1.399 1.288 3.027 2.224 4.322a53.525 53.525 0 01-5.928-4.946c.78-1.096 2.225-3.515 2.671-6.95.503-3.824-2.606-7.389-2.606-7.389s-3.517 3.92-3.39 7.905c.045 1.376.705 3.078 1.372 4.472a61.976 61.976 0 01-4.906-5.891c.957-.954 2.706-3.024 3.7-6.19 1.138-3.607-1.256-7.575-1.256-7.575s-4.064 3.185-4.618 7.055c-.182 1.267.12 2.91.499 4.322a62.718 62.718 0 01-3.722-6.386c1.072-.742 3.15-2.449 4.671-5.377 1.712-3.288.08-7.523.08-7.523s-4.465 2.383-5.66 6.025c-.412 1.254-.379 3.003-.234 4.478a58.09 58.09 0 01-2.673-7.115c1.135-.512 3.491-1.806 5.505-4.431 2.213-2.883 1.362-7.249 1.362-7.249s-4.718 1.543-6.491 4.855c-.654 1.213-.912 3.056-1.012 4.561a53.044 53.044 0 01-1.401-7.81c1.162-.288 3.693-1.131 6.113-3.352 2.63-2.409 2.552-6.765 2.552-6.765s-4.816.687-7.092 3.584c-.845 1.07-1.413 2.829-1.765 4.27a52.133 52.133 0 01-.106-8.247c1.124-.069 3.777-.425 6.568-2.205 2.947-1.878 3.616-6.096 3.616-6.096s-4.767-.153-7.457 2.253c-1.079.965-1.983 2.755-2.57 4.142a57.296 57.296 0 011.538-8.588c1.11.123 3.718.22 6.695-1.016 3.164-1.312 4.53-5.27 4.53-5.27s-4.575-.957-7.583.91c-1.164.722-2.305 2.22-3.106 3.44a62.178 62.178 0 013-8.053c1.051.308 3.55.845 6.632.156 3.28-.728 5.27-4.316 5.27-4.316s-4.248-1.7-7.473-.409c-1.255.502-2.62 1.768-3.601 2.812a62.34 62.34 0 014.33-7.466c.881.45 3.263 1.477 6.486 1.332 3.287-.147 5.822-3.273 5.822-3.273s-3.81-2.36-7.141-1.661c-1.436.3-3.164 1.482-4.305 2.368a54.804 54.804 0 015.78-6.868c.68.53 2.855 2.036 6.131 2.462 3.2.418 6.182-2.168 6.182-2.168s-3.278-2.927-6.612-2.818c-1.58.051-3.677 1.065-4.906 1.742a43.013 43.013 0 013.41-2.952 61.995 61.995 0 013.815-2.926c.585.645 2.424 2.444 5.485 3.4 3.014.946 6.332-1.044 6.332-1.044s-2.665-3.38-5.9-3.84c-1.508-.217-3.663.385-4.972.826a60.334 60.334 0 017.886-4.553c.364.603 1.832 2.792 4.773 4.312 2.75 1.426 6.29.068 6.29.068s-1.997-3.714-5.038-4.708c-1.589-.519-4.13-.19-5.377.024a57.322 57.322 0 015.497-2.218c.648.318 2.792 1.242 4.734.576 2.898-.992 4.332-2.942 4.332-2.942s-2.992-1.142-4.77-.842c-2.228.38-4.048 2.54-4.422 3.01a53.222 53.222 0 00-4.377 1.59c1.072-.734 3.039-2.21 3.798-3.642 1.5-2.826.35-6.88.35-6.88s-3.494 1.475-4.483 4.403c-1.07 3.175-.575 5.801-.426 6.44a58.735 58.735 0 00-8.147 4.313c.97-.973 2.503-2.669 2.977-4.14 1.005-3.106-.871-6.975-.871-6.975s-3.25 2.099-3.722 5.217c-.501 3.296.405 5.803.694 6.495a62.764 62.764 0 00-4.862 3.545 42.23 42.23 0 00-2.19 1.77c.779-1.17 1.744-2.849 1.933-4.212.458-3.296-2.113-6.854-2.113-6.854s-2.894 2.683-2.816 5.9c.078 3.192 1.272 5.463 1.763 6.268-2.033 1.884-4.008 4.052-5.863 6.448.552-1.298 1.157-3.043 1.108-4.377-.127-3.394-3.346-6.514-3.346-6.514s-2.429 3.208-1.777 6.427c.641 3.182 2.238 5.251 2.878 5.977a62.7 62.7 0 00-4.698 7.563c.334-1.413.657-3.337.362-4.702-.73-3.388-4.517-5.955-4.517-5.955s-1.87 3.654-.646 6.773c1.22 3.108 3.212 4.907 3.973 5.512a63.015 63.015 0 00-3.248 7.907c.062-1.43.007-3.216-.49-4.436-1.334-3.274-5.596-5.184-5.596-5.184s-1.231 4 .555 6.919c1.72 2.814 3.951 4.27 4.883 4.788a58.46 58.46 0 00-1.742 7.888c-.21-1.34-.571-2.854-1.205-3.861-1.922-3.053-6.544-4.22-6.544-4.22s-.526 4.24 1.784 6.854c2.14 2.422 4.529 3.505 5.627 3.904a54.124 54.124 0 00-.218 7.902c-.446-1.29-1.072-2.715-1.872-3.597C4.849 61.676 0 61.318 0 61.318s.221 4.355 3.01 6.576c2.6 2.073 5.22 2.732 6.38 2.932a53.85 53.85 0 001.013 7.427c-.67-1.189-1.53-2.452-2.462-3.177C4.967 72.77.03 73.27.03 73.27s.998 4.335 4.196 6.074c2.935 1.598 5.642 1.815 6.873 1.818a58.526 58.526 0 002.385 7.112c-.89-1.088-1.994-2.234-3.076-2.807-3.4-1.791-8.27-.414-8.27-.414s1.77 4.18 5.291 5.363c3.253 1.09 6.022.822 7.249.61a63.388 63.388 0 003.602 6.655c-1.1-.954-2.436-1.935-3.645-2.324-3.73-1.2-8.384 1.045-8.384 1.045s2.525 3.885 6.272 4.452c3.466.523 6.205-.24 7.397-.671a63.727 63.727 0 004.436 5.733c-1.201-.692-2.569-1.333-3.743-1.495-3.963-.546-8.24 2.532-8.24 2.532s3.226 3.459 7.093 3.366c3.444-.084 5.996-1.245 7.182-1.908a57.07 57.07 0 005.11 4.678c-1.237-.427-2.578-.758-3.681-.717-4.079.15-7.832 4-7.832 4s3.857 2.907 7.728 2.128c3.383-.681 5.718-2.253 6.818-3.138a43.906 43.906 0 003.708 2.3c.783.466 1.556.902 2.32 1.313-1.363-.226-2.839-.344-3.99-.097-4.07.873-7.158 5.403-7.158 5.403s4.394 2.24 8.145.774c3.327-1.301 5.407-3.336 6.334-4.408a60.998 60.998 0 006.368 2.553c-1.391.018-2.86.164-3.953.607-3.937 1.597-6.234 6.697-6.234 6.697s4.812 1.473 8.32-.665c3.096-1.882 4.822-4.277 5.572-5.524 5.633 1.49 9.105 1.709 9.105 1.709l.102-1.008.103-1.008s-2.71-.185-7.263-1.213zm78.508-43.45c3.196-1.74 4.194-6.075 4.194-6.075s-4.938-.5-7.912 1.805c-.931.725-1.793 1.988-2.462 3.177a53.623 53.623 0 001.014-7.427c1.158-.199 3.777-.859 6.377-2.932 2.791-2.221 3.012-6.576 3.012-6.576s-4.849.358-7.325 3.088c-.8.884-1.426 2.306-1.872 3.597a53.517 53.517 0 00-.22-7.902c1.1-.399 3.49-1.482 5.629-3.904 2.311-2.615 1.784-6.855 1.784-6.855s-4.622 1.168-6.544 4.22c-.634 1.009-.996 2.524-1.205 3.864a58.638 58.638 0 00-1.74-7.89c.93-.519 3.161-1.974 4.881-4.788 1.788-2.918.555-6.92.555-6.92s-4.262 1.91-5.598 5.184c-.495 1.22-.55 3.007-.488 4.437a62.848 62.848 0 00-3.248-7.907c.761-.605 2.753-2.404 3.972-5.512 1.226-3.119-.645-6.773-.645-6.773s-3.785 2.567-4.517 5.955c-.293 1.365.03 3.291.362 4.703a62.777 62.777 0 00-4.698-7.564c.64-.726 2.237-2.795 2.878-5.977.65-3.22-1.776-6.427-1.776-6.427s-3.22 3.12-3.347 6.514c-.049 1.334.556 3.08 1.11 4.377-1.859-2.396-3.832-4.564-5.865-6.448.491-.805 1.685-3.076 1.763-6.268.078-3.217-2.814-5.9-2.814-5.9s-2.571 3.558-2.113 6.854c.187 1.363 1.152 3.042 1.931 4.212a42.15 42.15 0 00-2.19-1.77 62.66 62.66 0 00-4.862-3.545c.289-.691 1.197-3.199.696-6.495-.473-3.118-3.722-5.217-3.722-5.217s-1.879 3.87-.873 6.974c.476 1.472 2.006 3.168 2.979 4.143a58.576 58.576 0 00-8.149-4.315c.149-.639.644-3.265-.426-6.44C92.314 1.695 88.819.22 88.819.22s-1.146 4.054.35 6.88c.758 1.432 2.727 2.907 3.799 3.642a53.222 53.222 0 00-4.377-1.59c-.374-.47-2.194-2.63-4.42-3.01-1.78-.3-4.772.842-4.772.842s1.434 1.95 4.332 2.942c1.944.666 4.088-.258 4.734-.576a57.332 57.332 0 015.5 2.218c-1.248-.214-3.79-.543-5.38-.024-3.041.994-5.037 4.708-5.037 4.708s3.54 1.358 6.289-.068c2.941-1.52 4.409-3.71 4.773-4.312a60.106 60.106 0 017.886 4.554c-1.309-.441-3.462-1.044-4.974-.828-3.233.462-5.898 3.84-5.898 3.84s3.319 1.991 6.334 1.045c3.061-.956 4.9-2.755 5.485-3.4a62.856 62.856 0 013.814 2.926 43.61 43.61 0 013.411 2.953c-1.229-.677-3.327-1.692-4.91-1.743-3.332-.11-6.608 2.818-6.608 2.818s2.98 2.586 6.18 2.168c3.276-.426 5.452-1.932 6.131-2.463a54.981 54.981 0 015.78 6.869c-1.139-.886-2.866-2.067-4.305-2.368-3.331-.7-7.14 1.661-7.14 1.661s2.534 3.126 5.821 3.273c3.223.145 5.607-.883 6.485-1.332a62.244 62.244 0 014.331 7.468c-.981-1.046-2.346-2.312-3.603-2.814-3.221-1.291-7.471.41-7.471.41s1.992 3.587 5.27 4.315c3.082.689 5.583.152 6.632-.156a61.918 61.918 0 013 8.055c-.801-1.22-1.942-2.719-3.108-3.442-3.006-1.867-7.579-.91-7.579-.91s1.364 3.958 4.528 5.27c2.977 1.236 5.585 1.14 6.695 1.016a57.372 57.372 0 011.538 8.588c-.587-1.387-1.491-3.178-2.569-4.142-2.691-2.406-7.458-2.253-7.458-2.253s.669 4.218 3.616 6.096c2.791 1.78 5.446 2.136 6.569 2.205a52.33 52.33 0 01-.107 8.25c-.352-1.444-.92-3.202-1.763-4.273-2.278-2.897-7.094-3.584-7.094-3.584s-.078 4.356 2.552 6.765c2.42 2.22 4.951 3.064 6.113 3.353a53.398 53.398 0 01-1.399 7.81c-.1-1.506-.36-3.349-1.012-4.562-1.773-3.312-6.491-4.855-6.491-4.855s-.853 4.366 1.36 7.249c2.014 2.625 4.37 3.92 5.505 4.43a58.171 58.171 0 01-2.673 7.116c.145-1.475.18-3.224-.233-4.478-1.196-3.642-5.661-6.025-5.661-6.025s-1.632 4.235.08 7.523c1.522 2.928 3.599 4.635 4.671 5.377a62 62 0 01-3.722 6.386c.38-1.413.681-3.055.499-4.322-.554-3.87-4.616-7.055-4.616-7.055s-2.396 3.968-1.259 7.575c.995 3.166 2.744 5.236 3.703 6.188a62.212 62.212 0 01-4.908 5.892c.667-1.395 1.327-3.095 1.372-4.471.129-3.986-3.392-7.905-3.392-7.905s-3.105 3.565-2.604 7.389c.448 3.435 1.89 5.854 2.671 6.95a53.317 53.317 0 01-5.927 4.945c.935-1.294 1.931-2.922 2.223-4.321.837-3.983-2.002-8.544-2.002-8.544s-3.756 3.031-3.934 6.966c-.158 3.504.85 6.176 1.441 7.427-.773.485-1.546.94-2.32 1.356a60.872 60.872 0 01-4.107 2.191c1.102-1.096 2.254-2.449 2.761-3.708 1.548-3.858-.493-8.942-.493-8.942s-4.315 2.383-5.191 6.304c-.766 3.418-.267 6.237.105 7.633a58.533 58.533 0 01-6.79 2.416c1.285-.902 2.655-2.04 3.377-3.202 2.243-3.602 1.092-9.072 1.092-9.072s-4.757 1.631-6.334 5.418c-1.364 3.275-1.376 6.177-1.255 7.655-4.551 1.028-7.261 1.213-7.261 1.213l.101 1.008.104 1.008s3.47-.219 9.103-1.709c.75 1.247 2.476 3.642 5.572 5.524 3.508 2.138 8.32.665 8.32.665s-2.297-5.1-6.234-6.697c-1.092-.443-2.562-.589-3.953-.607a60.998 60.998 0 006.368-2.553c.927 1.072 3.007 3.107 6.334 4.408 3.751 1.466 8.145-.774 8.145-.774s-3.088-4.53-7.159-5.403c-1.15-.247-2.624-.129-3.992.097.767-.411 1.54-.847 2.323-1.313a43.541 43.541 0 003.706-2.3c1.1.883 3.437 2.457 6.82 3.138 3.871.779 7.728-2.128 7.728-2.128s-3.751-3.85-7.832-4c-1.103-.041-2.444.29-3.68.717a57.484 57.484 0 005.111-4.678c1.184.663 3.736 1.824 7.18 1.908 3.867.093 7.094-3.366 7.094-3.366s-4.278-3.078-8.241-2.532c-1.174.162-2.542.803-3.743 1.495a63.798 63.798 0 004.436-5.733c1.192.431 3.929 1.194 7.397.671 3.749-.567 6.274-4.452 6.274-4.452s-4.654-2.245-8.386-1.045c-1.211.389-2.546 1.37-3.645 2.324a63.699 63.699 0 003.602-6.655c1.227.212 3.996.48 7.247-.61 3.522-1.183 5.293-5.363 5.293-5.363s-4.873-1.377-8.27.414c-1.082.573-2.186 1.719-3.076 2.807a58.802 58.802 0 002.385-7.112c1.231-.003 3.938-.22 6.875-1.818z" fill="#E1E3E4"/></svg>