<svg width="107" height="100" fill="none" xmlns="http://www.w3.org/2000/svg"><g clip-path="url(#clip0)"><path d="M42.953 93.738c.093-1.13.085-3.344-.958-5.844-1.203-2.891-4.835-4.136-4.835-4.136s-.878 4.175.832 6.926c.551.886 1.599 1.755 2.58 2.443a44.687 44.687 0 01-5.184-1.844c.284-1.065.665-3.218.081-5.826-.67-2.994-3.963-4.813-3.963-4.813s-1.558 3.881-.377 6.826c.387.961 1.267 1.994 2.108 2.83a46.48 46.48 0 01-3.137-1.67 31.722 31.722 0 01-1.768-1.036c.452-.955 1.22-2.995 1.1-5.67-.135-3.003-3.003-5.317-3.003-5.317s-2.168 3.482-1.529 6.522c.224 1.068.983 2.31 1.697 3.3a40.813 40.813 0 01-4.524-3.776c.596-.836 1.698-2.683 2.039-5.305.384-2.92-1.99-5.64-1.99-5.64s-2.684 2.99-2.587 6.034c.034 1.05.537 2.349 1.047 3.413a47.304 47.304 0 01-3.745-4.497c.73-.728 2.066-2.308 2.825-4.725.867-2.754-.96-5.782-.96-5.782s-3.102 2.43-3.525 5.385c-.139.967.091 2.221.381 3.3a47.899 47.899 0 01-2.841-4.875c.818-.567 2.405-1.87 3.565-4.105 1.308-2.51.062-5.743.062-5.743s-3.41 1.82-4.322 4.6c-.313.957-.288 2.292-.178 3.418a44.342 44.342 0 01-2.04-5.432c.866-.39 2.665-1.378 4.202-3.382 1.69-2.2 1.04-5.533 1.04-5.533s-3.602 1.178-4.955 3.706c-.5.926-.696 2.333-.773 3.482a40.493 40.493 0 01-1.07-5.962c.888-.22 2.82-.864 4.668-2.56 2.007-1.838 1.947-5.163 1.947-5.163s-3.676.524-5.413 2.736c-.645.817-1.079 2.159-1.348 3.26a39.796 39.796 0 01-.08-6.297c.857-.052 2.883-.324 5.013-1.683 2.25-1.433 2.76-4.653 2.76-4.653s-3.638-.117-5.692 1.72c-.823.736-1.514 2.102-1.962 3.162a43.739 43.739 0 011.174-6.556c.847.094 2.839.168 5.11-.776 2.416-1.001 3.459-4.023 3.459-4.023s-3.493-.73-5.789.695c-.888.551-1.76 1.694-2.37 2.626a47.456 47.456 0 012.29-6.147c.802.234 2.71.644 5.062.12 2.504-.557 4.023-3.296 4.023-3.296s-3.243-1.298-5.705-.312c-.957.383-2 1.35-2.748 2.147a47.573 47.573 0 013.305-5.7c.673.343 2.49 1.128 4.95 1.017 2.51-.112 4.445-2.498 4.445-2.498s-2.909-1.803-5.451-1.268c-1.096.229-2.415 1.13-3.286 1.807a41.825 41.825 0 014.412-5.242c.519.404 2.18 1.554 4.68 1.879 2.443.319 4.72-1.655 4.72-1.655s-2.503-2.235-5.048-2.151c-1.206.039-2.807.813-3.745 1.33a32.838 32.838 0 012.604-2.254 47.313 47.313 0 012.911-2.234c.447.493 1.85 1.866 4.187 2.596 2.3.722 4.834-.797 4.834-.797s-2.034-2.58-4.504-2.932c-1.151-.165-2.796.294-3.795.631a46.044 46.044 0 016.02-3.475c.277.46 1.398 2.13 3.643 3.291 2.099 1.089 4.801.052 4.801.052s-1.524-2.835-3.845-3.594c-1.213-.396-3.153-.145-4.105.019a43.757 43.757 0 014.196-1.693c.495.242 2.132.947 3.614.44 2.212-.758 3.307-2.246 3.307-2.246s-2.284-.873-3.642-.643c-1.7.29-3.09 1.94-3.374 2.297-.945.297-2.072.69-3.342 1.214.819-.56 2.32-1.687 2.9-2.78 1.144-2.157.267-5.252.267-5.252s-2.668 1.126-3.423 3.361c-.817 2.424-.439 4.428-.325 4.916a44.837 44.837 0 00-6.219 3.292c.741-.742 1.91-2.037 2.272-3.16.768-2.37-.665-5.324-.665-5.324s-2.48 1.602-2.84 3.982c-.383 2.516.308 4.43.53 4.958a47.886 47.886 0 00-3.713 2.706 32.24 32.24 0 00-1.671 1.352c.594-.894 1.33-2.175 1.476-3.216.35-2.516-1.614-5.232-1.614-5.232s-2.209 2.048-2.15 4.504c.06 2.436.972 4.17 1.347 4.784a40.658 40.658 0 00-4.476 4.923c.421-.991.883-2.323.846-3.342-.097-2.59-2.555-4.972-2.555-4.972s-1.853 2.449-1.356 4.906c.49 2.429 1.709 4.008 2.197 4.563a47.866 47.866 0 00-3.586 5.773c.255-1.078.502-2.547.276-3.59-.557-2.585-3.448-4.545-3.448-4.545s-1.428 2.79-.493 5.17c.931 2.372 2.452 3.746 3.033 4.207a48.104 48.104 0 00-2.48 6.036c.048-1.091.006-2.455-.373-3.386-1.02-2.499-4.273-3.957-4.273-3.957s-.94 3.054.425 5.282c1.313 2.148 3.016 3.259 3.727 3.654a44.626 44.626 0 00-1.33 6.022c-.16-1.022-.436-2.178-.92-2.947-1.467-2.331-4.995-3.222-4.995-3.222s-.402 3.237 1.362 5.233c1.633 1.848 3.457 2.675 4.295 2.98a41.315 41.315 0 00-.166 6.032c-.34-.986-.819-2.073-1.43-2.746C3.701 47.08 0 46.808 0 46.808s.169 3.324 2.297 5.02c1.986 1.582 3.986 2.085 4.87 2.238.127 1.924.389 3.818.774 5.67-.51-.908-1.168-1.872-1.88-2.426-2.27-1.76-6.039-1.378-6.039-1.378s.762 3.31 3.203 4.637c2.24 1.22 4.307 1.385 5.246 1.387a44.669 44.669 0 001.821 5.43c-.68-.831-1.522-1.706-2.348-2.143-2.595-1.367-6.313-.316-6.313-.316s1.352 3.19 4.04 4.093c2.482.833 4.596.628 5.533.466a48.371 48.371 0 002.75 5.08c-.84-.728-1.86-1.477-2.783-1.773-2.847-.917-6.4.797-6.4.797s1.927 2.966 4.788 3.398c2.645.4 4.737-.182 5.647-.512a48.623 48.623 0 003.386 4.377c-.917-.528-1.961-1.018-2.858-1.141-3.025-.417-6.29 1.932-6.29 1.932s2.463 2.64 5.415 2.57c2.629-.064 4.577-.95 5.482-1.457a43.598 43.598 0 003.9 3.572c-.944-.327-1.967-.58-2.81-.548-3.112.115-5.978 3.053-5.978 3.053s2.945 2.22 5.9 1.624c2.582-.519 4.364-1.72 5.204-2.395a33.586 33.586 0 002.83 1.756 45.23 45.23 0 001.772 1.002c-1.04-.172-2.167-.262-3.046-.073-3.107.666-5.464 4.124-5.464 4.124s3.354 1.71 6.217.59c2.54-.993 4.128-2.546 4.836-3.364a46.648 46.648 0 004.86 1.949c-1.061.013-2.183.125-3.017.463-3.005 1.22-4.759 5.112-4.759 5.112s3.673 1.125 6.352-.507c2.363-1.437 3.68-3.265 4.253-4.217 4.3 1.138 6.95 1.304 6.95 1.304l.078-.77.08-.769s-2.07-.14-5.546-.925zm59.93-33.17c2.44-1.327 3.201-4.636 3.201-4.636s-3.768-.382-6.039 1.378c-.711.553-1.368 1.518-1.88 2.425.388-1.851.648-3.745.774-5.67.885-.151 2.884-.655 4.869-2.237 2.13-1.696 2.299-5.02 2.299-5.02s-3.702.273-5.591 2.357c-.611.675-1.09 1.76-1.43 2.746.096-2.034.033-4.05-.167-6.032.84-.305 2.663-1.132 4.296-2.98 1.764-1.996 1.362-5.233 1.362-5.233s-3.528.891-4.995 3.222c-.484.77-.76 1.926-.92 2.949a44.862 44.862 0 00-1.328-6.024c.71-.395 2.412-1.506 3.725-3.654 1.366-2.228.425-5.282.425-5.282s-3.254 1.458-4.274 3.957c-.378.931-.42 2.295-.372 3.386a48.102 48.102 0 00-2.48-6.035c.581-.462 2.102-1.836 3.032-4.208.936-2.38-.492-5.17-.492-5.17s-2.89 1.96-3.448 4.546c-.224 1.042.022 2.512.276 3.59a47.92 47.92 0 00-3.587-5.774c.489-.555 1.708-2.134 2.198-4.563.496-2.457-1.356-4.906-1.356-4.906s-2.458 2.382-2.555 4.972c-.037 1.019.424 2.351.847 3.342a40.923 40.923 0 00-4.477-4.923c.375-.614 1.286-2.348 1.346-4.784.06-2.456-2.148-4.504-2.148-4.504s-1.963 2.716-1.613 5.232c.143 1.04.88 2.322 1.474 3.216a32.239 32.239 0 00-1.672-1.352 47.924 47.924 0 00-3.712-2.706c.221-.527.915-2.441.532-4.958-.361-2.38-2.841-3.982-2.841-3.982s-1.434 2.953-.666 5.323c.363 1.124 1.53 2.419 2.273 3.163a44.709 44.709 0 00-6.22-3.294c.114-.488.491-2.492-.326-4.916C70.47 1.294 67.801.17 67.801.17s-.875 3.094.267 5.25c.579 1.094 2.081 2.22 2.9 2.781a40.618 40.618 0 00-3.342-1.214c-.285-.358-1.674-2.007-3.373-2.297-1.36-.23-3.643.643-3.643.643s1.095 1.488 3.307 2.245c1.483.508 3.12-.197 3.614-.44 1.147.396 2.575.94 4.197 1.694-.951-.164-2.892-.415-4.106-.02-2.322.76-3.845 3.595-3.845 3.595s2.702 1.037 4.8-.052c2.246-1.16 3.366-2.831 3.644-3.291a45.885 45.885 0 016.02 3.476c-.999-.337-2.642-.797-3.797-.632-2.468.352-4.502 2.932-4.502 2.932s2.533 1.52 4.835.797c2.337-.73 3.74-2.103 4.187-2.596a48.21 48.21 0 012.912 2.234 33.381 33.381 0 012.603 2.254c-.938-.516-2.539-1.291-3.748-1.33-2.543-.084-5.044 2.15-5.044 2.15s2.275 1.975 4.717 1.656c2.501-.325 4.162-1.475 4.68-1.88a41.958 41.958 0 014.413 5.243c-.87-.676-2.188-1.578-3.286-1.808-2.543-.534-5.451 1.269-5.451 1.269s1.934 2.386 4.444 2.498c2.46.11 4.28-.674 4.95-1.017a47.532 47.532 0 013.306 5.701c-.748-.799-1.79-1.765-2.75-2.148-2.459-.986-5.703.312-5.703.312s1.52 2.74 4.023 3.295c2.352.525 4.261.115 5.062-.12a47.21 47.21 0 012.29 6.15c-.61-.932-1.482-2.076-2.372-2.628-2.294-1.425-5.786-.695-5.786-.695s1.042 3.022 3.457 4.023c2.272.944 4.264.87 5.11.776.552 2.13.949 4.324 1.175 6.556-.448-1.059-1.139-2.426-1.962-3.162-2.054-1.837-5.693-1.72-5.693-1.72s.511 3.22 2.76 4.653c2.131 1.36 4.158 1.631 5.016 1.683a39.99 39.99 0 01-.083 6.298c-.268-1.102-.702-2.444-1.345-3.261-1.74-2.212-5.416-2.736-5.416-2.736s-.06 3.325 1.948 5.164c1.848 1.695 3.78 2.339 4.667 2.56a40.694 40.694 0 01-1.068 5.96c-.076-1.148-.275-2.555-.772-3.481-1.354-2.528-4.955-3.706-4.955-3.706s-.652 3.332 1.038 5.533c1.537 2.004 3.336 2.992 4.202 3.382a44.34 44.34 0 01-2.04 5.432c.11-1.126.137-2.461-.178-3.418-.913-2.78-4.322-4.6-4.322-4.6s-1.246 3.233.061 5.743c1.163 2.236 2.747 3.538 3.566 4.105a47.346 47.346 0 01-2.841 4.874c.29-1.078.52-2.332.38-3.299-.422-2.954-3.523-5.385-3.523-5.385s-1.829 3.028-.96 5.782c.758 2.417 2.094 3.997 2.826 4.724a47.464 47.464 0 01-3.747 4.497c.51-1.065 1.013-2.362 1.047-3.412.099-3.043-2.588-6.035-2.588-6.035s-2.371 2.721-1.989 5.64c.342 2.623 1.443 4.47 2.04 5.306a40.57 40.57 0 01-4.525 3.775c.714-.988 1.474-2.23 1.697-3.299.639-3.04-1.529-6.522-1.529-6.522s-2.866 2.314-3.002 5.318c-.121 2.674.648 4.714 1.1 5.669-.59.37-1.18.717-1.77 1.036a46.505 46.505 0 01-3.136 1.67c.84-.837 1.72-1.87 2.107-2.831 1.182-2.945-.376-6.826-.376-6.826s-3.294 1.82-3.963 4.813c-.584 2.608-.203 4.76.08 5.826a44.7 44.7 0 01-5.183 1.844c.981-.688 2.027-1.557 2.578-2.443 1.712-2.75.834-6.926.834-6.926s-3.632 1.245-4.836 4.136c-1.04 2.5-1.05 4.715-.957 5.844-3.475.784-5.544.925-5.544.925l.078.77.08.77s2.648-.168 6.948-1.305c.573.952 1.89 2.78 4.253 4.217 2.679 1.632 6.352.507 6.352.507s-1.754-3.893-4.76-5.112c-.833-.338-1.955-.45-3.017-.463a46.639 46.639 0 004.861-1.95c.708.819 2.296 2.372 4.835 3.366 2.864 1.119 6.218-.591 6.218-.591s-2.358-3.458-5.465-4.124c-.878-.189-2.003-.1-3.047.073a45.561 45.561 0 001.773-1.002c.943-.52 1.89-1.108 2.83-1.756.839.674 2.622 1.876 5.205 2.395 2.955.595 5.9-1.624 5.9-1.624s-2.864-2.938-5.979-3.053c-.842-.031-1.866.221-2.81.548a43.806 43.806 0 003.902-3.572c.904.506 2.852 1.393 5.48 1.457 2.953.07 5.416-2.57 5.416-2.57s-3.265-2.349-6.29-1.933c-.897.124-1.94.614-2.858 1.142a48.623 48.623 0 003.386-4.377c.91.33 3 .912 5.647.512 2.862-.432 4.789-3.398 4.789-3.398s-3.552-1.714-6.4-.797c-.925.296-1.944 1.046-2.784 1.774a48.668 48.668 0 002.75-5.081c.937.162 3.05.367 5.532-.466 2.689-.903 4.041-4.093 4.041-4.093s-3.72-1.052-6.313.316c-.826.437-1.669 1.312-2.349 2.143a44.952 44.952 0 001.822-5.43c.939-.002 3.005-.167 5.247-1.387z" fill="#fff"/></g><defs><clipPath id="clip0"><path fill="#fff" d="M0 0h106.107v100H0z"/></clipPath></defs></svg>