<svg width="800" height="1080" fill="none" xmlns="http://www.w3.org/2000/svg"><path d="M694.003 698.381L652.46 363.75H388.235l-16.538 133.208 322.306 201.423zM269.097 1023.75h37.459c-.004-.21-.03-.42-.03-.63 0-1.9.188-3.76.548-5.55l46.751-376.609L713.019 865.44c.6.375 1.23.656 1.845.979l19.024 153.241c.169 1.37.202 2.74.169 4.09h37.545c15.536 0 28.125 12.59 28.125 28.13S787.138 1080 771.602 1080H269.101c-15.536 0-28.125-12.58-28.125-28.12 0-15.54 12.589-28.13 28.121-28.13zm112.501-765h19.668l5.85-45h93.233c2.76 0 5.392-1.496 7.785-2.509 2.392-1.012 4.549-2.943 6.356-4.755 2.715-2.715 5.276-6.438 6.075-10.346.266-1.301 1.031-2.767 1.031-4.147v-21.99c0-1.381-.765-2.731-1.031-4.032-1.331-6.51-6.139-11.869-12.12-14.396-2.392-1.013-5.336-1.571-8.096-1.571h-85.508l4.493-35.993c-10.058-4.286-17.108-14.257-17.108-25.882 0-14.779 11.404-26.869 25.887-28.013C440.503 24.521 474.466 0 513.643 0h13.41c39.138 0 73.068 24.473 85.488 60h1.557c15.536 0 28.125 12.589 28.125 28.125 0 12.964-8.779 23.846-20.708 27.105l17.91 143.52h23.423c15.536 0 28.125 12.589 28.125 28.125 0 8.16-3.495 15.487-9.049 20.625H362.521c-5.55-5.138-9.049-12.465-9.049-20.625 0-15.536 12.593-28.125 28.126-28.125zM9.781 99.191c6.371-5.351 14.479-7.597 22.665-6.142l344.843 61.132c13.429 2.381 23.141 14.051 23.141 27.694 0 13.643-9.829 25.313-23.257 27.694l-345.02 61.132a28.286 28.286 0 01-4.916.432c-6.555 0-12.348-2.292-17.448-6.574-6.375-5.344-9.435-13.234-9.435-21.551V120.743c-.004-8.318 3.048-16.208 9.427-21.552z" fill="#fff"/></svg>