<svg width="1080" height="1080" viewBox="0 0 1080 1080" fill="none" xmlns="http://www.w3.org/2000/svg">
<g clip-path="url(#clip0_104_13)">
<mask id="mask0_104_13" style="mask-type:alpha" maskUnits="userSpaceOnUse" x="200" y="138" width="960" height="942">
<rect x="200" y="138" width="959.444" height="942" fill="#6CC464"/>
</mask>
<g mask="url(#mask0_104_13)">
<g clip-path="url(#clip1_104_13)">
<path d="M1126.74 932.296H234.475V932.742H1126.74V932.296Z" fill="white"/>
<path d="M1037.33 960.988H978.231V961.434H1037.33V960.988Z" fill="white"/>
<path d="M761.304 947.204H712.479V947.649H761.304V947.204Z" fill="white"/>
<path d="M976.446 944.44H942.201V944.885H976.446V944.44Z" fill="white"/>
<path d="M358.696 947.435H328.091V947.881H358.696V947.435Z" fill="white"/>
<path d="M432.361 947.435H374.578V947.881H432.361V947.435Z" fill="white"/>
<path d="M636.262 954.961H528.53V955.406H636.262V954.961Z" fill="white"/>
<path d="M858.06 402.323C855.098 407.791 850.814 412.446 845.594 415.871C840.373 419.296 834.378 421.385 828.144 421.949C821.911 422.514 815.633 421.537 809.874 419.107C804.114 416.677 799.051 412.868 795.139 408.022C791.226 403.177 788.586 397.444 787.454 391.339C786.322 385.233 786.733 378.945 788.651 373.035C790.57 367.126 793.935 361.781 798.446 357.477C802.958 353.174 808.474 350.046 814.502 348.375C810.999 354.864 809.494 362.23 810.174 369.56C810.854 376.89 813.69 383.86 818.329 389.606C822.968 395.351 829.206 399.62 836.269 401.88C843.333 404.141 850.91 404.295 858.06 402.323V402.323Z" fill="white"/>
<path d="M482.405 637.518C478.104 628.887 469.788 622.753 461.258 622.753C458.781 622.712 456.33 623.268 454.112 624.373C451.895 625.478 449.976 627.099 448.517 629.101C445.901 626.875 442.6 625.616 439.166 625.534C433.348 625.534 429.065 629.689 428.048 635.556C425.368 634.236 422.448 633.471 419.465 633.309C413.647 633.06 409.043 635.431 406.67 639.319C405.588 638.665 404.363 638.285 403.1 638.213C402.393 638.107 401.67 638.177 400.995 638.417C400.321 638.657 399.716 639.059 399.235 639.588C398.753 640.117 398.409 640.756 398.234 641.45C398.058 642.143 398.057 642.869 398.229 643.563C398.266 643.756 398.313 643.946 398.371 644.134H492.737C492.934 641.084 486.563 637.625 482.405 637.518Z" fill="white"/>
<path d="M644.02 554.062C638.185 542.457 626.866 534.241 615.236 534.241C611.877 534.198 608.556 534.947 605.55 536.426C602.543 537.905 599.939 540.071 597.952 542.744C594.403 539.746 589.918 538.042 585.248 537.918C577.313 537.918 571.488 543.507 570.102 551.386C566.454 549.622 562.48 548.611 558.422 548.413C550.508 548.056 544.241 551.267 541.018 556.48C539.535 555.595 537.856 555.081 536.127 554.984C531.567 554.776 528.614 558.016 529.498 562.209C529.558 562.476 529.629 562.734 529.699 562.982H658.05C658.351 558.859 649.684 554.26 644.02 554.062Z" fill="white"/>
<path d="M977.481 685.924H976.553C973.68 682.357 970.076 680.182 966.685 680.182C965.547 680.164 964.425 680.444 963.429 680.995C962.433 681.545 961.599 682.347 961.01 683.32C955.746 676.526 948.965 672.121 942.612 672.121C940.206 672.116 937.853 672.832 935.859 674.177C933.864 675.521 932.319 677.433 931.423 679.664C928.893 677.143 925.531 675.628 921.965 675.403C916.397 675.403 912.935 680.342 912.864 687.315C910.254 685.788 907.331 684.873 904.316 684.64C901.905 684.377 899.477 684.939 897.428 686.235C895.38 687.531 893.832 689.483 893.038 691.773C891.991 691.012 890.758 690.55 889.469 690.435C886.417 690.275 884.722 692.825 885.471 696.231H991.472C990.175 693.491 988.218 691.115 985.776 689.316C983.334 687.518 980.484 686.352 977.481 685.924Z" fill="white"/>
<path d="M514.113 734.579H513.185C510.312 731.012 506.707 728.837 503.316 728.837C502.178 728.819 501.056 729.099 500.06 729.65C499.064 730.2 498.231 731.002 497.641 731.975C492.377 725.181 485.596 720.776 479.243 720.776C476.837 720.771 474.484 721.487 472.49 722.832C470.495 724.176 468.95 726.088 468.054 728.319C465.524 725.798 462.162 724.283 458.596 724.057C453.028 724.057 449.566 728.997 449.495 735.969C446.885 734.443 443.962 733.528 440.947 733.295C438.536 733.032 436.108 733.594 434.059 734.89C432.011 736.186 430.463 738.138 429.669 740.428C428.622 739.667 427.389 739.204 426.1 739.09C423.048 738.93 421.353 741.48 422.102 744.886H528.103C526.806 742.146 524.849 739.77 522.407 737.971C519.966 736.172 517.116 735.007 514.113 734.579Z" fill="white"/>
<path d="M824.601 610.261C824.066 610.261 823.548 610.172 823.066 610.172C818.301 604.394 812.359 600.721 806.773 600.721C804.898 600.689 803.047 601.149 801.406 602.057C799.765 602.965 798.391 604.287 797.422 605.892C788.768 594.693 777.579 587.418 767.085 587.418C758.645 587.418 752.22 592.143 748.633 599.9C743.744 595.496 738.265 592.767 733.037 592.767C723.846 592.767 718.154 600.917 718.047 612.383C713.752 609.859 708.935 608.353 703.967 607.978C694.759 607.461 688.12 612.133 685.372 619.766C683.63 618.504 681.574 617.745 679.429 617.572C674.397 617.287 671.595 621.495 672.845 627.112H847.55C845.397 622.641 842.178 618.767 838.177 615.828C834.176 612.89 829.514 610.979 824.601 610.261V610.261Z" fill="white"/>
<path d="M647.452 1013.1C838.544 1013.1 993.455 1004.06 993.455 992.912C993.455 981.764 838.544 972.726 647.452 972.726C456.361 972.726 301.45 981.764 301.45 992.912C301.45 1004.06 456.361 1013.1 647.452 1013.1Z" fill="white"/>
<path d="M792.309 922.478C856.246 925.667 908.573 966.792 921.328 991.81H658.548C658.548 956.817 719.787 918.881 792.309 922.478Z" fill="#AF6BCA"/>
<path d="M782.579 922.241C785.768 922.241 789.038 922.241 792.309 922.486C856.246 925.674 908.573 966.795 921.328 991.81H658.548C658.548 958.293 714.39 922.241 782.579 922.241Z" fill="url(#paint0_linear_104_13)"/>
<path d="M460.03 881.317L446.584 948.108C446.502 948.517 446.502 949.008 446.584 949.416C446.665 949.825 446.91 950.234 447.154 950.561C447.399 950.888 447.806 951.215 448.132 951.378C448.54 951.542 448.947 951.705 449.355 951.705H470.624C471.032 951.705 471.521 951.624 471.928 951.46C472.335 951.297 472.661 950.97 472.906 950.643C473.15 950.316 473.395 949.907 473.476 949.498C473.558 949.089 473.558 948.599 473.476 948.19L460.03 881.317Z" fill="#8E6AA4"/>
<path opacity="0.3" d="M460.03 896.05L446.584 949.643C446.502 949.972 446.502 950.301 446.584 950.713C446.665 951.042 446.91 951.371 447.154 951.618C447.399 951.865 447.806 952.112 448.132 952.277C448.458 952.442 448.947 952.524 449.355 952.524H470.624C471.032 952.524 471.521 952.442 471.928 952.277C472.335 952.112 472.661 951.865 472.906 951.618C473.15 951.371 473.395 951.042 473.476 950.713C473.558 950.383 473.558 950.054 473.476 949.643L460.03 896.05Z" fill="black"/>
<path d="M479.227 853.49L460.493 946.872C460.411 947.446 460.411 948.101 460.574 948.675C460.737 949.248 460.981 949.821 461.389 950.231C461.796 950.722 462.203 951.05 462.773 951.296C463.344 951.542 463.914 951.705 464.484 951.705H494.051C494.622 951.705 495.273 951.542 495.762 951.296C496.332 951.05 496.739 950.641 497.147 950.231C497.554 949.74 497.798 949.248 497.961 948.675C498.124 948.101 498.124 947.446 498.043 946.872L479.227 853.49Z" fill="#8E6AA4"/>
<path opacity="0.3" d="M479.227 873.951L460.493 947.879C460.411 948.367 460.411 948.856 460.574 949.263C460.737 949.751 460.981 950.158 461.389 950.484C461.796 950.891 462.203 951.135 462.773 951.38C463.344 951.624 463.914 951.705 464.484 951.705H494.051C494.622 951.705 495.273 951.624 495.762 951.38C496.332 951.135 496.739 950.891 497.147 950.484C497.554 950.077 497.798 949.67 497.961 949.263C498.124 948.774 498.124 948.286 498.043 947.879L479.227 873.951Z" fill="black"/>
<path d="M496.019 863.311L479.329 946.471C479.247 946.962 479.247 947.534 479.329 948.107C479.492 948.597 479.655 949.088 480.062 949.579C480.387 949.988 480.794 950.315 481.283 950.56C481.771 950.805 482.341 950.887 482.83 950.887H509.209C509.779 950.887 510.267 950.805 510.756 950.56C511.244 950.315 511.651 949.988 511.977 949.579C512.302 949.17 512.547 948.679 512.71 948.107C512.872 947.616 512.872 947.044 512.71 946.471L496.019 863.311Z" fill="#8E6AA4"/>
<path opacity="0.3" d="M496.019 882.136L479.329 948.203C479.247 948.61 479.247 949.017 479.329 949.506C479.492 949.913 479.655 950.321 480.062 950.646C480.387 950.972 480.794 951.217 481.283 951.461C481.771 951.624 482.341 951.705 482.83 951.705H509.209C509.779 951.705 510.267 951.624 510.756 951.461C511.244 951.298 511.651 951.054 511.977 950.646C512.302 950.321 512.547 949.913 512.71 949.506C512.872 949.099 512.872 948.691 512.71 948.203L496.019 882.136Z" fill="black"/>
<path d="M569.696 863.311L553.005 946.471C552.924 946.962 552.924 947.534 553.005 948.107C553.168 948.597 553.331 949.088 553.738 949.579C554.064 949.988 554.471 950.315 554.959 950.56C555.448 950.805 556.018 950.887 556.506 950.887H582.885C583.455 950.887 583.944 950.805 584.432 950.56C584.921 950.315 585.328 949.988 585.653 949.579C585.979 949.17 586.223 948.679 586.386 948.107C586.549 947.616 586.549 947.044 586.386 946.471L569.696 863.311Z" fill="#8E6AA4"/>
<path opacity="0.3" d="M569.696 882.136L553.005 948.203C552.924 948.61 552.924 949.017 553.005 949.506C553.168 949.913 553.331 950.321 553.738 950.646C554.064 950.972 554.471 951.217 554.959 951.461C555.448 951.624 556.018 951.705 556.506 951.705H582.885C583.455 951.705 583.944 951.624 584.432 951.461C584.921 951.298 585.328 951.054 585.653 950.646C585.979 950.321 586.223 949.913 586.386 949.506C586.549 949.099 586.549 948.691 586.386 948.203L569.696 882.136Z" fill="black"/>
<path d="M511.573 872.314L496.52 947.687C496.439 948.179 496.439 948.671 496.52 949.163C496.601 949.655 496.845 950.065 497.171 950.475C497.496 950.885 497.822 951.131 498.31 951.377C498.717 951.623 499.205 951.705 499.693 951.705H523.453C523.941 951.705 524.429 951.623 524.836 951.377C525.243 951.131 525.65 950.885 525.975 950.475C526.301 950.065 526.463 949.655 526.626 949.163C526.789 948.671 526.789 948.179 526.626 947.769L511.573 872.314Z" fill="#8E6AA4"/>
<path opacity="0.3" d="M511.587 888.684L496.52 948.599C496.439 949.008 496.439 949.335 496.52 949.744C496.602 950.152 496.846 950.479 497.172 950.724C497.497 951.051 497.823 951.297 498.312 951.46C498.719 951.624 499.208 951.705 499.696 951.705H523.478C523.967 951.705 524.455 951.624 524.862 951.46C525.27 951.297 525.677 951.051 526.003 950.724C526.328 950.398 526.491 950.071 526.654 949.744C526.736 949.335 526.817 949.008 526.654 948.599L511.587 888.684Z" fill="black"/>
<path d="M586.928 872.314L571.834 947.765C571.753 948.257 571.753 948.75 571.834 949.16C571.915 949.653 572.158 950.063 572.483 950.474C572.808 950.884 573.132 951.131 573.619 951.377C574.106 951.623 574.512 951.705 574.999 951.705H598.776C599.263 951.705 599.749 951.623 600.155 951.377C600.561 951.131 600.967 950.884 601.291 950.474C601.616 950.063 601.778 949.653 601.941 949.16C602.103 948.668 602.103 948.175 601.941 947.765L586.928 872.314Z" fill="#8E6AA4"/>
<path opacity="0.3" d="M586.942 888.684L571.834 948.599C571.753 949.008 571.753 949.335 571.834 949.744C571.915 950.152 572.159 950.479 572.484 950.724C572.809 951.051 573.133 951.297 573.621 951.46C574.027 951.624 574.514 951.705 575.002 951.705H598.801C599.288 951.705 599.775 951.624 600.181 951.46C600.588 951.297 600.994 951.051 601.319 950.724C601.644 950.398 601.806 950.071 601.968 949.744C602.05 949.335 602.131 949.008 601.968 948.599L586.942 888.684Z" fill="black"/>
<path d="M533.315 840.394L512.102 945.481C511.938 946.136 512.02 946.792 512.184 947.447C512.348 948.102 512.676 948.675 513.085 949.249C513.495 949.74 514.068 950.232 514.641 950.477C515.215 950.805 515.952 950.887 516.607 950.887H550.023C550.678 950.887 551.334 950.723 551.989 950.477C552.562 950.15 553.136 949.74 553.545 949.249C553.955 948.757 554.282 948.102 554.446 947.447C554.61 946.792 554.61 946.136 554.528 945.481L533.315 840.394Z" fill="#8E6AA4"/>
<path opacity="0.3" d="M533.315 863.311L512.102 947.351C511.938 947.844 512.02 948.419 512.184 948.994C512.348 949.487 512.676 949.98 513.085 950.391C513.495 950.802 514.068 951.13 514.641 951.377C515.215 951.623 515.952 951.705 516.607 951.705H550.023C550.678 951.705 551.334 951.623 551.989 951.377C552.562 951.13 553.136 950.802 553.545 950.391C553.955 949.98 554.282 949.487 554.446 948.994C554.61 948.502 554.61 947.927 554.528 947.351L533.315 863.311Z" fill="black"/>
<path d="M552.995 852.671L534.177 945.996C534.096 946.567 534.096 947.219 534.177 947.79C534.34 948.36 534.584 948.931 534.992 949.42C535.399 949.909 535.888 950.235 536.377 950.479C536.947 950.724 537.517 950.887 538.087 950.887H567.74C568.311 950.887 568.962 950.724 569.451 950.479C570.021 950.235 570.51 949.827 570.836 949.42C571.243 948.931 571.488 948.442 571.651 947.79C571.814 947.219 571.814 946.567 571.651 945.996L552.995 852.671Z" fill="#8E6AA4"/>
<path opacity="0.3" d="M552.995 873.133L534.177 947.777C534.096 948.268 534.096 948.759 534.177 949.168C534.34 949.659 534.584 950.068 534.992 950.478C535.399 950.887 535.888 951.132 536.377 951.378C536.947 951.624 537.517 951.705 538.087 951.705H567.74C568.311 951.705 568.962 951.624 569.451 951.378C570.021 951.132 570.51 950.887 570.836 950.478C571.243 950.068 571.488 949.659 571.651 949.168C571.814 948.677 571.814 948.186 571.651 947.777L552.995 873.133Z" fill="black"/>
<path d="M621.259 874.77L637.202 947.691C637.284 948.182 637.284 948.674 637.202 949.165C637.12 949.657 636.875 950.067 636.548 950.476C636.221 950.886 635.812 951.132 635.403 951.378C634.994 951.624 634.504 951.705 634.013 951.705H608.587C608.096 951.705 607.605 951.624 607.197 951.378C606.788 951.132 606.379 950.886 606.052 950.476C605.725 950.067 605.562 949.657 605.398 949.165C605.316 948.674 605.316 948.182 605.398 947.691L621.259 874.77Z" fill="#8E6AA4"/>
<path opacity="0.3" d="M621.259 874.77L637.202 947.691C637.284 948.182 637.284 948.674 637.202 949.165C637.12 949.657 636.875 950.067 636.548 950.476C636.221 950.886 635.812 951.132 635.403 951.378C634.994 951.624 634.504 951.705 634.013 951.705H608.587C608.096 951.705 607.605 951.624 607.197 951.378C606.788 951.132 606.379 950.886 606.052 950.476C605.725 950.067 605.562 949.657 605.398 949.165C605.316 948.674 605.316 948.182 605.398 947.691L621.259 874.77Z" fill="black"/>
<path d="M604.887 882.136L619.192 948.096C619.274 948.506 619.274 948.998 619.192 949.408C619.111 949.819 618.867 950.229 618.623 950.557C618.38 950.885 617.973 951.131 617.567 951.377C617.16 951.541 616.754 951.705 616.347 951.705H593.588C593.182 951.705 592.694 951.623 592.288 951.377C591.882 951.213 591.556 950.885 591.231 950.557C590.987 950.229 590.744 949.819 590.662 949.408C590.581 948.998 590.581 948.506 590.662 948.096L604.887 882.136Z" fill="#8E6AA4"/>
<path opacity="0.3" d="M604.887 882.136L619.192 948.096C619.274 948.506 619.274 948.998 619.192 949.408C619.111 949.819 618.867 950.229 618.623 950.557C618.38 950.885 617.973 951.131 617.567 951.377C617.16 951.541 616.754 951.705 616.347 951.705H593.588C593.182 951.705 592.694 951.623 592.288 951.377C591.882 951.213 591.556 950.885 591.231 950.557C590.987 950.229 590.744 949.819 590.662 949.408C590.581 948.998 590.581 948.506 590.662 948.096L604.887 882.136Z" fill="black"/>
<path d="M637.198 864.948L655.211 947.113C655.294 947.687 655.294 948.179 655.211 948.753C655.129 949.327 654.882 949.819 654.471 950.229C654.142 950.639 653.731 951.049 653.237 951.295C652.744 951.541 652.168 951.705 651.674 951.705H622.885C622.31 951.705 621.816 951.541 621.323 951.295C620.829 951.049 620.418 950.721 620.089 950.229C619.76 949.819 619.513 949.327 619.348 948.753C619.266 948.179 619.184 947.687 619.348 947.113L637.198 864.948Z" fill="#8E6AA4"/>
<path opacity="0.3" d="M637.198 864.948L655.211 947.113C655.294 947.687 655.294 948.179 655.211 948.753C655.129 949.327 654.882 949.819 654.471 950.229C654.142 950.639 653.731 951.049 653.237 951.295C652.744 951.541 652.168 951.705 651.674 951.705H622.885C622.31 951.705 621.816 951.541 621.323 951.295C620.829 951.049 620.418 950.721 620.089 950.229C619.76 949.819 619.513 949.327 619.348 948.753C619.266 948.179 619.184 947.687 619.348 947.113L637.198 864.948Z" fill="black"/>
<path d="M743.942 588.307H616.704L591.42 991.81H769.063L743.942 588.307Z" fill="url(#paint1_linear_104_13)"/>
<path opacity="0.1" d="M616.572 588.307H657.729L645.153 991.81H591.42L616.572 588.307Z" fill="white"/>
<path opacity="0.1" d="M743.911 588.307H702.754L715.33 991.81H769.063L743.911 588.307Z" fill="black"/>
<path d="M718.552 556.387H641.93L616.798 588.307H743.685L718.552 556.387Z" fill="url(#paint2_linear_104_13)"/>
<path d="M719.126 533.47H642.175V556.387H719.126V533.47Z" fill="url(#paint3_linear_104_13)"/>
<path d="M645.45 490.091H642.994V531.015H645.45V490.091Z" fill="#AF6BCA"/>
<path d="M717.489 490.091H715.033V531.015H717.489V490.091Z" fill="#AF6BCA"/>
<path opacity="0.2" d="M719.126 533.47H642.175V535.107H719.126V533.47Z" fill="black"/>
<path opacity="0.2" d="M720.142 558.843H638.901V560.834L727.313 567.846L720.142 558.843Z" fill="black"/>
<path opacity="0.2" d="M721.501 489.273H639.719V490.91H721.582V489.273H721.501Z" fill="black"/>
<path opacity="0.2" d="M751.053 693.889H610.249V695.643L750.971 697.981V693.889H751.053Z" fill="black"/>
<path opacity="0.2" d="M759.976 857.582H600.425V858.401H760.058V857.582H759.976Z" fill="black"/>
<path d="M720.764 531.833H640.538V533.47H720.764V531.833Z" fill="#A68FD8" fill-opacity="0.54"/>
<path opacity="0.1" d="M722.065 553.113H640.054C639.316 553.113 638.577 553.45 638.084 553.956C637.592 554.461 637.263 555.22 637.263 555.978C637.263 556.736 637.592 557.41 638.084 558C638.577 558.506 639.316 558.843 640.054 558.843H722.065C722.804 558.843 723.461 558.506 724.036 558C724.528 557.494 724.857 556.736 724.857 555.978C724.857 555.22 724.528 554.461 724.036 553.956C723.461 553.366 722.804 553.113 722.065 553.113Z" fill="#FECE2F"/>
<path d="M722.065 553.113H640.054C639.316 553.113 638.577 553.45 638.084 553.956C637.592 554.461 637.263 555.22 637.263 555.978C637.263 556.736 637.592 557.41 638.084 558C638.577 558.506 639.316 558.843 640.054 558.843H722.065C722.804 558.843 723.461 558.506 724.036 558C724.528 557.494 724.857 556.736 724.857 555.978C724.857 555.22 724.528 554.461 724.036 553.956C723.461 553.366 722.804 553.113 722.065 553.113Z" fill="#FECE2F"/>
<path d="M758.918 851.853H601.564C601.237 851.853 600.829 851.932 600.502 852.011C600.176 852.17 599.849 852.328 599.604 852.566C599.359 852.803 599.114 853.041 599.033 853.358C598.869 853.675 598.788 853.991 598.788 854.308C598.788 854.625 598.869 854.942 599.033 855.259C599.196 855.575 599.359 855.813 599.604 856.051C599.849 856.288 600.176 856.447 600.502 856.605C600.829 856.764 601.237 856.764 601.564 856.764H758.918C759.327 856.764 759.653 856.684 759.98 856.605C760.307 856.447 760.633 856.288 760.878 856.051C761.123 855.813 761.368 855.575 761.45 855.259C761.613 854.942 761.695 854.625 761.695 854.308C761.695 853.991 761.613 853.675 761.45 853.358C761.287 853.041 761.123 852.803 760.878 852.566C760.633 852.328 760.307 852.17 759.98 852.011C759.572 851.932 759.245 851.853 758.918 851.853Z" fill="#FECE2F"/>
<path opacity="0.2" d="M693.749 662.787H666.734V666.061H693.749V662.787Z" fill="black"/>
<path d="M690.474 622.683H670.008V661.151H690.474V622.683Z" fill="#FFCD26"/>
<path d="M689.786 624.142V660.509H671.515V624.142H689.786ZM692.111 621.864H689.786H671.515H669.19V624.142V660.509V662.787H671.515H689.786H692.111V660.509V624.142V621.864Z" fill="#AF6BCA"/>
<path d="M679.013 625.138H673.283V658.695H679.013V625.138Z" fill="#F4BD06"/>
<path d="M686.767 495.821H673.716C671.417 495.821 669.283 496.725 667.641 498.37C666 500.014 665.097 502.152 665.097 504.454V531.833H695.386V504.454C695.386 502.152 694.483 500.014 692.841 498.37C691.2 496.725 689.065 495.821 686.767 495.821Z" fill="#FFCD26"/>
<path opacity="0.5" d="M686.381 499.913V529.378H693.749V504.287C693.749 501.894 691.784 499.913 689.41 499.913H686.381Z" fill="#FFA360"/>
<path d="M674.102 499.913H671.733C669.899 499.913 668.371 501.541 668.371 503.495V530.196H674.025V499.913H674.102Z" fill="#FDD493"/>
<path opacity="0.5" d="M695.386 529.378H665.097V531.015H695.386V529.378Z" fill="#FFA360"/>
<path d="M720.764 486.818L680.241 467.993L639.719 486.818H720.764Z" fill="url(#paint4_linear_104_13)"/>
<path opacity="0.1" d="M708.484 486.818L679.832 467.993L689.245 486.818H708.484Z" fill="black"/>
<path opacity="0.1" d="M666.092 486.818L679.832 467.993L647.087 486.818H666.092Z" fill="white"/>
<path d="M683.107 467.174H676.558V470.448H683.107V467.174Z" fill="#AF6BCA"/>
<g opacity="0.1">
<path d="M679.013 467.174H677.376V470.448H679.013V467.174Z" fill="white"/>
</g>
<g opacity="0.1">
<path d="M683.107 467.174H680.651V470.448H683.107V467.174Z" fill="black"/>
</g>
<path d="M686.381 462.673C686.381 462.757 686.381 462.925 686.381 463.009C686.381 463.598 686.302 464.187 686.064 464.691C685.985 464.943 685.906 465.196 685.747 465.448C684.718 467.466 682.658 468.811 680.202 468.811C677.271 468.811 674.894 466.793 674.26 464.187C674.181 463.934 674.181 463.682 674.181 463.514C674.102 463.346 674.102 463.177 674.102 463.009C674.102 462.925 674.102 462.757 674.102 462.673C674.102 459.225 676.875 456.534 680.281 456.534C683.608 456.534 686.381 459.225 686.381 462.673Z" fill="#AF6BCA"/>
<path opacity="0.1" d="M683.416 457.353C684.057 458.22 684.458 459.323 684.458 460.427C684.458 460.506 684.458 460.663 684.458 460.742C684.458 461.294 684.378 461.845 684.137 462.318C684.057 462.555 683.977 462.791 683.817 463.028C682.775 464.919 680.691 466.18 678.206 466.18C677.004 466.18 675.882 465.865 674.92 465.313C676.042 466.89 677.966 467.993 680.13 467.993C682.534 467.993 684.698 466.732 685.74 464.84C685.82 464.604 685.981 464.367 686.061 464.131C686.301 463.658 686.381 463.106 686.381 462.555C686.381 462.476 686.381 462.318 686.381 462.239C686.381 460.19 685.179 458.378 683.416 457.353Z" fill="black"/>
<path opacity="0.1" d="M680.714 461.637C680.714 461.637 680.635 461.722 680.555 461.722C680.317 461.978 680.079 462.149 679.841 462.319C679.762 462.405 679.603 462.49 679.445 462.575C678.334 463.173 677.065 463.258 676.113 462.746C674.923 462.063 674.606 460.698 675.241 459.503C675.32 459.418 675.32 459.247 675.399 459.162C675.399 459.076 675.479 458.991 675.558 458.991C675.558 458.906 675.637 458.906 675.637 458.82C676.748 457.455 678.81 456.943 680.159 457.711C681.666 458.564 681.904 460.271 680.714 461.637Z" fill="white"/>
<path d="M687.2 462.264H673.283V463.082H687.2V462.264Z" fill="#AF6BCA"/>
<g opacity="0.1">
<path d="M677.376 462.264H674.102V463.082H677.376V462.264Z" fill="white"/>
</g>
<g opacity="0.1">
<path d="M687.2 462.264H681.469V463.082H687.2V462.264Z" fill="black"/>
</g>
<path opacity="0.2" d="M686.381 463.16C686.381 463.706 686.303 464.251 686.066 464.719C682.367 464.018 678.51 463.55 674.417 463.55H674.181C674.102 463.394 674.102 463.238 674.102 463.082H686.381V463.16Z" fill="black"/>
<path d="M643.167 486.818H651.862H679.257H695.252H707.227H717.315H722.401V490.91H717.808H707.801H695.416H679.257H651.534H642.675H638.082V486.818H643.167Z" fill="url(#paint5_linear_104_13)"/>
<path opacity="0.2" d="M719.267 486.818H719.547H720.319H720.811H721.161H721.442H721.582V490.91H721.442H721.161H720.811H720.319H719.547H719.267H719.126V486.818H719.267Z" fill="white"/>
<path opacity="0.8" d="M689.492 486.818H691.866H699.643H704.145H707.502H710.367H711.759V490.91H710.449H707.665H704.145H699.643H691.784H689.328H688.018V486.818H689.492Z" fill="url(#paint6_linear_104_13)"/>
<path opacity="0.5" d="M649.138 486.818H651.275H657.933H661.796H664.755H667.138H668.371V490.91H667.303H664.837H661.878H657.933H651.193H649.056H647.906V486.818H649.138Z" fill="white"/>
<path d="M638.082 486.981L679.832 486.818L721.582 486.981L679.832 487.145L638.082 486.981Z" fill="#CCCCCC"/>
<path opacity="0.1" d="M660.185 535.107H645.449V553.113H660.185V535.107Z" fill="white"/>
<path opacity="0.1" d="M716.67 535.107H699.479V553.113H716.67V535.107Z" fill="black"/>
<path opacity="0.1" d="M702.893 585.033L700.298 558.843H717.331L735.499 584.462L702.893 585.033Z" fill="black"/>
<path opacity="0.1" d="M658.943 585.033L661.004 564.572H642.62L625.802 584.456L658.943 585.033Z" fill="white"/>
<path d="M749.654 694.707H611.647C610.006 694.707 608.611 693.337 608.611 691.538V690.51C608.611 688.797 609.924 687.341 611.647 687.341H749.654C751.295 687.341 752.69 688.712 752.69 690.51V691.538C752.69 693.251 751.295 694.707 749.654 694.707Z" fill="#FECE2F"/>
<path d="M656.092 687.341H628.259V693.889H656.092V687.341Z" fill="#FDD493"/>
<path opacity="0.5" d="M733.043 687.341H680.651V693.889H733.043V687.341Z" fill="#FFA360"/>
<path d="M759.321 856.764H601.158C599.359 856.764 597.969 855.377 597.969 853.759V853.22C597.969 851.525 599.441 850.216 601.158 850.216H759.321C761.12 850.216 762.51 851.602 762.51 853.22V853.759C762.592 855.377 761.12 856.764 759.321 856.764Z" fill="#FECE2F"/>
<path d="M652.817 850.216H620.891V856.764H652.817V850.216Z" fill="#FDD493"/>
<path opacity="0.5" d="M741.229 850.216H680.651V856.764H741.229V850.216Z" fill="#FFA360"/>
<path d="M770.7 931.244H592.239V944.339H770.7V931.244Z" fill="#AF6BCA"/>
<path opacity="0.2" d="M638.901 931.244H616.798V944.339H638.901V931.244Z" fill="white"/>
<path opacity="0.2" d="M662.641 931.244H605.337V944.339H662.641V931.244Z" fill="white"/>
<path opacity="0.1" d="M747.778 931.244H716.67V944.339H747.778V931.244Z" fill="black"/>
<path d="M770.7 930.425H592.239L597.064 923.877H765.874L770.7 930.425Z" fill="#AF6BCA"/>
<path opacity="0.4" d="M639.064 930.425H616.798L620.318 923.877H641.356L639.064 930.425Z" fill="white"/>
<path opacity="0.2" d="M662.401 930.425H605.337L609.407 923.877H663.46L662.401 930.425Z" fill="white"/>
<path opacity="0.7" d="M760.877 930.425H681.469V923.877H756.611L760.877 930.425Z" fill="#DFCEE1"/>
<path d="M783.798 950.887H578.322V963.982H783.798V950.887Z" fill="#AF6BCA"/>
<path opacity="0.2" d="M637.263 950.887H613.523V963.982H637.263V950.887Z" fill="white"/>
<path opacity="0.2" d="M661.822 950.887H601.244V963.982H661.822V950.887Z" fill="white"/>
<path opacity="0.1" d="M751.871 950.887H719.126V963.982H751.871V950.887Z" fill="black"/>
<path d="M783.798 950.887H578.322L591.819 944.339H770.301L783.798 950.887Z" fill="#AF6BCA"/>
<path opacity="0.4" d="M637.323 950.887H613.523L617.242 944.339H639.719L637.323 950.887Z" fill="white"/>
<path opacity="0.2" d="M661.582 950.887H601.244L605.559 944.339H662.641L661.582 950.887Z" fill="white"/>
<path opacity="0.7" d="M764.969 950.887H681.469V944.339H760.403L764.969 950.887Z" fill="#DFCEE1"/>
<path d="M558.837 922.487C473.905 925.745 404.535 966.883 387.581 991.81H736.317C736.481 956.782 655.153 918.821 558.837 922.487Z" fill="#FECE2F"/>
<path d="M726.494 923.877L715.067 988.945C714.985 989.273 715.067 989.682 715.148 990.009C715.23 990.337 715.475 990.664 715.72 990.91C715.965 991.155 716.291 991.401 716.699 991.564C717.026 991.728 717.434 991.81 717.842 991.81H735.146C735.554 991.81 735.962 991.728 736.288 991.564C736.615 991.401 736.941 991.155 737.268 990.91C737.513 990.664 737.758 990.337 737.839 990.009C737.921 989.682 738.002 989.273 737.921 988.945L726.494 923.877Z" fill="#7D6989"/>
<path opacity="0.3" d="M726.494 941.065L715.067 989.614C714.985 989.858 715.067 990.184 715.148 990.428C715.23 990.671 715.475 990.915 715.72 991.159C715.965 991.322 716.291 991.566 716.699 991.647C717.026 991.729 717.434 991.81 717.842 991.81H735.146C735.554 991.81 735.962 991.729 736.288 991.647C736.615 991.566 736.941 991.403 737.268 991.159C737.513 990.997 737.758 990.753 737.839 990.428C737.921 990.184 738.002 989.94 737.921 989.614L726.494 941.065Z" fill="black"/>
<path d="M742.457 896.868L726.547 987.793C726.466 988.285 726.466 988.776 726.629 989.268C726.792 989.76 727.037 990.17 727.445 990.58C727.771 990.99 728.261 991.236 728.75 991.482C729.24 991.728 729.811 991.81 730.382 991.81H754.532C755.103 991.81 755.674 991.728 756.164 991.482C756.653 991.236 757.143 990.99 757.469 990.58C757.795 990.17 758.122 989.76 758.285 989.268C758.448 988.776 758.448 988.285 758.367 987.793L742.457 896.868Z" fill="#7D6989"/>
<path opacity="0.3" d="M742.457 920.604L726.547 988.782C726.466 989.191 726.466 989.518 726.629 989.928C726.792 990.255 727.037 990.582 727.445 990.91C727.771 991.155 728.261 991.401 728.75 991.565C729.24 991.728 729.811 991.81 730.382 991.81H754.532C755.103 991.81 755.674 991.728 756.164 991.565C756.653 991.401 757.143 991.155 757.469 990.91C757.795 990.664 758.122 990.255 758.285 989.928C758.448 989.6 758.448 989.191 758.367 988.782L742.457 920.604Z" fill="black"/>
<path d="M757.152 907.508L742.92 988.301C742.838 988.709 742.838 989.198 743.002 989.606C743.166 990.015 743.411 990.423 743.738 990.749C744.065 991.075 744.474 991.32 744.883 991.565C745.374 991.728 745.865 991.81 746.355 991.81H768.03C768.52 991.81 769.011 991.728 769.502 991.483C769.993 991.32 770.32 990.994 770.647 990.667C770.974 990.341 771.219 989.933 771.383 989.525C771.547 989.117 771.547 988.627 771.465 988.219L757.152 907.508Z" fill="#7D6989"/>
<path opacity="0.3" d="M757.152 927.97L742.92 989.099C742.838 989.427 742.838 989.756 743.002 990.085C743.166 990.413 743.411 990.742 743.738 990.988C744.065 991.235 744.474 991.481 744.883 991.563C745.374 991.728 745.865 991.81 746.355 991.81H768.03C768.52 991.81 769.011 991.728 769.502 991.563C769.993 991.399 770.32 991.235 770.647 990.988C770.974 990.742 771.219 990.413 771.383 990.085C771.547 989.756 771.547 989.427 771.465 989.099L757.152 927.97Z" fill="black"/>
<path d="M818.549 907.508L804.317 988.301C804.236 988.709 804.236 989.198 804.399 989.606C804.563 990.015 804.808 990.423 805.135 990.749C805.462 991.075 805.871 991.32 806.28 991.565C806.771 991.728 807.262 991.81 807.753 991.81H829.427C829.918 991.81 830.408 991.728 830.899 991.565C831.39 991.402 831.717 991.075 832.044 990.749C832.371 990.423 832.617 990.015 832.78 989.606C832.944 989.198 832.944 988.709 832.862 988.301L818.549 907.508Z" fill="#7D6989"/>
<path opacity="0.3" d="M818.549 927.97L804.317 989.099C804.236 989.427 804.236 989.756 804.399 990.085C804.563 990.413 804.808 990.742 805.135 990.988C805.462 991.235 805.871 991.481 806.28 991.563C806.771 991.728 807.262 991.81 807.753 991.81H829.427C829.918 991.81 830.408 991.728 830.899 991.563C831.39 991.399 831.717 991.235 832.044 990.988C832.371 990.742 832.617 990.413 832.78 990.085C832.944 989.756 832.944 989.427 832.862 989.099L818.549 927.97Z" fill="black"/>
<path d="M769.472 915.693L756.816 988.554C756.736 988.961 756.816 989.368 756.897 989.775C757.058 990.182 757.219 990.508 757.542 990.833C757.864 991.159 758.187 991.403 758.59 991.566C758.993 991.729 759.396 991.81 759.879 991.81H779.064C779.548 991.81 779.951 991.729 780.354 991.566C780.757 991.403 781.079 991.159 781.402 990.833C781.724 990.508 781.885 990.182 782.046 989.775C782.127 989.368 782.208 988.961 782.127 988.554L769.472 915.693Z" fill="#7D6989"/>
<path opacity="0.3" d="M769.472 934.518L756.816 989.362C756.736 989.688 756.816 989.933 756.897 990.259C757.058 990.586 757.219 990.831 757.542 991.076C757.864 991.32 758.187 991.484 758.59 991.647C758.993 991.81 759.396 991.81 759.879 991.81H779.064C779.548 991.81 779.951 991.728 780.354 991.647C780.757 991.484 781.079 991.32 781.402 991.076C781.724 990.831 781.885 990.586 782.046 990.259C782.127 989.933 782.208 989.688 782.127 989.362L769.472 934.518Z" fill="black"/>
<path d="M833.911 915.693L820.691 988.554C820.608 988.961 820.608 989.368 820.774 989.775C820.857 990.182 821.107 990.508 821.439 990.833C821.772 991.159 822.104 991.403 822.52 991.566C822.936 991.729 823.351 991.81 823.85 991.81H843.639C844.137 991.81 844.553 991.729 844.969 991.566C845.385 991.403 845.717 991.159 846.05 990.833C846.382 990.508 846.548 990.182 846.715 989.775C846.798 989.368 846.881 988.961 846.798 988.554L833.911 915.693Z" fill="#7D6989"/>
<path opacity="0.3" d="M833.911 934.518L820.691 989.362C820.608 989.688 820.608 989.933 820.774 990.259C820.857 990.586 821.107 990.831 821.439 991.076C821.772 991.32 822.104 991.484 822.52 991.647C822.936 991.81 823.351 991.81 823.85 991.81H843.639C844.137 991.81 844.553 991.728 844.969 991.647C845.385 991.484 845.717 991.32 846.05 991.076C846.382 990.831 846.548 990.586 846.715 990.259C846.798 989.933 846.881 989.688 846.798 989.362L833.911 934.518Z" fill="black"/>
<path d="M787.832 885.41L769.935 987.4C769.853 987.972 769.853 988.544 770.017 989.034C770.18 989.605 770.507 990.095 770.915 990.504C771.324 990.912 771.814 991.238 772.387 991.483C772.959 991.728 773.612 991.81 774.184 991.81H801.562C802.216 991.81 802.788 991.728 803.36 991.483C803.932 991.238 804.422 990.912 804.831 990.504C805.24 990.095 805.567 989.605 805.73 989.034C805.893 988.462 805.975 987.89 805.812 987.4L787.832 885.41Z" fill="#7D6989"/>
<path opacity="0.3" d="M787.832 911.601L769.935 988.451C769.853 988.861 769.853 989.27 770.017 989.68C770.18 990.09 770.507 990.499 770.915 990.827C771.324 991.155 771.814 991.4 772.387 991.564C772.959 991.728 773.612 991.81 774.184 991.81H801.562C802.216 991.81 802.788 991.728 803.36 991.564C803.932 991.4 804.422 991.155 804.831 990.827C805.24 990.499 805.567 990.09 805.73 989.68C805.893 989.27 805.975 988.861 805.812 988.451L787.832 911.601Z" fill="black"/>
<path d="M803.854 896.868L787.944 987.81C787.863 988.3 787.863 988.79 788.026 989.279C788.188 989.769 788.431 990.177 788.837 990.585C789.162 990.994 789.649 991.239 790.136 991.483C790.623 991.728 791.191 991.81 791.76 991.81H815.949C816.517 991.81 817.086 991.728 817.573 991.483C818.06 991.239 818.547 990.994 818.871 990.585C819.196 990.177 819.521 989.769 819.683 989.279C819.846 988.79 819.845 988.3 819.764 987.81L803.854 896.868Z" fill="#7D6989"/>
<path opacity="0.3" d="M803.854 920.604L787.944 988.796C787.863 989.203 787.863 989.529 788.026 989.936C788.188 990.262 788.431 990.67 788.837 990.914C789.162 991.158 789.649 991.403 790.136 991.566C790.623 991.729 791.191 991.81 791.76 991.81H815.949C816.517 991.81 817.086 991.729 817.573 991.566C818.06 991.403 818.547 991.158 818.871 990.914C819.196 990.67 819.521 990.262 819.683 989.936C819.846 989.61 819.845 989.203 819.764 988.796L803.854 920.604Z" fill="black"/>
<path d="M861.967 917.33L875.431 988.522C875.512 988.933 875.512 989.344 875.349 989.755C875.267 990.166 875.023 990.495 874.696 990.824C874.37 991.152 874.043 991.399 873.635 991.563C873.227 991.728 872.738 991.81 872.33 991.81H851.604C851.114 991.81 850.706 991.728 850.298 991.563C849.89 991.399 849.482 991.152 849.238 990.824C848.911 990.495 848.748 990.166 848.585 989.755C848.503 989.344 848.422 988.933 848.503 988.522L861.967 917.33Z" fill="#7D6989"/>
<path opacity="0.3" d="M861.967 936.155L875.431 989.358C875.512 989.685 875.512 989.93 875.349 990.257C875.267 990.584 875.023 990.829 874.696 991.075C874.37 991.32 874.043 991.483 873.635 991.647C873.227 991.81 872.738 991.81 872.33 991.81H851.604C851.114 991.81 850.706 991.728 850.298 991.647C849.89 991.483 849.482 991.32 849.238 991.075C848.911 990.829 848.748 990.584 848.585 990.257C848.503 989.93 848.422 989.685 848.503 989.358L861.967 936.155Z" fill="black"/>
<path d="M847.682 924.696L859.877 988.86C859.959 989.188 859.959 989.598 859.795 989.925C859.713 990.253 859.468 990.581 859.222 990.909C858.976 991.155 858.649 991.4 858.24 991.564C857.831 991.728 857.421 991.81 857.012 991.81H838.27C837.861 991.81 837.452 991.728 837.042 991.564C836.633 991.4 836.306 991.155 836.06 990.909C835.815 990.663 835.569 990.253 835.487 989.925C835.406 989.598 835.324 989.188 835.405 988.86L847.682 924.696Z" fill="#7D6989"/>
<path opacity="0.3" d="M847.682 941.065L859.877 989.586C859.959 989.833 859.959 990.162 859.795 990.41C859.713 990.657 859.468 990.904 859.222 991.151C858.976 991.398 858.649 991.563 858.24 991.645C857.831 991.728 857.421 991.81 857.012 991.81H838.27C837.861 991.81 837.452 991.728 837.042 991.645C836.633 991.563 836.306 991.316 836.06 991.151C835.815 990.904 835.569 990.657 835.487 990.41C835.406 990.162 835.324 989.833 835.405 989.586L847.682 941.065Z" fill="black"/>
<path d="M875.196 908.327L890.167 988.049C890.248 988.539 890.247 988.948 890.086 989.439C889.924 989.848 889.681 990.256 889.357 990.665C889.034 990.992 888.629 991.319 888.144 991.483C887.658 991.646 887.173 991.81 886.687 991.81H863.463C862.978 991.81 862.411 991.728 862.007 991.483C861.521 991.319 861.116 990.992 860.793 990.665C860.469 990.338 860.226 989.929 860.064 989.439C859.903 989.03 859.903 988.539 859.984 988.049L875.196 908.327Z" fill="#7D6989"/>
<path opacity="0.3" d="M875.196 928.788L890.167 988.938C890.248 989.266 890.247 989.594 890.086 990.005C889.924 990.333 889.681 990.661 889.357 990.907C889.034 991.154 888.629 991.4 888.144 991.564C887.658 991.728 887.173 991.81 886.687 991.81H863.463C862.978 991.81 862.411 991.728 862.007 991.564C861.521 991.4 861.116 991.236 860.793 990.907C860.469 990.661 860.226 990.333 860.064 990.005C859.903 989.677 859.903 989.348 859.984 988.938L875.196 928.788Z" fill="black"/>
<path d="M680.651 623.501V660.332" stroke="#AF6BCA" stroke-miterlimit="10"/>
<path d="M689.656 634.96H671.646" stroke="#AF6BCA" stroke-miterlimit="10"/>
<path opacity="0.2" d="M693.749 795.379H666.734V798.653H693.749V795.379Z" fill="black"/>
<path d="M690.474 755.274H670.008V793.742H690.474V755.274Z" fill="#FFCD26"/>
<path d="M689.786 756.734V793.101H671.515V756.734H689.786ZM692.111 754.456H689.786H671.515H669.19V756.734V793.101V795.379H671.515H689.786H692.111V793.101V756.734V754.456Z" fill="#AF6BCA"/>
<path d="M679.013 757.729H673.283V791.287H679.013V757.729Z" fill="#F4BD06"/>
<path d="M680.651 756.911V793.742" stroke="#AF6BCA" stroke-miterlimit="10"/>
<path d="M689.656 767.551H671.646" stroke="#AF6BCA" stroke-miterlimit="10"/>
<path d="M638.082 520.375V551.476H640.627V522.885H642.68V551.476H645.307V522.885H648.919V551.476H651.546V522.885H656.719V551.476H659.346V522.885H666.406V551.476H669.034V522.885H679.542V551.476H682.088V522.885H692.268V551.476H694.813V522.885H702.202V551.476H704.747V522.885H709.755V551.476H712.3V522.885H715.995V551.476H718.54V522.885H720.757V551.476H723.219V520.375H638.082Z" fill="#AF6BCA"/>
<path d="M721.668 558.842H638.814C637.507 558.842 636.445 557.729 636.445 556.359V553.96C636.445 552.59 637.507 551.476 638.814 551.476H721.668C722.976 551.476 724.038 552.59 724.038 553.96V556.359C724.038 557.729 722.976 558.842 721.668 558.842Z" fill="#FECE2F"/>
<path d="M665.915 552.295H648.724V558.843H665.915V552.295Z" fill="#FDD493"/>
<path opacity="0.5" d="M712.577 552.295H680.651V558.843H712.577V552.295Z" fill="#FFA360"/>
<mask id="mask1_104_13" style="mask-type:luminance" maskUnits="userSpaceOnUse" x="638" y="520" width="86" height="32">
<path d="M638.082 520.375V551.476H640.627V522.885H642.68V551.476H645.307V522.885H648.919V551.476H651.546V522.885H656.719V551.476H659.346V522.885H666.406V551.476H669.034V522.885H679.542V551.476H682.088V522.885H692.268V551.476H694.813V522.885H702.202V551.476H704.747V522.885H709.755V551.476H712.3V522.885H715.995V551.476H718.54V522.885H720.757V551.476H723.219V520.375H638.082Z" fill="white"/>
</mask>
<g mask="url(#mask1_104_13)">
<path opacity="0.1" d="M639.719 521.193V552.295H642.264V523.704H644.317V552.295H646.944V523.704H650.556V552.295H653.184V523.704H658.356V552.295H660.983V523.704H668.044V552.295H670.671V523.704H681.098V552.295H683.725V523.704H693.905V552.295H696.45V523.704H703.757V552.295H706.384V523.704H711.392V552.295H713.937V523.704H717.632V552.295H720.177V523.704H722.312V552.295H724.857V521.193H639.719Z" fill="black"/>
</g>
<path opacity="0.3" d="M731.829 516.604L1299.43 626.897V385.711L731.829 496.005C729.437 496.467 727.281 497.748 725.731 499.627C724.181 501.507 723.333 503.868 723.333 506.304V506.304C723.333 508.741 724.181 511.102 725.731 512.981C727.281 514.861 729.437 516.141 731.829 516.604V516.604Z" fill="#FECE2F"/>
</g>
</g>
</g>
<defs>
<linearGradient id="paint0_linear_104_13" x1="658.514" y1="956.995" x2="921.265" y2="956.995" gradientUnits="userSpaceOnUse">
<stop stop-color="#F2AB4D"/>
<stop offset="1" stop-color="#E8982E"/>
</linearGradient>
<linearGradient id="paint1_linear_104_13" x1="591.46" y1="790.084" x2="769.135" y2="790.084" gradientUnits="userSpaceOnUse">
<stop stop-color="#C276CC"/>
<stop offset="0.335" stop-color="#BE73CC"/>
<stop offset="0.6956" stop-color="#B16CCA"/>
<stop offset="0.9486" stop-color="#A364C9"/>
</linearGradient>
<linearGradient id="paint2_linear_104_13" x1="616.765" y1="572.373" x2="743.665" y2="572.373" gradientUnits="userSpaceOnUse">
<stop stop-color="#C276CC"/>
<stop offset="0.335" stop-color="#BE73CC"/>
<stop offset="0.6956" stop-color="#B16CCA"/>
<stop offset="0.9486" stop-color="#A364C9"/>
</linearGradient>
<linearGradient id="paint3_linear_104_13" x1="642.199" y1="544.948" x2="719.114" y2="544.948" gradientUnits="userSpaceOnUse">
<stop stop-color="#C276CC"/>
<stop offset="0.335" stop-color="#BE73CC"/>
<stop offset="0.6956" stop-color="#B16CCA"/>
<stop offset="0.9486" stop-color="#A364C9"/>
</linearGradient>
<linearGradient id="paint4_linear_104_13" x1="639.736" y1="477.416" x2="720.754" y2="477.416" gradientUnits="userSpaceOnUse">
<stop stop-color="#C276CC"/>
<stop offset="0.335" stop-color="#BE73CC"/>
<stop offset="0.6956" stop-color="#B16CCA"/>
<stop offset="0.9486" stop-color="#A364C9"/>
</linearGradient>
<linearGradient id="paint5_linear_104_13" x1="722.403" y1="488.874" x2="638.099" y2="488.874" gradientUnits="userSpaceOnUse">
<stop stop-color="#A9AB9E"/>
<stop offset="1" stop-color="#DCDFDB"/>
</linearGradient>
<linearGradient id="paint6_linear_104_13" x1="640.184" y1="488.874" x2="688.952" y2="488.874" gradientUnits="userSpaceOnUse">
<stop stop-color="#A9AB9E"/>
<stop offset="1" stop-color="#DCDFDB"/>
</linearGradient>
<clipPath id="clip0_104_13">
<rect width="1080" height="1080" fill="white"/>
</clipPath>
<clipPath id="clip1_104_13">
<rect width="1205.93" height="666.378" fill="white" transform="translate(77.0166 349.078)"/>
</clipPath>
</defs>
</svg>
