<svg width="91" height="95" fill="none" xmlns="http://www.w3.org/2000/svg"><path d="M.729 95h20.662V47.478H.729V95zm10.32-43.7a5.467 5.467 0 110 10.936 5.467 5.467 0 010-10.935zm78.253-2.07s6.765-16.347-15.465-12.281c0 0-13.73 2.876-15.311-1.321 0 0-1.087-3.186 3.964-9.248 0 0 11.193-12.436-1.476-24.56 0 0-6.451-5.439-7.463 2.488-1.01 7.928.155 8.394-4.197 14.534 0 0-12.248 11.813-14.79 20.907 0 0-3.385 10.318-9.042 10.486v35.908c1.885-.035 7.967-.271 14.406 1.972 0 0 11.773 2.8 19.442 2.8 0 0 15.548.362 20.29-3.317 0 0 4.159-3.083 3.305-7.124 0 0-.775-2.661 1.265-4.198 0 0 5.943-3.757 3.041-9.714 0 0-1.523-2.72.915-5.05 0 0 3.581-2.76 1.112-6.141.001-.002-1.645-2.895.004-6.142z" fill="#FECE2F"/></svg>