<svg width="24" height="24" fill="none" xmlns="http://www.w3.org/2000/svg"><g clip-path="url(#clip0)" fill="#27AE60"><path d="M17.972 3.054L5.606 8H2.25C1.01 8 0 9.01 0 10.25V13c0 1.178.925 2 2.25 2h.85l.908 6.356A.75.75 0 004.75 22h3a.753.753 0 00.746-.834l-.59-5.246 10.065 4.026a.756.756 0 00.7-.075.75.75 0 00.329-.62V3.75a.75.75 0 00-1.028-.697zm3.248 6.281l2.5-2a.751.751 0 00-.939-1.172l-2.5 2a.751.751 0 00.938 1.172zm0 5.328a.751.751 0 00-.938 1.172l2.5 2a.753.753 0 001.054-.117.751.751 0 00-.117-1.055l-2.5-2zm2.03-3.413h-2.5a.75.75 0 000 1.5h2.5a.75.75 0 000-1.5z"/></g><defs><clipPath id="clip0"><path fill="#fff" d="M0 0h24v24H0z"/></clipPath></defs></svg>