<svg width="24" height="24" fill="none" xmlns="http://www.w3.org/2000/svg"><g clip-path="url(#clip0)" fill="#4994EC"><path d="M2.525 6.8a29.443 29.443 0 011.862 3.342c.037.082.094.276.16.513a5.355 5.355 0 011.655-1.548c.937-.55 2.013-.777 3.176-.722-.28-.446-.536-.905-.659-1.262-.315-.915-1.458-4.696-2.127-6.31C5.924-.802 3.38.347 1.9 1.188.421 2.028.338 3.065.49 3.35c.15.286 1.113 2.054 2.036 3.45z"/><path d="M8.196 12.002c1.967-.81 2.388.173 2.388.173.623-.578.187-1.261.187-1.261s.158-.293-.097-.594a16.982 16.982 0 01-1.098-1.546c-1.163-.055-2.24.172-3.176.722a5.348 5.348 0 00-1.656 1.548c.16.587.366 1.446.42 1.596.074.21.27.495.45.533.18.037.285.21.285.21.233.473.961.503.961.503s-.631-1.073 1.336-1.884z"/><path d="M22.874 16.172c-.603-.471-1.41-.698-2.052-1.115-1.662-1.078.49-2.071 1.203-2.714 1.21-1.09 1.528-2.347 1.027-3.873-.157-.478-.496-.981-.34-.504.857 2.61-1.865 3.857-3.247 5.317-.51.537-.439 1.12.09 1.656 1.023 1.038 4.102 1.914 2.193 3.527-1.337 1.13-3.413 1.232-4.895 2.186-.2.13-.224.476-.022.617 1.456 1.019 3.471.774 4.906 1.698-2.475.745-5.07.259-7.615.026.01-.072.001-.133.001-.133-.323-1.983-.356-2.413-.206-3.404.15-.99 0-1.081 0-1.081-1.532-2.102-3.392-6.073-3.392-6.073-.248-.412-1.232-.588-2.448-.045-1.261.563-1.171 1.336-1.171 1.336l2.14 6.309c.075.203.42.3.42.3 2.005.578 3.64 2.604 3.857 2.92.218.315.375.195.375.195L11.36 18.08c-.178-.04-.36-.196-.467-.426-.155-.333-.094-.69.137-.798.231-.107.545.076.7.409.117.251.11.515.001.677l2.23 5.036-.05-.005c-.497-.043.025.592 1.422.768 3.115.39 4.333.367 7.334-.27.308-.064.314-.457.111-.664C21.45 21.451 19.503 21.74 17.91 21c2.028-.854 7.59-2.774 4.965-4.827z"/></g><defs><clipPath id="clip0"><path fill="#fff" d="M0 0h24v24H0z"/></clipPath></defs></svg>