<svg width="86" height="83" viewBox="0 0 86 83" fill="none" xmlns="http://www.w3.org/2000/svg">
<path d="M0 17.4737L86 0L81.7915 83L2.01277 78.0075L0 17.4737Z" fill="white"/>
<path d="M48.8327 62.5C48.8327 63.0523 49.2804 63.5 49.8327 63.5C50.385 63.5 50.8327 63.0523 50.8327 62.5H48.8327ZM16.166 62.5C16.166 63.0523 16.6137 63.5 17.166 63.5C17.7183 63.5 18.166 63.0523 18.166 62.5H16.166ZM52.8743 47.8334C52.8743 47.2811 52.4266 46.8334 51.8743 46.8334C51.3221 46.8334 50.8743 47.2811 50.8743 47.8334H52.8743ZM50.8743 47.8517C50.8743 48.404 51.3221 48.8517 51.8743 48.8517C52.4266 48.8517 52.8743 48.404 52.8743 47.8517H50.8743ZM50.8743 44.1667C50.8743 44.719 51.3221 45.1667 51.8743 45.1667C52.4266 45.1667 52.8743 44.719 52.8743 44.1667H50.8743ZM46.8281 37.5872C46.6791 38.119 46.9893 38.671 47.5211 38.82C48.0529 38.9691 48.6048 38.6588 48.7539 38.127L46.8281 37.5872ZM25.3327 52.5H41.666V50.5H25.3327V52.5ZM48.8327 58.8333V62.5H50.8327V58.8333H48.8327ZM18.166 62.5V58.8333H16.166V62.5H18.166ZM41.666 52.5C45.728 52.5 48.8327 55.434 48.8327 58.8333H50.8327C50.8327 54.1324 46.6247 50.5 41.666 50.5V52.5ZM25.3327 50.5C20.374 50.5 16.166 54.1324 16.166 58.8333H18.166C18.166 55.434 21.2707 52.5 25.3327 52.5V50.5ZM40.666 36.8333C40.666 40.2326 37.5613 43.1667 33.4993 43.1667V45.1667C38.458 45.1667 42.666 41.5342 42.666 36.8333H40.666ZM33.4993 43.1667C29.4374 43.1667 26.3327 40.2326 26.3327 36.8333H24.3327C24.3327 41.5342 28.5407 45.1667 33.4993 45.1667V43.1667ZM26.3327 36.8333C26.3327 33.434 29.4374 30.5 33.4993 30.5V28.5C28.5407 28.5 24.3327 32.1324 24.3327 36.8333H26.3327ZM33.4993 30.5C37.5613 30.5 40.666 33.434 40.666 36.8333H42.666C42.666 32.1324 38.458 28.5 33.4993 28.5V30.5ZM50.8743 47.8334V47.8517H52.8743V47.8334H50.8743ZM54.9577 38.8095C54.9577 39.5643 54.4696 39.9736 53.3675 40.6966C52.4598 41.292 50.8743 42.2289 50.8743 44.1667H52.8743C52.8743 43.4854 53.3305 43.1127 54.4645 42.3689C55.4041 41.7525 56.9577 40.7929 56.9577 38.8095H54.9577ZM51.8743 36C53.6739 36 54.9577 37.3165 54.9577 38.8095H56.9577C56.9577 36.0946 54.6573 34 51.8743 34V36ZM48.7539 38.127C49.0782 36.97 50.3305 36 51.8743 36V34C49.552 34 47.4249 35.4581 46.8281 37.5872L48.7539 38.127Z" fill="#FECE2F"/>
</svg>
