<svg width="64" height="64" fill="none" xmlns="http://www.w3.org/2000/svg"><path d="M22.11 20.34c-3.981 0-7.22 3.238-7.22 7.218 0 3.982 3.239 7.22 7.22 7.22 3.98 0 7.22-3.238 7.22-7.22 0-3.98-3.24-7.218-7.22-7.218z" fill="#000"/><path d="M61.703 4.4H2.296A2.296 2.296 0 000 6.696v36.8a2.296 2.296 0 002.296 2.295h1.09l10.259-10.26a.702.702 0 00.049-.944 10.922 10.922 0 01-2.547-7.407c.196-5.795 4.95-10.475 10.747-10.586 6.229-.12 11.319 4.982 11.18 11.213-.128 5.802-4.826 10.54-10.626 10.716a10.911 10.911 0 01-4.87-.975.701.701 0 00-.788.141l-8.103 8.102h53.016A2.298 2.298 0 0064 43.495V6.698A2.3 2.3 0 0061.703 4.4zM39.777 36.95a1.874 1.874 0 11-3.749 0v-7.235a1.875 1.875 0 013.75 0v7.235zm5.874 0a1.874 1.874 0 11-3.75 0V17.217a1.875 1.875 0 013.75 0v19.732zm5.971 0a1.875 1.875 0 11-3.749 0V22.216a1.875 1.875 0 013.75 0v14.733zm5.975 0a1.875 1.875 0 11-3.749 0v-9.734a1.875 1.875 0 113.75 0v9.734zM47.01 55.999l-.013-.006a37.865 37.865 0 00-9.026-2.609v-3.558a.701.701 0 00-.702-.701H26.731a.701.701 0 00-.701.701v3.563a37.858 37.858 0 00-8.978 2.595c-.929.398-1.418 1.46-1.06 2.405a1.875 1.875 0 002.495 1.06 34.082 34.082 0 0113.515-2.783h.04c4.633 0 9.219.943 13.476 2.773l.024.01a1.88 1.88 0 002.593-1.422c.15-.85-.332-1.688-1.126-2.028zM3.387 45.791l-2.814 2.82a1.874 1.874 0 102.65 2.65l5.465-5.47H3.387z" fill="#000"/></svg>