<svg width="86" height="83" viewBox="0 0 86 83" fill="none" xmlns="http://www.w3.org/2000/svg">
<path d="M0 17.4737L86 0L81.7915 83L2.01277 78.0075L0 17.4737Z" fill="white"/>
<path d="M42.9258 23C38.315 23 34.4512 25.1991 32.7475 28.1359C32.0166 28.0488 31.277 28.0039 30.5391 28.0039C20.3166 28.0039 12 36.2836 12 46.4609C12 51.3911 13.9345 56.0406 17.4471 59.5529C20.9594 63.0655 25.6089 65 30.5391 65C40.7164 65 48.9961 56.6834 48.9961 46.4609C48.9961 44.0256 48.5337 41.6788 47.6227 39.4642C51.1116 38.1633 54 35.3015 54 31.6133C54 26.4251 48.5183 23 42.9258 23ZM46.4887 47.6914C46.2843 50.3923 45.413 52.9084 44.0406 55.0742H39.285C39.9047 52.8052 40.2732 50.2981 40.3613 47.6914H46.4887ZM36.7263 55.0742H31.7695V47.6751H37.8998C37.8043 50.3199 37.4012 52.8536 36.7263 55.0742ZM14.5077 47.6914H20.7168C20.8049 50.2985 21.1734 52.8052 21.7931 55.0742H16.9683C15.5889 52.9084 14.7128 50.3923 14.5077 47.6914ZM29.3086 30.7132V35.3867H25.2839C25.3698 35.1977 25.4583 35.0121 25.5493 34.8301C26.6173 32.6938 27.9416 31.2602 29.3086 30.7132ZM29.3086 37.8477V45.2305H23.1784C23.2745 42.5808 23.6802 40.0631 24.3592 37.8477H29.3086ZM20.7168 45.2305H14.508C14.7157 42.5276 15.6014 40.0106 16.9959 37.8477H21.7986C21.1756 40.1128 20.8055 42.6199 20.7168 45.2305ZM23.1784 47.6914H29.3086V55.0742H24.3518C23.677 52.8536 23.2738 50.3363 23.1784 47.6914ZM29.3086 57.5352V62.2875C27.9439 61.7354 26.6205 60.2896 25.5505 58.1357C25.4531 57.9395 25.3586 57.7393 25.2666 57.5352H29.3086ZM31.7695 62.2875V57.5188H35.8115C35.7195 57.7229 35.625 57.9232 35.5276 58.119C34.4577 60.2729 33.1343 61.7354 31.7695 62.2875ZM36.6914 45.2305H31.7695V37.8477H35.1254C35.6074 38.2094 36.1313 38.5388 36.6914 38.8298V45.2305ZM31.7695 35.3867V30.7084C31.7923 30.7173 31.8147 30.7263 31.8375 30.7359C31.7929 31.0522 31.7695 31.3723 31.7695 31.6953C31.7695 32.9822 32.1377 34.2418 32.8411 35.3867H31.7695ZM24.6319 31.5835C24.1743 32.2199 23.7449 32.9364 23.3482 33.7298C23.0845 34.2569 22.8393 34.8103 22.6128 35.3867H18.9483C20.5345 33.7442 22.4686 32.4365 24.6319 31.5835ZM18.8935 57.5352H22.6003C22.8297 58.1248 23.0787 58.691 23.3466 59.2303C23.7497 60.0422 24.1868 60.7744 24.6524 61.4233C22.4558 60.5559 20.4947 59.2184 18.8935 57.5352ZM36.4379 61.406C36.899 60.7613 37.332 60.0352 37.7315 59.2303C37.9994 58.6913 38.2484 58.1084 38.4781 57.5188H42.1253C40.5424 59.1908 38.606 60.5383 36.4379 61.406ZM46.4877 45.2305H40.361C40.3402 44.6191 40.304 44.0109 40.2521 43.4098L43.3625 40.2993C43.9935 40.2766 44.6154 40.2105 45.2239 40.1064C45.9324 41.7361 46.3544 43.4527 46.4877 45.2305ZM42.3339 37.8477L39.1523 41.0293V37.2488C36.5898 36.1301 34.2305 34.5305 34.2305 31.6953C34.2305 28.316 38.2125 25.4609 42.9258 25.4609C46.9101 25.4609 51.5391 27.754 51.5391 31.6133C51.5391 34.4088 48.5385 37.8477 42.3339 37.8477Z" fill="#FECE2F"/>
<path d="M39.1523 31.6953C39.1523 32.375 38.6015 32.9258 37.9219 32.9258C37.2422 32.9258 36.6914 32.375 36.6914 31.6953C36.6914 31.0157 37.2422 30.4648 37.9219 30.4648C38.6015 30.4648 39.1523 31.0157 39.1523 31.6953Z" fill="#FECE2F"/>
<path d="M44.0742 31.6953C44.0742 32.375 43.5234 32.9258 42.8438 32.9258C42.1641 32.9258 41.6133 32.375 41.6133 31.6953C41.6133 31.0157 42.1641 30.4648 42.8438 30.4648C43.5234 30.4648 44.0742 31.0157 44.0742 31.6953Z" fill="#FECE2F"/>
<path d="M48.9961 31.6953C48.9961 32.375 48.4453 32.9258 47.7656 32.9258C47.086 32.9258 46.5352 32.375 46.5352 31.6953C46.5352 31.0157 47.086 30.4648 47.7656 30.4648C48.4453 30.4648 48.9961 31.0157 48.9961 31.6953Z" fill="#FECE2F"/>
</svg>
