<svg width="189" height="43" viewBox="0 0 189 43" fill="none" xmlns="http://www.w3.org/2000/svg">
<path d="M54.5898 2.95496H58.7238L62.6193 10.534L66.5148 2.95496H70.4898V17H67.1508V7.85746L63.7323 14.2175H61.3473L57.9288 7.85746V17H54.5898V2.95496Z" fill="black"/>
<path d="M80.0226 17.318C79.0686 17.318 78.1588 17.1766 77.2931 16.894C76.4451 16.5936 75.7031 16.152 75.0671 15.569C74.4311 14.9683 73.9276 14.2175 73.5566 13.3165C73.1856 12.3978 73.0001 11.329 73.0001 10.11V9.57996C73.0001 8.41396 73.1768 7.39813 73.5301 6.53246C73.8834 5.6668 74.3693 4.9513 74.9876 4.38596C75.6059 3.80296 76.3214 3.37013 77.1341 3.08746C77.9468 2.78713 78.8213 2.63696 79.7576 2.63696C81.9659 2.63696 83.6443 3.21996 84.7926 4.38596C85.9409 5.55196 86.5151 7.23913 86.5151 9.44746V10.9315H76.5776C76.5953 11.5498 76.7013 12.0886 76.8956 12.548C77.0899 12.9896 77.3461 13.3518 77.6641 13.6345C77.9821 13.9171 78.3443 14.1291 78.7506 14.2705C79.1746 14.3941 79.5986 14.456 80.0226 14.456C80.9236 14.456 81.6038 14.3235 82.0631 14.0585C82.5224 13.7935 82.8493 13.4048 83.0436 12.8925H86.2501C85.9674 14.3588 85.2696 15.463 84.1566 16.205C83.0436 16.947 81.6656 17.318 80.0226 17.318ZM79.8901 5.49896C79.4838 5.49896 79.0774 5.55196 78.6711 5.65796C78.2824 5.76396 77.9379 5.9318 77.6376 6.16146C77.3373 6.39113 77.0899 6.7003 76.8956 7.08896C76.7013 7.47763 76.5953 7.9458 76.5776 8.49346H83.1231C83.1054 7.91046 83.0083 7.42463 82.8316 7.03596C82.6726 6.6473 82.4429 6.33813 82.1426 6.10846C81.8599 5.8788 81.5243 5.7198 81.1356 5.63146C80.7469 5.54313 80.3318 5.49896 79.8901 5.49896Z" fill="black"/>
<path d="M87.7159 14.085H89.3059C89.4825 13.82 89.6415 13.4401 89.7829 12.9455C89.9242 12.4331 90.0302 11.8678 90.1009 11.2495C90.1892 10.6135 90.251 9.95096 90.2864 9.26196C90.3394 8.5553 90.3659 7.8663 90.3659 7.19496V2.95496H101.363V14.085H103.086V20.3125H100.012V17H90.7899V20.3125H87.7159V14.085ZM97.8654 14.085V5.86996H93.5724V7.72496C93.5724 8.3433 93.5547 8.9528 93.5194 9.55346C93.484 10.1541 93.431 10.7371 93.3604 11.3025C93.3074 11.8501 93.2279 12.3625 93.1219 12.8395C93.0159 13.3165 92.8834 13.7316 92.7244 14.085H97.8654Z" fill="black"/>
<path d="M105.338 2.95496H108.836V11.965L115.09 2.95496H118.323V17H114.825V7.98996L108.571 17H105.338V2.95496Z" fill="black"/>
<path d="M125.726 17.318C124.967 17.318 124.295 17.212 123.712 17C123.129 16.7703 122.635 16.4611 122.228 16.0725C121.822 15.6661 121.513 15.198 121.301 14.668C121.089 14.1203 120.983 13.5285 120.983 12.8925C120.983 10.0658 122.661 8.65246 126.018 8.65246H130.205V7.98996C130.205 7.0713 129.993 6.42646 129.569 6.05546C129.162 5.68446 128.509 5.49896 127.608 5.49896C126.813 5.49896 126.239 5.6403 125.885 5.92296C125.532 6.18796 125.329 6.52363 125.276 6.92996H121.778C121.813 6.3293 121.963 5.76396 122.228 5.23396C122.511 4.70396 122.9 4.25346 123.394 3.88246C123.907 3.4938 124.525 3.19346 125.249 2.98146C125.974 2.7518 126.804 2.63696 127.74 2.63696C128.641 2.63696 129.454 2.73413 130.178 2.92846C130.92 3.1228 131.547 3.4408 132.06 3.88246C132.59 4.30646 132.996 4.86296 133.279 5.55196C133.561 6.24096 133.703 7.0713 133.703 8.04296V13.4225C133.703 14.1645 133.712 14.8181 133.729 15.3835C133.765 15.9311 133.818 16.47 133.888 17H130.629C130.558 16.6113 130.514 16.3198 130.496 16.1255C130.496 15.9135 130.496 15.6043 130.496 15.198C130.108 15.7633 129.516 16.258 128.721 16.682C127.943 17.106 126.945 17.318 125.726 17.318ZM126.813 14.615C127.237 14.615 127.652 14.562 128.058 14.456C128.465 14.3323 128.827 14.1556 129.145 13.926C129.463 13.6786 129.719 13.3695 129.913 12.9985C130.108 12.6275 130.205 12.1946 130.205 11.7V11.0375H126.68C126.009 11.0375 125.479 11.1965 125.09 11.5145C124.719 11.8148 124.534 12.23 124.534 12.76C124.534 13.3253 124.728 13.7758 125.117 14.1115C125.505 14.4471 126.071 14.615 126.813 14.615Z" fill="black"/>
<path d="M54.5898 25.955H58.0878V31.3875H64.0768V25.955H67.5748V40H64.0768V34.3025H58.0878V40H54.5898V25.955Z" fill="black"/>
<path d="M77.1242 40.318C76.1702 40.318 75.2603 40.1766 74.3947 39.894C73.5467 39.5936 72.8047 39.152 72.1687 38.569C71.5327 37.9683 71.0292 37.2175 70.6582 36.3165C70.2872 35.3978 70.1017 34.329 70.1017 33.11V32.58C70.1017 31.414 70.2783 30.3981 70.6317 29.5325C70.985 28.6668 71.4708 27.9513 72.0892 27.386C72.7075 26.803 73.423 26.3701 74.2357 26.0875C75.0483 25.7871 75.9228 25.637 76.8592 25.637C79.0675 25.637 80.7458 26.22 81.8942 27.386C83.0425 28.552 83.6167 30.2391 83.6167 32.4475V33.9315H73.6792C73.6968 34.5498 73.8028 35.0886 73.9972 35.548C74.1915 35.9896 74.4477 36.3518 74.7657 36.6345C75.0837 36.9171 75.4458 37.1291 75.8522 37.2705C76.2762 37.3941 76.7002 37.456 77.1242 37.456C78.0252 37.456 78.7053 37.3235 79.1647 37.0585C79.624 36.7935 79.9508 36.4048 80.1452 35.8925H83.3517C83.069 37.3588 82.3712 38.463 81.2582 39.205C80.1452 39.947 78.7672 40.318 77.1242 40.318ZM76.9917 28.499C76.5853 28.499 76.179 28.552 75.7727 28.658C75.384 28.764 75.0395 28.9318 74.7392 29.1615C74.4388 29.3911 74.1915 29.7003 73.9972 30.089C73.8028 30.4776 73.6968 30.9458 73.6792 31.4935H80.2247C80.207 30.9105 80.1098 30.4246 79.9332 30.036C79.7742 29.6473 79.5445 29.3381 79.2442 29.1085C78.9615 28.8788 78.6258 28.7198 78.2372 28.6315C77.8485 28.5431 77.4333 28.499 76.9917 28.499Z" fill="black"/>
<path d="M89.2959 28.87H84.8174V25.955H97.2724V28.87H92.7939V40H89.2959V28.87Z" fill="black"/>
<path d="M105.487 40.318C104.533 40.318 103.624 40.1766 102.758 39.894C101.91 39.5936 101.168 39.1431 100.532 38.5425C99.8959 37.9418 99.3924 37.191 99.0214 36.29C98.6504 35.389 98.4649 34.329 98.4649 33.11V32.58C98.4649 31.4316 98.6504 30.4246 99.0214 29.559C99.3924 28.6933 99.8959 27.969 100.532 27.386C101.168 26.803 101.91 26.3701 102.758 26.0875C103.624 25.7871 104.533 25.637 105.487 25.637C106.441 25.637 107.342 25.7871 108.19 26.0875C109.038 26.3701 109.78 26.803 110.416 27.386C111.07 27.969 111.582 28.6933 111.953 29.559C112.324 30.4246 112.51 31.4316 112.51 32.58V33.11C112.51 34.3113 112.324 35.3625 111.953 36.2635C111.582 37.1645 111.07 37.9153 110.416 38.516C109.78 39.1166 109.038 39.5671 108.19 39.8675C107.342 40.1678 106.441 40.318 105.487 40.318ZM105.487 37.35C106.477 37.35 107.298 36.9966 107.952 36.29C108.623 35.5833 108.959 34.5233 108.959 33.11V32.58C108.959 31.2903 108.623 30.3098 107.952 29.6385C107.298 28.9495 106.477 28.605 105.487 28.605C104.48 28.605 103.65 28.9495 102.996 29.6385C102.343 30.3098 102.016 31.2903 102.016 32.58V33.11C102.016 34.541 102.343 35.6098 102.996 36.3165C103.65 37.0055 104.48 37.35 105.487 37.35Z" fill="black"/>
<path d="M114.891 40.318C114.749 40.318 114.573 40.3091 114.361 40.2915C114.149 40.2915 113.972 40.2738 113.831 40.2385V37.085C113.919 37.1026 114.052 37.1115 114.228 37.1115C114.564 37.1115 114.855 37.0143 115.103 36.82C115.35 36.608 115.553 36.2546 115.712 35.76C115.889 35.2653 116.013 34.6116 116.083 33.799C116.172 32.9686 116.216 31.944 116.216 30.725V25.955H127.346V40H123.848V28.87H119.449V31.255C119.449 33.0746 119.352 34.5763 119.157 35.76C118.981 36.926 118.698 37.8446 118.309 38.516C117.938 39.1873 117.461 39.6555 116.878 39.9205C116.313 40.1855 115.65 40.318 114.891 40.318Z" fill="black"/>
<path d="M136.879 40.318C135.925 40.318 135.015 40.1766 134.149 39.894C133.301 39.5936 132.559 39.1431 131.923 38.5425C131.287 37.9418 130.784 37.191 130.413 36.29C130.042 35.389 129.856 34.329 129.856 33.11V32.58C129.856 31.4316 130.042 30.4246 130.413 29.559C130.784 28.6933 131.287 27.969 131.923 27.386C132.559 26.803 133.301 26.3701 134.149 26.0875C135.015 25.7871 135.925 25.637 136.879 25.637C137.833 25.637 138.734 25.7871 139.582 26.0875C140.43 26.3701 141.172 26.803 141.808 27.386C142.461 27.969 142.974 28.6933 143.345 29.559C143.716 30.4246 143.901 31.4316 143.901 32.58V33.11C143.901 34.3113 143.716 35.3625 143.345 36.2635C142.974 37.1645 142.461 37.9153 141.808 38.516C141.172 39.1166 140.43 39.5671 139.582 39.8675C138.734 40.1678 137.833 40.318 136.879 40.318ZM136.879 37.35C137.868 37.35 138.689 36.9966 139.343 36.29C140.014 35.5833 140.35 34.5233 140.35 33.11V32.58C140.35 31.2903 140.014 30.3098 139.343 29.6385C138.689 28.9495 137.868 28.605 136.879 28.605C135.872 28.605 135.041 28.9495 134.388 29.6385C133.734 30.3098 133.407 31.2903 133.407 32.58V33.11C133.407 34.541 133.734 35.6098 134.388 36.3165C135.041 37.0055 135.872 37.35 136.879 37.35Z" fill="black"/>
<path d="M146.673 25.955H156.743V28.87H150.171V40H146.673V25.955Z" fill="black"/>
<path d="M158.856 25.955H162.354V34.965L168.608 25.955H171.841V40H168.343V30.99L162.089 40H158.856V25.955Z" fill="black"/>
<path d="M175.03 25.955H178.528V34.965L184.782 25.955H188.015V40H184.517V30.99L178.263 40H175.03V25.955Z" fill="black"/>
<path fill-rule="evenodd" clip-rule="evenodd" d="M11.08 22.5331C10.8062 22.5112 10.5294 22.5 10.25 22.5C4.58908 22.5 0 27.0891 0 32.75C0 38.4109 4.58908 43 10.25 43C15.9109 43 20.5 38.4109 20.5 32.75C20.5 32.3156 20.473 31.8875 20.4205 31.4672C15.5734 31.0788 11.6774 27.3183 11.08 22.5331Z" fill="#5D00F5"/>
<path fill-rule="evenodd" clip-rule="evenodd" d="M20.5 10.2502C20.5 4.58933 15.9109 0.000244703 10.25 0.000244141C4.58908 0.000243578 0 4.58932 0 10.2502C0 15.9112 4.58908 20.5002 10.25 20.5002C10.5123 20.5002 10.7723 20.4904 11.0297 20.471C11.4085 15.4315 15.4314 11.4085 20.4708 11.0295C20.4902 10.7722 20.5 10.5124 20.5 10.2502Z" fill="#EB236B"/>
<path fill-rule="evenodd" clip-rule="evenodd" d="M31.4659 20.4203C31.8865 20.4729 32.3151 20.5 32.75 20.5C38.4109 20.5 43 15.9109 43 10.25C43 4.58908 38.4109 0 32.75 0C27.0891 -1.99709e-06 22.5 4.58908 22.5 10.25C22.5 10.5293 22.5112 10.8061 22.5331 11.0798C27.3177 11.6777 31.0776 15.5736 31.4659 20.4203Z" fill="#4BD0A0"/>
<path fill-rule="evenodd" clip-rule="evenodd" d="M22.5863 31.4138C22.5294 31.8512 22.5 32.2973 22.5 32.7502C22.5 38.4112 27.0891 43.0002 32.75 43.0002C38.4109 43.0002 43 38.4112 43 32.7502C43 27.0893 38.4109 22.5002 32.75 22.5002C32.2968 22.5002 31.8504 22.5297 31.4127 22.5867C30.8148 27.1784 27.178 30.8155 22.5863 31.4138Z" fill="#0066FF"/>
</svg>
