<svg width="75" height="107" fill="none" xmlns="http://www.w3.org/2000/svg"><g clip-path="url(#clip0)" fill="#FECE2F"><path d="M40.742 99.86a25.23 25.23 0 005.245 3.462c2.967 1.446 4.553 2.058 6.218 1.905 3.161-.312 5.307-3.184 5.868-4.023l.064.009s.008-.048.019-.134a4.74 4.74 0 00.072-.114l-.054-.034c.116-1.02.334-4.512-1.222-6.81-.82-1.236-2.074-1.827-4.427-3.206a48.876 48.876 0 00-4.598-2.4c-.02.005 1.651 3.788 2.386 7.494.162.883.646 1.66 1.305 2.317-.923-.11-1.834-.052-2.666.304-3.501 1.555-8.22 1.257-8.21 1.23zm6.451 1.098c-.002.009 2.776-.227 4.838-1.382.492-.27 1.032-.353 1.576-.324-.386-.385-.673-.85-.773-1.397-.442-2.3-1.582-4.604-1.574-4.605.697.247 1.706.646 2.867 1.278 1.447.783 2.198 1.14 2.68 1.906.911 1.432.687 3.632.593 4.269l.03.021-.045.073-.014.084-.037-.005c-.35.536-1.66 2.354-3.475 2.671-.96.165-1.851-.151-3.57-.856a15.085 15.085 0 01-3.096-1.733z"/><path d="M30.904 91.66a24.61 24.61 0 004.364 4.216c2.545 1.891 3.925 2.744 5.504 2.886 3 .247 5.472-2.106 6.134-2.805l.058.02.04-.124c.056-.061.086-.096.086-.096l-.045-.041c.277-.947 1.06-4.219-.017-6.675-.564-1.32-1.64-2.102-3.624-3.834a47.713 47.713 0 00-3.939-3.111c-.02 0 .954 3.917 1.041 7.575.01.87.337 1.693.847 2.434-.846-.266-1.709-.37-2.547-.177-3.53.868-7.916-.243-7.902-.268zm5.823 2.13c-.004.008 2.637.27 4.753-.466.504-.171 1.022-.155 1.526-.032-.298-.433-.49-.924-.493-1.463-.035-2.263-.73-4.66-.723-4.66a19.2 19.2 0 012.478 1.725c1.226 1 1.866 1.471 2.19 2.283.614 1.52.038 3.565-.155 4.153l.025.025-.054.061-.027.077-.033-.01c-.416.446-1.937 1.943-3.681 1.93-.922-.01-1.701-.464-3.192-1.434a14.569 14.569 0 01-2.614-2.19z"/><path d="M22.935 82.063a24.632 24.632 0 003.451 4.821c2.099 2.263 3.26 3.32 4.722 3.733 2.78.763 5.477-1.047 6.211-1.597l.051.03s.022-.04.057-.112l.096-.076-.035-.047c.41-.854 1.673-3.836 1.048-6.38-.322-1.362-1.21-2.304-2.813-4.325a48.292 48.292 0 00-3.234-3.705c-.018-.002.296 3.946-.195 7.467-.127.835.052 1.682.415 2.483-.755-.405-1.55-.66-2.37-.624-3.462.204-7.42-1.646-7.404-1.668zm5.108 3.028c-.005.008 2.44.731 4.548.405.5-.074.986.034 1.44.242-.211-.467-.313-.972-.232-1.487.327-2.171.049-4.595.055-4.595a19.077 19.077 0 012.063 2.1c.995 1.179 1.523 1.744 1.697 2.578.335 1.562-.535 3.411-.811 3.938l.019.027-.06.049-.038.069-.03-.016c-.462.352-2.131 1.51-3.767 1.188-.865-.173-1.524-.744-2.772-1.936a14.508 14.508 0 01-2.112-2.562z"/><path d="M16.916 71.376a24.986 24.986 0 002.506 5.28c1.626 2.559 2.556 3.782 3.87 4.441 2.5 1.232 5.324-.024 6.101-.42l.045.037.07-.096.103-.056-.026-.052c.52-.746 2.175-3.382 1.977-5.944-.095-1.372-.79-2.44-1.993-4.685a50.39 50.39 0 00-2.487-4.179c-.017-.004-.32 3.88-1.323 7.188-.248.782-.21 1.632.01 2.47-.649-.527-1.361-.917-2.139-1.03-3.294-.43-6.733-2.935-6.714-2.954zm4.309 3.79c-.006.007 2.183 1.148 4.221 1.215.484.02.924.213 1.32.495-.126-.488-.145-.992.012-1.474.645-2.031.755-4.423.761-4.421a19.606 19.606 0 011.621 2.404c.757 1.317 1.168 1.957 1.202 2.791.073 1.563-1.036 3.181-1.378 3.638l.014.03-.064.036-.047.059-.025-.02c-.49.254-2.244 1.065-3.735.46-.788-.322-1.32-.989-2.31-2.362a14.679 14.679 0 01-1.592-2.85z"/><path d="M12.921 59.907a25.519 25.519 0 001.527 5.591c1.13 2.78 1.817 4.131 2.95 5.008 2.163 1.645 5.016.942 5.81.702l.035.044.082-.08.105-.036-.017-.055c.605-.627 2.567-2.873 2.77-5.394.12-1.348-.372-2.513-1.162-4.919a55.052 55.052 0 00-1.694-4.532c-.016-.007-.897 3.73-2.347 6.76-.352.716-.447 1.549-.369 2.402-.53-.63-1.139-1.14-1.852-1.392-3.03-1.018-5.86-4.083-5.838-4.099zm3.427 4.409c-.006.006 1.871 1.514 3.777 1.953.451.108.835.375 1.164.721-.044-.496.017-.987.238-1.426.92-1.852 1.39-4.157 1.396-4.155a20.6 20.6 0 011.155 2.635c.51 1.419.798 2.114.703 2.929-.171 1.528-1.465 2.89-1.857 3.268l.008.032-.066.023-.053.048-.02-.025c-.501.157-2.277.62-3.586-.236-.69-.456-1.088-1.198-1.806-2.71a15.047 15.047 0 01-1.053-3.057z"/><path d="M11.032 47.964a26.24 26.24 0 00.514 5.756c.61 2.924 1.041 4.366 1.963 5.428 1.767 1.997 4.553 1.834 5.334 1.746l.026.049.09-.063.104-.015-.008-.057c.665-.5 2.852-2.327 3.431-4.752.321-1.296.038-2.524-.322-5.03a62.578 62.578 0 00-.858-4.767c-.015-.008-1.435 3.51-3.267 6.208-.442.636-.662 1.434-.723 2.282-.396-.713-.885-1.323-1.51-1.7-2.67-1.55-4.799-5.074-4.774-5.085zm2.465 4.88c-.007.005 1.5 1.825 3.213 2.605.405.189.722.52.975.919.038-.492.172-.962.448-1.35 1.15-1.639 1.955-3.812 1.96-3.809a22.2 22.2 0 01.663 2.795c.254 1.481.416 2.213.2 2.991-.397 1.46-1.82 2.548-2.248 2.844l.003.033-.066.01-.057.037-.015-.028c-.494.06-2.231.185-3.322-.89-.575-.571-.83-1.367-1.26-2.975a15.581 15.581 0 01-.494-3.183z"/><path d="M11.325 35.85a27.108 27.108 0 00-.531 5.777c.065 2.992.228 4.486.909 5.698 1.313 2.283 3.937 2.633 4.678 2.69.01.034.017.052.017.052l.093-.045.1.004.002-.057c.7-.369 3.029-1.76 3.96-4.041.509-1.218.444-2.48.53-5.022a75.81 75.81 0 00.02-4.88c-.012-.01-1.934 3.221-4.084 5.55-.517.546-.855 1.293-1.053 2.117-.249-.775-.599-1.465-1.114-1.952-2.215-2.015-3.554-5.883-3.527-5.89zm1.426 5.2c-.008.004 1.076 2.075 2.534 3.157.344.26.582.645.751 1.084.117-.477.32-.915.64-1.247 1.34-1.402 2.452-3.4 2.457-3.397.074.673.155 1.667.145 2.88-.01 1.508.021 2.258-.307 2.984-.608 1.362-2.108 2.167-2.554 2.38a.963.963 0 01-.002.032l-.063-.002-.06.026-.01-.03c-.468-.033-2.106-.23-2.942-1.485-.44-.667-.544-1.495-.673-3.156a16.3 16.3 0 01.084-3.226z"/><path d="M13.883 23.873a28.476 28.476 0 00-1.611 5.653c-.504 2.984-.621 4.491-.212 5.814.801 2.497 3.17 3.318 3.844 3.51l.007.055.093-.028.092.022.012-.056c.71-.237 3.1-1.187 4.36-3.284.684-1.117.845-2.382 1.391-4.902a99.57 99.57 0 00.945-4.873c-.012-.011-2.398 2.881-4.803 4.81-.577.45-1.026 1.132-1.359 1.916-.087-.815-.28-1.565-.663-2.142-1.665-2.4-2.127-6.491-2.096-6.495zm.31 5.364c-.009.003.594 2.256 1.74 3.595.267.32.417.746.494 1.212.193-.452.459-.85.815-1.12 1.487-1.15 2.882-2.94 2.886-2.936-.059.685-.168 1.69-.398 2.894-.284 1.497-.387 2.247-.818 2.907-.8 1.24-2.326 1.762-2.775 1.89l-.008.033-.057-.014-.06.015-.004-.032c-.427-.118-1.905-.611-2.45-2.007-.285-.74-.234-1.579-.046-3.25.156-1.347.45-2.45.682-3.187z"/><path d="M18.78 12.338a30.635 30.635 0 00-2.724 5.386c-1.098 2.896-1.507 4.378-1.4 5.77.234 2.633 2.254 3.873 2.834 4.185a9.322 9.322 0 00-.004.056l.091-.01c.05.025.08.038.08.038l.022-.054c.699-.11 3.07-.628 4.633-2.504.848-.997 1.242-2.235 2.265-4.673a151.07 151.07 0 001.913-4.744c-.011-.012-2.825 2.496-5.425 4.007-.622.352-1.175.956-1.64 1.682.088-.831.067-1.616-.16-2.26-1.022-2.696-.52-6.88-.486-6.88zm-.878 5.368c-.01 0 .057 2.362.83 3.904.179.37.228.822.203 1.3.27-.417.594-.768.975-.976 1.595-.886 3.246-2.44 3.25-2.435-.2.677-.51 1.667-.968 2.834-.564 1.45-.807 2.182-1.333 2.766-.978 1.097-2.476 1.344-2.913 1.392l-.013.03-.05-.024a1.562 1.562 0 01-.058.005l.003-.033c-.368-.194-1.627-.95-1.847-2.44-.111-.79.104-1.617.623-3.254a18.8 18.8 0 011.298-3.07z"/><path d="M29.322 10.779c1.227-1.844 2.233-3.416 2.924-4.494-.01-.013-3.217 2.076-5.95 3.165-.652.251-1.302.768-1.898 1.421.276-.823.446-1.618.396-2.306-.288-2.888 1.268-7.023 1.303-7.017a34.134 34.134 0 00-3.869 4.977c-1.716 2.731-2.43 4.148-2.654 5.565a5.221 5.221 0 001.65 4.69l-.016.057.086.004c.04.035.064.053.064.053l.031-.05c.664.01 2.937-.098 4.783-1.724.999-.863 1.634-2.045 3.15-4.341zm-2.569 1.364c-.855 1.37-1.241 2.065-1.853 2.563-1.14.938-2.56.926-2.969.898-.012.019-.02.028-.02.028l-.04-.032a2.305 2.305 0 01-.053-.006l.01-.032c-.292-.259-1.274-1.237-1.133-2.77.08-.814.467-1.608 1.332-3.166a21.136 21.136 0 011.934-2.872c-.011 0-.534 2.39-.192 4.075.076.402.014.865-.12 1.344.343-.375.721-.674 1.118-.819 1.662-.621 3.545-1.916 3.548-1.911-.348.651-.87 1.6-1.562 2.7z"/></g><defs><clipPath id="clip0"><path fill="#fff" transform="rotate(10.493 8.87 96.588)" d="M0 0h58.199v97.398H0z"/></clipPath></defs></svg>