<svg width="86" height="83" viewBox="0 0 86 83" fill="none" xmlns="http://www.w3.org/2000/svg">
<path d="M0 17.4737L86 0L81.7915 83L2.01277 78.0075L0 17.4737Z" fill="white"/>
<path d="M52.7695 29.0313H47.3798C47.3994 28.4343 47.4103 27.8338 47.4103 27.2305C47.4103 26.5508 46.8591 26 46.1798 26H19.8202C19.1409 26 18.5897 26.5508 18.5897 27.2305C18.5897 27.8338 18.6006 28.4343 18.6202 29.0313H13.2305C12.5508 29.0313 12 29.5821 12 30.2618C12 35.7752 13.441 40.9768 16.0573 44.9088C18.6436 48.796 22.0886 51.0256 25.8101 51.2426C26.6538 52.1606 27.5456 52.9091 28.4745 53.4801V58.949H26.4103C23.9147 58.949 21.8848 60.9793 21.8848 63.4745V65.5387H21.7973C21.1176 65.5387 20.5668 66.0899 20.5668 66.7692C20.5668 67.4489 21.1176 67.9997 21.7973 67.9997H44.2027C44.8824 67.9997 45.4332 67.4489 45.4332 66.7692C45.4332 66.0899 44.8824 65.5387 44.2027 65.5387H44.1152V63.4745C44.1152 60.9793 42.0853 58.949 39.5897 58.949H37.5255V53.4801C38.4544 52.9095 39.3465 52.1606 40.1902 51.2426C43.9114 51.0256 47.3564 48.796 49.943 44.9088C52.5593 40.9768 54 35.7752 54 30.2618C54 29.5821 53.4492 29.0313 52.7695 29.0313ZM18.1062 43.5457C15.9481 40.3026 14.6801 36.0607 14.4869 31.4922H18.7576C19.2014 37.1082 20.5197 42.2992 22.5801 46.4197C22.9082 47.0759 23.2514 47.696 23.6074 48.2798C21.5608 47.5069 19.6667 45.8913 18.1062 43.5457ZM41.6543 63.4745V65.5391H24.3457V63.4745C24.3457 62.3363 25.2718 61.4099 26.4103 61.4099H39.5897C40.7282 61.4099 41.6543 62.3363 41.6543 63.4745ZM35.0646 58.949H30.9354V54.5494C31.6119 54.7276 32.3011 54.8202 33 54.8202C33.6989 54.8202 34.3881 54.7276 35.0646 54.5494V58.949ZM35.8266 51.6219C35.7711 51.6447 35.7179 51.6723 35.667 51.7027C34.7973 52.1353 33.9036 52.3593 33 52.3593C32.0967 52.3593 31.2033 52.1353 30.334 51.7033C30.2824 51.6723 30.2289 51.6447 30.1728 51.6213C29.208 51.1112 28.2746 50.3409 27.3918 49.3286C27.3453 49.2623 27.2931 49.2011 27.2351 49.1453C26.3587 48.1049 25.5342 46.825 24.7812 45.319C22.5199 40.7967 21.2138 34.8504 21.0651 28.4609H44.9349C44.7859 34.8504 43.4798 40.797 41.2188 45.319C40.4658 46.825 39.6413 48.1049 38.7653 49.1453C38.7069 49.2011 38.6541 49.2626 38.6079 49.3289C37.7251 50.3415 36.7914 51.1115 35.8266 51.6219ZM47.8938 43.5457C46.3333 45.8913 44.4392 47.5069 42.3926 48.2798C42.7486 47.696 43.0918 47.0759 43.4199 46.4197C45.4803 42.2992 46.7982 37.1082 47.2424 31.4922H51.5131C51.3199 36.0607 50.0519 40.3026 47.8938 43.5457Z" fill="#FECE2F"/>
</svg>
