<svg width="24" height="24" fill="none" xmlns="http://www.w3.org/2000/svg"><path d="M23.484 2.255c0-.961-.787-1.74-1.757-1.74H2.273c-.97 0-1.757.779-1.757 1.74v17.358c0 1.78 1.982 3.871 5.287 3.871h16.72c1.097-.089 1.088-1.125.788-1.5 0 0 0-.004-.005-.004-1.706-2.424-.07-4.861.005-4.97 0 0 .169-.22.173-.548V2.255zm-21.056.173h19.14v13.074H5.802c-1.294 0-2.466.332-3.375.895V2.428zm0 17.067c0-1.125 1.547-2.076 3.375-2.076H21c-.37 1.05-.628 2.54-.047 4.153H5.803c-1.828 0-3.375-.952-3.375-2.077z" fill="#1A1A1A"/></svg>