<svg width="16" height="16" fill="none" xmlns="http://www.w3.org/2000/svg"><g clip-path="url(#clip0)" fill="#B0B0B0"><path d="M.468 12.22h12.25a.47.47 0 00.3-.11c.119-.098 2.803-2.407 2.966-7.391H2.827C2.664 9.243.193 11.369.167 11.39a.47.47 0 00.301.828zM15.532 1.906h-2.344v-.468a.464.464 0 00-.469-.47.464.464 0 00-.469.47v.468H9.875v-.468a.464.464 0 00-.468-.47.464.464 0 00-.47.47v.468H6.595v-.468a.464.464 0 00-.469-.47.464.464 0 00-.469.47v.468H3.313a.464.464 0 00-.47.47V3.78h13.158V2.375a.464.464 0 00-.47-.469z"/><path d="M13.621 12.83a1.411 1.411 0 01-.902.327H2.844v1.406c0 .26.21.47.469.47h12.219a.47.47 0 00.469-.47V9.31c-.904 2.217-2.165 3.341-2.38 3.52z"/></g><defs><clipPath id="clip0"><path fill="#fff" d="M0 0h16v16H0z"/></clipPath></defs></svg>