<svg width="20" height="20" fill="none" xmlns="http://www.w3.org/2000/svg"><g clip-path="url(#clip0)" fill="#FF3535"><path d="M15.538 1.673A9.96 9.96 0 008.424.127a.856.856 0 00-.13.013 9.939 9.939 0 00-6.466 4.093 9.94 9.94 0 00-1.677 7.466c.076.434.182.871.315 1.296a7.48 7.48 0 01-.381 5.398.832.832 0 00.973 1.158l3.734-1.02a9.909 9.909 0 007.184 1.269 9.93 9.93 0 006.352-4.266c3.052-4.59 1.8-10.807-2.79-13.86zm1.403 12.94a8.276 8.276 0 01-5.294 3.554 8.277 8.277 0 01-6.256-1.23.836.836 0 00-.682-.11l-2.542.694a9.166 9.166 0 00-.11-5.02 8.489 8.489 0 01-.264-1.087 8.28 8.28 0 011.398-6.222 8.269 8.269 0 015.277-3.39.963.963 0 00.12-.012 8.298 8.298 0 016.029 1.272c3.825 2.544 4.867 7.725 2.324 11.55z"/><path d="M10.003 4.918a.832.832 0 00-.833.833v4.999a.832.832 0 101.666 0v-5a.832.832 0 00-.833-.833zm.766 8.932a.777.777 0 00-.175-.276c-.042-.033-.084-.075-.134-.1a.482.482 0 00-.141-.075.832.832 0 00-.907.175.778.778 0 00-.175.275.83.83 0 00-.067.317.83.83 0 00.067.316c.041.1.1.192.175.275a.963.963 0 00.274.175.83.83 0 00.317.067.827.827 0 00.316-.067c.1-.041.19-.1.275-.175a.96.96 0 00.175-.275.828.828 0 00.066-.316.829.829 0 00-.066-.317z"/></g><defs><clipPath id="clip0"><path fill="#fff" d="M0 0h20v20H0z"/></clipPath></defs></svg>