<svg width="16" height="16" fill="none" xmlns="http://www.w3.org/2000/svg"><g clip-path="url(#clip0)"><path d="M8 3.23c-3.057 0-5.83 1.673-7.875 4.39a.633.633 0 000 .756c2.046 2.72 4.818 4.392 7.875 4.392 3.057 0 5.83-1.673 7.875-4.39a.633.633 0 000-.755C13.829 4.903 11.057 3.23 8 3.23zm.22 8.127A3.367 3.367 0 014.641 7.78 3.373 3.373 0 017.78 4.64a3.367 3.367 0 013.577 3.578 3.383 3.383 0 01-3.139 3.138zm-.102-1.551A1.81 1.81 0 016.193 7.88a1.82 1.82 0 011.692-1.69A1.81 1.81 0 019.81 8.114a1.82 1.82 0 01-1.692 1.692z" fill="#B0B0B0"/></g><defs><clipPath id="clip0"><path fill="#fff" d="M0 0h16v16H0z"/></clipPath></defs></svg>