<svg width="24" height="24" fill="none" xmlns="http://www.w3.org/2000/svg"><path d="M12 0C5.372 0 0 5.373 0 12c0 6.626 5.373 12 12 12 6.626 0 12-5.374 12-12 0-6.627-5.374-12-12-12zm2.498 18.598a40.86 40.86 0 01-1.479.556 3.899 3.899 0 01-1.282.192c-.747 0-1.33-.183-1.744-.547a1.767 1.767 0 01-.62-1.389c0-.218.015-.442.045-.67a8.36 8.36 0 01.15-.77l.773-2.731c.068-.262.127-.511.173-.743.047-.233.07-.448.07-.643 0-.347-.073-.591-.216-.728-.145-.137-.419-.204-.826-.204-.199 0-.404.03-.615.091a8.61 8.61 0 00-.537.179l.204-.841c.506-.207.99-.383 1.453-.53a4.291 4.291 0 011.31-.221c.743 0 1.316.18 1.72.538.4.359.603.825.603 1.398 0 .12-.014.328-.042.627-.027.3-.08.573-.154.824l-.77 2.722a7.71 7.71 0 00-.169.748 3.95 3.95 0 00-.074.636c0 .362.08.609.243.74.16.13.442.197.84.197.188 0 .398-.034.636-.099.235-.065.406-.123.514-.172l-.207.84zM14.36 7.547c-.358.333-.79.5-1.295.5-.504 0-.939-.167-1.3-.5a1.596 1.596 0 01-.542-1.212c0-.472.183-.879.542-1.215a1.841 1.841 0 011.3-.505c.505 0 .938.168 1.295.505.359.336.539.743.539 1.215 0 .474-.18.879-.539 1.212z" fill="#FECE2F"/></svg>