<svg width="24" height="24" fill="none" xmlns="http://www.w3.org/2000/svg"><path d="M23.063 8.344h-6.47a.938.938 0 00-.662.274l-4.172 4.172a.937.937 0 00-.275.663v9.61c0 .517.42.937.938.937h10.64c.518 0 .938-.42.938-.938V9.283a.937.937 0 00-.938-.938zm-6.61 2.404v2.565h-2.565l2.565-2.565zm5.672 11.377h-8.766v-6.938h4.032c.517 0 .937-.42.937-.937v-4.031h3.797v11.906zM7.833 1.875l1.336 3.82a.937.937 0 00.885.627l13.008.006c1.244-.05 1.244-1.825 0-1.875l-7.45-.003L14.275.628A.938.938 0 0013.39 0H.937A.937.937 0 000 .938v18.796c0 .518.42.938.938.938h7.64c1.244-.05 1.243-1.826 0-1.875H1.875V1.875h5.958zm5.793 2.574l-2.906-.001-.9-2.573h2.905l.9 2.574z" fill="#1A1A1A"/></svg>