<svg width="24" height="24" fill="none" xmlns="http://www.w3.org/2000/svg"><path d="M19.781.553c-.098-.028-.989-.155-1.804.385L2.292 5.578A2.498 2.498 0 00.516 7.96v1.983a2.49 2.49 0 001.523 2.288v10.298c0 .53.427.956.956.956H6.76a.956.956 0 00.933-.745l1.861-8.264 8.424 2.494c.81.548 1.73.403 1.814.38 2.428-.422 3.693-4.435 3.693-8.396 0-3.97-1.27-7.987-3.703-8.4zM5.995 21.572H3.952V12.81l3.764 1.116-1.72 7.645zm10.163-7.14L2.836 10.487a.573.573 0 01-.408-.544V7.96c0-.248.169-.473.408-.543L16.158 3.47c-.61 1.542-.919 3.52-.919 5.48 0 1.963.314 3.937.919 5.484zm3.23 1.904c-1.205 0-2.185-3.103-2.185-6.938 0-3.834.98-6.937 2.184-6.937 1.205 0 2.185 3.103 2.185 6.937 0 3.835-.98 6.938-2.184 6.938z" fill="#1A1A1A"/></svg>