<svg width="24" height="24" fill="none" xmlns="http://www.w3.org/2000/svg"><g clip-path="url(#clip0)"><path d="M23.063 6.117h-2.557L19.43 2.08a.938.938 0 00-1.15-.664L.695 6.15A.942.942 0 000 7.055V21.68c0 .518.42.937.938.937h22.125c.517 0 .937-.42.937-.937V7.055a.937.937 0 00-.938-.938zM17.86 3.47l.706 2.647H8.026L17.86 3.47zm4.265 17.272H9.375v-1.687a.937.937 0 10-1.875 0v1.687H1.875V7.992H7.5V9.68a.937.937 0 101.875 0V7.992h12.75v12.75zM9.375 13.43v1.875a.937.937 0 11-1.875 0V13.43a.937.937 0 111.875 0z" fill="#1A1A1A"/></g><defs><clipPath id="clip0"><path fill="#fff" d="M0 0h24v24H0z"/></clipPath></defs></svg>