<svg width="24" height="24" fill="none" xmlns="http://www.w3.org/2000/svg"><path d="M3 0h12.745L22.5 6.729V22.5A1.5 1.5 0 0121 24H3a1.5 1.5 0 01-1.5-1.5v-21A1.5 1.5 0 013 0z" fill="#E2574C"/><path d="M22.478 6.75H17.25a1.5 1.5 0 01-1.5-1.5V.015l6.728 6.735z" fill="#B53629"/><path d="M16.874 11.372c.251 0 .374-.219.374-.431 0-.22-.128-.432-.374-.432h-1.431c-.28 0-.436.232-.436.487v3.517c0 .314.179.488.42.488.24 0 .42-.174.42-.488v-.965h.865c.268 0 .403-.22.403-.438 0-.214-.135-.426-.403-.426h-.866v-1.312h1.028zm-4.837-.863H10.99a.463.463 0 00-.486.484v3.523c0 .36.29.472.498.472h1.099c1.3 0 2.159-.856 2.159-2.176 0-1.397-.81-2.303-2.223-2.303zm.05 3.61h-.638v-2.741h.575c.871 0 1.25.584 1.25 1.39 0 .755-.372 1.352-1.187 1.352zm-3.835-3.61H7.215c-.294 0-.457.194-.457.487v3.517c0 .314.187.488.44.488.251 0 .439-.174.439-.488v-1.027h.65c.802 0 1.465-.568 1.465-1.482 0-.895-.64-1.495-1.5-1.495zm-.017 2.153h-.598v-1.327h.598c.369 0 .603.288.603.663 0 .376-.234.664-.603.664z" fill="#fff"/></svg>