<svg width="16" height="16" fill="none" xmlns="http://www.w3.org/2000/svg"><path d="M8 0a8 8 0 100 16A8 8 0 008 0zm4.02 6.576l-1.957 1.957a1.118 1.118 0 01-.795.329c-.3 0-.582-.117-.794-.33l-.077-.076-.208.208.076.077c.439.438.439 1.15 0 1.589L6.31 12.287a1.116 1.116 0 01-.794.329c-.3 0-.583-.117-.795-.33l-.74-.74a1.125 1.125 0 010-1.588L5.937 8c.212-.212.494-.329.795-.329.3 0 .582.117.794.33l.077.076.208-.209-.077-.076a1.125 1.125 0 010-1.589l1.957-1.956c.212-.213.494-.33.794-.33.3 0 .583.117.795.33l.74.74c.437.437.437 1.15 0 1.588z" fill="#3987B2"/><path d="M7.603 9.251l-.378.378-.587-.586.378-.379-.076-.076a.292.292 0 00-.415 0l-1.957 1.956a.294.294 0 000 .415l.74.74a.3.3 0 00.415 0L7.68 9.744a.294.294 0 000-.415l-.077-.077zm3.089-4.416a.292.292 0 00-.415 0L8.32 6.79a.294.294 0 000 .415l.077.077.58-.58.587.586-.58.58.076.077a.3.3 0 00.415 0l1.957-1.956a.294.294 0 000-.416l-.74-.74z" fill="#3987B2"/></svg>