<svg width="24" height="24" fill="none" xmlns="http://www.w3.org/2000/svg"><g clip-path="url(#clip0)"><path d="M21.944 3.837L18.382.275A.937.937 0 0017.719 0h-15a.937.937 0 00-.938.938v22.125c0 .517.42.937.938.937H21.28c.518 0 .938-.42.938-.938V4.5a.938.938 0 00-.275-.663zm-1.6 18.288H3.656V1.875H17.33l3.014 3.013v17.237zM12 9.187a2.816 2.816 0 002.813-2.812A2.816 2.816 0 0012 3.562a2.816 2.816 0 00-2.813 2.813A2.816 2.816 0 0012 9.188zm0-3.75a.939.939 0 010 1.875.939.939 0 010-1.875zM16.688 19.5c0 .518-.42.938-.938.938h-7.5a.937.937 0 110-1.875h7.5c.518 0 .938.42.938.937zm0-3.75c0 .518-.42.938-.938.938h-7.5a.937.937 0 110-1.875h7.5c.518 0 .938.42.938.937zM7.313 12c0-.518.42-.938.937-.938h7.231a.937.937 0 110 1.876H8.25A.937.937 0 017.312 12z" fill="#1A1A1A"/></g><defs><clipPath id="clip0"><path fill="#fff" d="M0 0h24v24H0z"/></clipPath></defs></svg>