<svg width="16" height="16" fill="none" xmlns="http://www.w3.org/2000/svg"><g clip-path="url(#clip0)"><path d="M12.82 11.317c-.61 0-1.161.237-1.579.619L5.518 8.598c.045-.18.073-.37.073-.562a2.37 2.37 0 00-.073-.562l5.663-3.305c.43.401 1.004.65 1.639.65 1.329 0 2.41-1.08 2.41-2.41A2.412 2.412 0 0012.82 0c-1.33 0-2.41 1.08-2.41 2.41 0 .192.028.381.072.562L4.82 6.277a2.392 2.392 0 00-1.639-.65c-1.33 0-2.41 1.08-2.41 2.41a2.412 2.412 0 002.41 2.409 2.4 2.4 0 001.639-.65l5.723 3.337c-.04.168-.065.345-.065.526a2.341 2.341 0 102.342-2.342z" fill="#FF8C22"/></g><defs><clipPath id="clip0"><path fill="#fff" d="M0 0h16v16H0z"/></clipPath></defs></svg>