<svg width="16" height="16" fill="none" xmlns="http://www.w3.org/2000/svg"><path d="M2.07 11.86c-1.14 0-2.07.927-2.07 2.07a2.072 2.072 0 004.141 0c0-1.142-.929-2.07-2.07-2.07z" fill="#FF8C22"/><path d="M.344 5.957a.33.33 0 00-.338.328V8.94c0 .175.138.32.313.328a6.692 6.692 0 016.41 6.41.328.328 0 00.327.313h2.657a.328.328 0 00.328-.339 9.998 9.998 0 00-2.939-6.757A10 10 0 00.344 5.957z" fill="#FF8C22"/><path d="M11.313 4.688A15.916 15.916 0 00.34 0a.328.328 0 00-.334.327v2.656c0 .178.142.323.32.328 6.65.167 12.197 5.713 12.364 12.364.004.178.15.32.327.32h2.656A.328.328 0 0016 15.66a15.915 15.915 0 00-4.688-10.972z" fill="#FF8C22"/></svg>