<svg width="24" height="24" fill="none" xmlns="http://www.w3.org/2000/svg"><g clip-path="url(#clip0)"><path d="M16.805 16.266v6.797a.937.937 0 11-1.875 0v-5.86H6.96a.937.937 0 01-.937-.937V7.5c0-.518.42-.938.938-.938h3.75c.518 0 .937.42.937.938v5.016a.937.937 0 11-1.875 0V8.437H7.898v6.891h7.97c.517 0 .937.42.937.938zm-4.688 2.812H4.148V6.352a.937.937 0 10-1.875 0v16.71a.937.937 0 101.875 0v-2.109h7.032v2.11a.937.937 0 101.875 0v-3.047a.937.937 0 00-.938-.938zm8.919-12.623a.938.938 0 00-1.151.658l-1.218 4.465H14.46a.937.937 0 100 1.875h4.922a.938.938 0 00.904-.69l1.407-5.157a.938.938 0 00-.658-1.151zM6.023 2.812A2.816 2.816 0 018.836 0a2.816 2.816 0 012.812 2.813 2.816 2.816 0 01-2.812 2.812 2.816 2.816 0 01-2.813-2.813zm1.875 0a.939.939 0 001.875 0 .939.939 0 00-1.875 0z" fill="#1A1A1A"/></g><defs><clipPath id="clip0"><path fill="#fff" d="M0 0h24v24H0z"/></clipPath></defs></svg>