<svg width="24" height="24" fill="none" xmlns="http://www.w3.org/2000/svg"><g clip-path="url(#clip0)"><path d="M16.026 11.174l-6.094-3.47a.938.938 0 00-1.4.815v6.938a.938.938 0 001.4.815l6.094-3.469c.628-.35.628-1.28 0-1.63zm-5.62 2.67v-3.712l3.261 1.856-3.26 1.857zM23.64 7.009a4.686 4.686 0 00-4.196-4.016A77.955 77.955 0 0012 2.625c-3.054 0-5.734.2-7.444.367A4.686 4.686 0 00.36 7.007c-.48 3.41-.48 6.576 0 9.985a4.686 4.686 0 004.196 4.016c1.71.168 4.39.367 7.444.367 3.054 0 5.734-.2 7.444-.367a4.686 4.686 0 004.196-4.015c.48-3.41.48-6.576 0-9.985zm-1.857 9.722a2.816 2.816 0 01-2.521 2.412A76.036 76.036 0 0112 19.5c-2.978 0-5.593-.195-7.262-.358a2.816 2.816 0 01-2.521-2.412A33.864 33.864 0 011.875 12c0-1.535.115-3.126.342-4.73a2.816 2.816 0 012.521-2.412A76.033 76.033 0 0112 4.5c2.978 0 5.593.194 7.262.358a2.816 2.816 0 012.521 2.412 32.896 32.896 0 010 9.46z" fill="#1A1A1A"/></g><defs><clipPath id="clip0"><path fill="#fff" d="M0 0h24v24H0z"/></clipPath></defs></svg>