<svg width="86" height="83" viewBox="0 0 86 83" fill="none" xmlns="http://www.w3.org/2000/svg">
<path d="M0 17.4737L86 0L81.7915 83L2.01277 78.0075L0 17.4737Z" fill="white"/>
<g clip-path="url(#clip0)">
<path d="M34.6737 32.7939C24.9672 32.7939 17.0703 40.6908 17.0703 50.3973C17.0703 60.1039 24.9672 68.0007 34.6737 68.0007C44.3801 68.0007 52.277 60.1038 52.277 50.3973C52.277 40.6909 44.3802 32.7939 34.6737 32.7939ZM34.6737 65.4226C26.3888 65.4226 19.6484 58.6822 19.6484 50.3973C19.6484 42.1124 26.3888 35.3721 34.6737 35.3721C42.9586 35.3721 49.6989 42.1124 49.6989 50.3973C49.6989 58.6822 42.9586 65.4226 34.6737 65.4226Z" fill="#FECE2F"/>
<path d="M42.3616 53.6708C41.8212 53.2073 41.0074 53.2695 40.5439 53.81C39.072 55.526 36.9325 56.5102 34.6739 56.5102C32.4156 56.5102 30.2761 55.5261 28.8042 53.8101C28.3406 53.2697 27.5269 53.2075 26.9865 53.671C26.4461 54.1345 26.3838 54.9483 26.8474 55.4886C28.8097 57.7763 31.6624 59.0884 34.674 59.0884C37.6857 59.0884 40.5385 57.7763 42.5008 55.4884C42.9642 54.9482 42.9019 54.1343 42.3616 53.6708V53.6708Z" fill="#FECE2F"/>
<path d="M27.517 48.3694C28.2289 48.3694 28.8061 47.7923 28.8061 47.0804C28.8061 46.6671 29.1424 46.3308 29.5556 46.3308C29.9689 46.3308 30.3052 46.6671 30.3052 47.0804C30.3052 47.7923 30.8823 48.3694 31.5942 48.3694C32.3062 48.3694 32.8833 47.7923 32.8833 47.0804C32.8833 45.2455 31.3905 43.7527 29.5556 43.7527C27.7208 43.7527 26.228 45.2455 26.228 47.0804C26.228 47.7924 26.8051 48.3694 27.517 48.3694Z" fill="#FECE2F"/>
<path d="M39.7906 43.7518C37.9557 43.7518 36.4629 45.2446 36.4629 47.0795C36.4629 47.7914 37.04 48.3686 37.752 48.3686C38.4639 48.3686 39.041 47.7914 39.041 47.0795C39.041 46.6662 39.3773 46.33 39.7906 46.33C40.2038 46.33 40.5401 46.6662 40.5401 47.0795C40.5401 47.7914 41.1173 48.3686 41.8292 48.3686C42.5411 48.3686 43.1182 47.7914 43.1182 47.0795C43.1182 45.2446 41.6254 43.7518 39.7906 43.7518Z" fill="#FECE2F"/>
<path d="M45.294 31.2405H47.1746C47.8865 31.2405 48.4637 30.6634 48.4637 29.9515C48.4637 29.2396 47.8865 28.6624 47.1746 28.6624H45.294C44.5821 28.6624 44.005 29.2396 44.005 29.9515C44.005 30.6634 44.5821 31.2405 45.294 31.2405Z" fill="#FECE2F"/>
<path d="M50.0015 35.9035C50.7134 35.9035 51.2905 35.3263 51.2905 34.6144V32.7338C51.2905 32.0219 50.7134 31.4448 50.0015 31.4448C49.2896 31.4448 48.7124 32.0219 48.7124 32.7338V34.6144C48.7124 35.3264 49.2896 35.9035 50.0015 35.9035Z" fill="#FECE2F"/>
<path d="M54.7108 28.6624H52.8302C52.1183 28.6624 51.5411 29.2396 51.5411 29.9515C51.5411 30.6634 52.1183 31.2405 52.8302 31.2405H54.7108C55.4227 31.2405 55.9998 30.6634 55.9998 29.9515C55.9998 29.2396 55.4227 28.6624 54.7108 28.6624V28.6624Z" fill="#FECE2F"/>
<path d="M50.0015 28.4587C50.7134 28.4587 51.2905 27.8815 51.2905 27.1696V25.2891C51.2905 24.5772 50.7134 24 50.0015 24C49.2896 24 48.7124 24.5772 48.7124 25.2891V27.1696C48.7124 27.8815 49.2896 28.4587 50.0015 28.4587Z" fill="#FECE2F"/>
<path d="M14.7904 30.3811H13.2891C12.5772 30.3811 12 30.9583 12 31.6702C12 32.3821 12.5772 32.9593 13.2891 32.9593H14.7904C15.5023 32.9593 16.0795 32.3821 16.0795 31.6702C16.0795 30.9583 15.5023 30.3811 14.7904 30.3811Z" fill="#FECE2F"/>
<path d="M18.7667 35.8239V34.3226C18.7667 33.6107 18.1895 33.0335 17.4776 33.0335C16.7657 33.0335 16.1886 33.6107 16.1886 34.3226V35.8239C16.1886 36.5358 16.7657 37.113 17.4776 37.113C18.1895 37.113 18.7667 36.5358 18.7667 35.8239Z" fill="#FECE2F"/>
<path d="M20.1645 32.9593H21.6658C22.3777 32.9593 22.9549 32.3821 22.9549 31.6702C22.9549 30.9583 22.3777 30.3811 21.6658 30.3811H20.1645C19.4526 30.3811 18.8755 30.9583 18.8755 31.6702C18.8755 32.3821 19.4526 32.9593 20.1645 32.9593Z" fill="#FECE2F"/>
<path d="M17.4776 30.3094C18.1895 30.3094 18.7667 29.7323 18.7667 29.0204V27.519C18.7667 26.8071 18.1895 26.23 17.4776 26.23C16.7657 26.23 16.1886 26.8071 16.1886 27.519V29.0204C16.1886 29.7323 16.7657 30.3094 17.4776 30.3094V30.3094Z" fill="#FECE2F"/>
</g>
<defs>
<clipPath id="clip0">
<rect width="44" height="44" fill="white" transform="translate(12 24)"/>
</clipPath>
</defs>
</svg>
