<svg width="86" height="83" viewBox="0 0 86 83" fill="none" xmlns="http://www.w3.org/2000/svg">
<path d="M0 17.4737L86 0L81.7915 83L2.01277 78.0075L0 17.4737Z" fill="white"/>
<path d="M27.125 45.9583H27.1492M36.7917 45.9583H36.8158M46.4583 45.9583H46.4825M16.2501 45.9584C16.2418 48.7081 16.987 51.4207 18.4251 53.8751C20.1302 56.8162 22.7515 59.29 25.9954 61.0194C29.2393 62.7488 32.9777 63.6655 36.7917 63.6667C39.9814 63.6739 43.128 63.0315 45.9751 61.7917L59.7501 65.7501L55.1584 53.8751C56.5965 51.4207 57.3417 48.7081 57.3334 45.9584C57.3319 42.6704 56.2686 39.4477 54.2625 36.6512C52.2564 33.8547 49.3868 31.595 45.9751 30.1251C43.128 28.8853 39.9814 28.2429 36.7917 28.2501H35.5834C30.5462 28.4896 25.7885 30.3225 22.2213 33.3977C18.6541 36.4729 16.528 40.5743 16.2501 44.9167V45.9584Z" stroke="#FECE2F" stroke-width="2" stroke-linecap="round" stroke-linejoin="round"/>
</svg>
