<svg width="86" height="83" viewBox="0 0 86 83" fill="none" xmlns="http://www.w3.org/2000/svg">
<path d="M0 17.4737L86 0L81.7915 83L2.01277 78.0075L0 17.4737Z" fill="white"/>
<path d="M48.3416 38.9917H47.8439V34.1584C47.8439 32.1412 46.2028 30.5 44.1855 30.5H17.651C14.7229 30.5 12.3087 32.7397 12.03 35.5958C11.9875 35.7976 12.0026 33.9993 12.0026 61.8522C12.0026 64.9667 14.5364 67.5005 17.651 67.5005H48.3416C50.3588 67.5005 52 65.8594 52 63.8421V42.6501C52 40.6329 50.3589 38.9917 48.3416 38.9917V38.9917ZM17.651 33.0129H44.1855C44.8172 33.0129 45.3311 33.5268 45.3311 34.1585V38.9918H17.651C15.9711 38.9918 14.5959 37.6637 14.5192 36.0024C14.5958 34.341 15.971 33.0129 17.651 33.0129V33.0129ZM48.3416 64.9877H17.651C15.9221 64.9877 14.5156 63.5811 14.5156 61.8522V40.5524C15.4132 41.1536 16.4918 41.5046 17.651 41.5046H48.3416C48.9733 41.5046 49.4872 42.0184 49.4872 42.6501V47.7438H40.0319C36.8118 47.7438 34.192 50.3636 34.192 53.5837C34.192 56.8038 36.8118 59.4236 40.0319 59.4236H49.4872V63.8421C49.4872 64.4738 48.9733 64.9877 48.3416 64.9877V64.9877ZM49.4872 56.9108H40.0319C38.1974 56.9108 36.7048 55.4183 36.7048 53.5838C36.7048 51.7492 38.1973 50.2568 40.0319 50.2568H49.4872V56.9108Z" fill="#FECE2F"/>
</svg>
