<svg width="86" height="83" viewBox="0 0 86 83" fill="none" xmlns="http://www.w3.org/2000/svg">
<path d="M0 17.4737L86 0L81.7915 83L2.01277 78.0075L0 17.4737Z" fill="white"/>
<g clip-path="url(#clip0_1482:252)">
<path d="M34.6737 32.793C24.9672 32.793 17.0703 40.6899 17.0703 50.3964C17.0703 60.103 24.9672 67.9998 34.6737 67.9998C44.3801 67.9998 52.277 60.1029 52.277 50.3964C52.277 40.6899 44.3802 32.793 34.6737 32.793ZM34.6737 65.4216C26.3888 65.4216 19.6484 58.6813 19.6484 50.3964C19.6484 42.1115 26.3888 35.3712 34.6737 35.3712C42.9586 35.3712 49.6989 42.1115 49.6989 50.3964C49.6989 58.6813 42.9586 65.4216 34.6737 65.4216Z" fill="#FECE2F"/>
<path d="M42.362 53.67C41.8216 53.2066 41.0078 53.2688 40.5443 53.8092C39.0724 55.5252 36.9329 56.5095 34.6744 56.5095C32.416 56.5095 30.2765 55.5253 28.8046 53.8093C28.341 53.2689 27.5273 53.2067 26.9869 53.6702C26.4466 54.1337 26.3843 54.9476 26.8478 55.4879C28.8101 57.7755 31.6629 59.0876 34.6745 59.0876C37.6861 59.0876 40.5389 57.7755 42.5012 55.4877C42.9647 54.9474 42.9024 54.1336 42.362 53.67Z" fill="#FECE2F"/>
<path d="M27.5176 48.3687C28.2295 48.3687 28.8066 47.7915 28.8066 47.0796C28.8066 46.6664 29.1429 46.3301 29.5562 46.3301C29.9695 46.3301 30.3057 46.6664 30.3057 47.0796C30.3057 47.7915 30.8829 48.3687 31.5948 48.3687C32.3067 48.3687 32.8839 47.7915 32.8839 47.0796C32.8839 45.2448 31.391 43.752 29.5562 43.752C27.7213 43.752 26.2285 45.2448 26.2285 47.0796C26.2285 47.7916 26.8057 48.3687 27.5176 48.3687Z" fill="#FECE2F"/>
<path d="M39.7906 43.752C37.9557 43.752 36.4629 45.2448 36.4629 47.0796C36.4629 47.7915 37.04 48.3687 37.752 48.3687C38.4639 48.3687 39.041 47.7915 39.041 47.0796C39.041 46.6664 39.3773 46.3301 39.7906 46.3301C40.2038 46.3301 40.5401 46.6664 40.5401 47.0796C40.5401 47.7915 41.1173 48.3687 41.8292 48.3687C42.5411 48.3687 43.1182 47.7915 43.1182 47.0796C43.1182 45.2447 41.6254 43.752 39.7906 43.752Z" fill="#FECE2F"/>
<path d="M45.2949 31.2402H47.1755C47.8874 31.2402 48.4646 30.6631 48.4646 29.9512C48.4646 29.2393 47.8874 28.6621 47.1755 28.6621H45.2949C44.583 28.6621 44.0059 29.2393 44.0059 29.9512C44.0059 30.6631 44.583 31.2402 45.2949 31.2402Z" fill="#FECE2F"/>
<path d="M50.002 35.904C50.7139 35.904 51.291 35.3269 51.291 34.6149V32.7344C51.291 32.0225 50.7139 31.4453 50.002 31.4453C49.29 31.4453 48.7129 32.0225 48.7129 32.7344V34.6149C48.7129 35.3269 49.29 35.904 50.002 35.904Z" fill="#FECE2F"/>
<path d="M54.7106 28.6621H52.8301C52.1182 28.6621 51.541 29.2393 51.541 29.9512C51.541 30.6631 52.1182 31.2402 52.8301 31.2402H54.7106C55.4226 31.2402 55.9997 30.6631 55.9997 29.9512C55.9997 29.2393 55.4226 28.6621 54.7106 28.6621Z" fill="#FECE2F"/>
<path d="M50.002 28.4587C50.7139 28.4587 51.291 27.8815 51.291 27.1696V25.2891C51.291 24.5772 50.7139 24 50.002 24C49.29 24 48.7129 24.5772 48.7129 25.2891V27.1696C48.7129 27.8815 49.29 28.4587 50.002 28.4587Z" fill="#FECE2F"/>
<path d="M14.7904 30.3809H13.2891C12.5772 30.3809 12 30.958 12 31.6699C12 32.3818 12.5772 32.959 13.2891 32.959H14.7904C15.5023 32.959 16.0795 32.3818 16.0795 31.6699C16.0795 30.958 15.5023 30.3809 14.7904 30.3809Z" fill="#FECE2F"/>
<path d="M18.7676 35.8236V34.3223C18.7676 33.6104 18.1904 33.0332 17.4785 33.0332C16.7666 33.0332 16.1895 33.6104 16.1895 34.3223V35.8236C16.1895 36.5355 16.7666 37.1127 17.4785 37.1127C18.1904 37.1127 18.7676 36.5355 18.7676 35.8236Z" fill="#FECE2F"/>
<path d="M20.1641 32.959H21.6654C22.3773 32.959 22.9545 32.3818 22.9545 31.6699C22.9545 30.958 22.3773 30.3809 21.6654 30.3809H20.1641C19.4522 30.3809 18.875 30.958 18.875 31.6699C18.875 32.3818 19.4522 32.959 20.1641 32.959Z" fill="#FECE2F"/>
<path d="M17.4785 30.3099C18.1904 30.3099 18.7676 29.7328 18.7676 29.0209V27.5195C18.7676 26.8076 18.1904 26.2305 17.4785 26.2305C16.7666 26.2305 16.1895 26.8076 16.1895 27.5195V29.0209C16.1895 29.7328 16.7666 30.3099 17.4785 30.3099Z" fill="#FECE2F"/>
</g>
<defs>
<clipPath id="clip0_1482:252">
<rect width="44" height="44" fill="white" transform="translate(12 24)"/>
</clipPath>
</defs>
</svg>
