<svg width="16" height="16" viewBox="0 0 16 16" fill="none" xmlns="http://www.w3.org/2000/svg">
<path d="M7.99973 0C3.58165 0 0 3.58192 0 7.99984C0 12.4178 3.58165 16 7.99973 16C12.4178 16 15.9999 12.418 15.9999 7.99984C15.9999 3.58171 12.4178 0 7.99973 0ZM12.0193 6.57611L10.0627 8.53269C9.85051 8.74491 9.56837 8.86176 9.26832 8.86176C8.96832 8.86176 8.68613 8.74485 8.47392 8.5328L8.39728 8.45616L8.18896 8.66448L8.26544 8.74096C8.70352 9.17904 8.70352 9.89184 8.26544 10.3299L6.30912 12.2865C6.09691 12.4987 5.81477 12.6156 5.51456 12.6156C5.2144 12.6156 4.93221 12.4987 4.71989 12.2863L3.98043 11.5467C3.54235 11.1089 3.54235 10.3961 3.98027 9.95787L5.93701 8.00139C6.14923 7.78917 6.43136 7.67232 6.73157 7.67232C7.03179 7.67232 7.31376 7.78923 7.52613 8.00139L7.60251 8.07776L7.81083 7.86944L7.73445 7.79307C7.29637 7.35515 7.29637 6.64235 7.73419 6.20427L9.69093 4.24768C9.90325 4.03536 10.1854 3.91845 10.4855 3.91845C10.7855 3.91845 11.0677 4.03536 11.2801 4.24752L12.0197 4.98741C12.4574 5.42523 12.4574 6.13813 12.0193 6.57611Z" fill="#3987B2"/>
<path d="M7.60304 9.25086L7.22475 9.62915L6.63798 9.04254L7.01627 8.66425L6.9399 8.58787C6.88443 8.53257 6.81072 8.50195 6.73243 8.50195C6.65398 8.50195 6.58027 8.53251 6.5248 8.58787L4.56822 10.5442C4.45382 10.6587 4.45382 10.8449 4.56822 10.9593L5.30795 11.6992C5.41905 11.8103 5.61238 11.8101 5.72321 11.6993L7.67952 9.74275C7.79408 9.62824 7.79408 9.4419 7.67952 9.32734L7.60304 9.25086Z" fill="#3987B2"/>
<path d="M10.6922 4.83407C10.6367 4.77861 10.5629 4.74805 10.4844 4.74805C10.406 4.74805 10.3321 4.77861 10.2766 4.83423L8.32003 6.79072C8.20579 6.90522 8.2058 7.09141 8.3202 7.20597L8.39667 7.28234L8.97694 6.70192L9.56371 7.28869L8.98345 7.86912L9.05993 7.9456C9.17102 8.05637 9.36409 8.05653 9.47518 7.94544L11.4317 5.98912C11.5461 5.87461 11.5461 5.68842 11.4317 5.57386L10.6922 4.83407Z" fill="#3987B2"/>
</svg>
