<svg width="86" height="83" viewBox="0 0 86 83" fill="none" xmlns="http://www.w3.org/2000/svg">
<path d="M0 17.4737L86 0L81.7915 83L2.01277 78.0075L0 17.4737Z" fill="white"/>
<g clip-path="url(#clip0_1482:253)">
<path d="M52.7939 33.1273C52.1568 32.4903 51.1568 32.3963 50.412 32.9038C47.6065 34.8161 33.5342 44.4321 32.0218 45.9444C29.8287 48.1377 29.8287 51.7062 32.0218 53.8995C33.1184 54.996 34.559 55.5443 35.9994 55.5443C37.4397 55.5443 38.8802 54.996 39.9769 53.8995C41.4892 52.3871 51.1051 38.3149 53.0175 35.5093C53.5248 34.7646 53.431 33.7645 52.7939 33.1273ZM37.3251 51.2478C36.5941 51.9789 35.4045 51.9789 34.6736 51.2478C33.9425 50.5168 33.9424 49.3276 34.6732 48.5965C35.2608 48.0158 39.2562 45.1664 44.1718 41.7495C40.755 46.6652 37.9056 50.6603 37.3251 51.2478Z" fill="#FECE2F"/>
<path d="M20.6467 58.6429L18.332 59.772C16.6383 56.7493 15.75 53.3755 15.75 49.9219C15.75 47.3915 16.2166 44.9679 17.0681 42.7328L19.7204 44.005C19.982 44.1305 20.2581 44.1899 20.53 44.1899C21.2288 44.1899 21.8995 43.7976 22.2219 43.1254C22.6697 42.1917 22.2759 41.0717 21.3422 40.6238L18.7236 39.3678C21.9783 34.0597 27.6096 30.3589 34.1251 29.7579V32.578C34.1251 33.6136 34.9645 34.453 36.0001 34.453C37.0357 34.453 37.8751 33.6136 37.8751 32.578V29.7565C40.109 29.9599 42.2705 30.5287 44.3224 31.455C45.266 31.8811 46.3766 31.4612 46.8027 30.5176C47.2288 29.5737 46.8091 28.4632 45.8652 28.0372C42.7559 26.6336 39.4368 25.9219 36 25.9219C29.5894 25.9219 23.5625 28.4182 19.0294 32.9512C14.4965 37.4843 12 43.5112 12 49.9219C12 54.6591 13.4061 59.2663 16.0662 63.2452C16.4245 63.7809 17.0169 64.0782 17.6261 64.0782C17.9031 64.0782 18.1836 64.0168 18.4471 63.8883L22.2908 62.0133C23.2216 61.5592 23.608 60.4368 23.154 59.506C22.7 58.5754 21.5774 58.189 20.6467 58.6429Z" fill="#FECE2F"/>
<path d="M57.8851 40.0572C57.4591 39.1134 56.3489 38.6934 55.4047 39.1197C54.4609 39.5458 54.0412 40.6563 54.4673 41.6001C55.6506 44.2211 56.2505 47.0212 56.2505 49.9224C56.2505 53.3812 55.3593 56.7604 53.6607 59.7865L51.2441 58.6358C50.3093 58.1906 49.1904 58.5875 48.7451 59.5225C48.2999 60.4574 48.6969 61.5763 49.6319 62.0215L53.5694 63.8965C53.8284 64.0198 54.103 64.0788 54.3745 64.0788C54.9839 64.0788 55.5764 63.7811 55.9342 63.2457C58.5944 59.2668 60.0005 54.6595 60.0005 49.9224C60.0005 46.4856 59.2888 43.1664 57.8851 40.0572Z" fill="#FECE2F"/>
</g>
<defs>
<clipPath id="clip0_1482:253">
<rect width="48" height="48" fill="white" transform="translate(12 21)"/>
</clipPath>
</defs>
</svg>
