<svg width="86" height="83" viewBox="0 0 86 83" fill="none" xmlns="http://www.w3.org/2000/svg">
<path d="M0 17.4737L86 0L81.7915 83L2.01277 78.0075L0 17.4737Z" fill="white"/>
<path d="M19.2012 40.5007C19.2012 40.5007 27.6734 26.6465 42.4998 26.6465C57.3262 26.6465 65.7984 40.5007 65.7984 40.5007C65.7984 40.5007 57.3262 54.3548 42.4998 54.3548C27.6734 54.3548 19.2012 40.5007 19.2012 40.5007Z" stroke="#FECE2F" stroke-width="2" stroke-linecap="round" stroke-linejoin="round"/>
<path d="M42.4998 46.4382C46.36 46.4382 49.4894 43.7798 49.4894 40.5007C49.4894 37.2215 46.36 34.5632 42.4998 34.5632C38.6395 34.5632 35.5102 37.2215 35.5102 40.5007C35.5102 43.7798 38.6395 46.4382 42.4998 46.4382Z" stroke="#FECE2F" stroke-width="2" stroke-linecap="round" stroke-linejoin="round"/>
</svg>
