<svg width="86" height="83" viewBox="0 0 86 83" fill="none" xmlns="http://www.w3.org/2000/svg">
<path d="M0 17.4737L86 0L81.7915 83L2.01277 78.0075L0 17.4737Z" fill="white"/>
<g clip-path="url(#clip0_1498:277)">
<path d="M20.9648 29.9941V28.9941C20.4126 28.9941 19.9648 29.4419 19.9648 29.9941H20.9648ZM48.3815 66.7441V67.7441C48.9338 67.7441 49.3815 67.2964 49.3815 66.7441H48.3815ZM20.9648 66.7441H19.9648C19.9648 67.2964 20.4126 67.7441 20.9648 67.7441V66.7441ZM38.5898 29.9941L39.3115 29.3019C39.1229 29.1053 38.8623 28.9941 38.5898 28.9941V29.9941ZM48.3815 40.2025H49.3815C49.3815 39.9445 49.2818 39.6964 49.1032 39.5102L48.3815 40.2025ZM26.8398 57.5775C26.2876 57.5775 25.8398 58.0252 25.8398 58.5775C25.8398 59.1298 26.2876 59.5775 26.8398 59.5775V57.5775ZM42.5065 59.5775C43.0588 59.5775 43.5065 59.1298 43.5065 58.5775C43.5065 58.0252 43.0588 57.5775 42.5065 57.5775V59.5775ZM26.8398 49.4108C26.2876 49.4108 25.8398 49.8585 25.8398 50.4108C25.8398 50.9631 26.2876 51.4108 26.8398 51.4108V49.4108ZM38.5898 51.4108C39.1421 51.4108 39.5898 50.9631 39.5898 50.4108C39.5898 49.8585 39.1421 49.4108 38.5898 49.4108V51.4108ZM48.3815 65.7441H20.9648V67.7441H48.3815V65.7441ZM21.9648 66.7441V29.9941H19.9648V66.7441H21.9648ZM20.9648 30.9941H38.5898V28.9941H20.9648V30.9941ZM47.3815 40.2025V66.7441H49.3815V40.2025H47.3815ZM37.8682 30.6864L47.6598 40.8947L49.1032 39.5102L39.3115 29.3019L37.8682 30.6864ZM35.6315 29.9941V38.1608H37.6315V29.9941H35.6315ZM40.5482 43.2441H48.3815V41.2441H40.5482V43.2441ZM35.6315 38.1608C35.6315 40.9286 37.7939 43.2441 40.5482 43.2441V41.2441C38.9762 41.2441 37.6315 39.9034 37.6315 38.1608H35.6315ZM26.8398 59.5775H42.5065V57.5775H26.8398V59.5775ZM26.8398 51.4108H38.5898V49.4108H26.8398V51.4108Z" fill="#FECE2F"/>
</g>
<defs>
<clipPath id="clip0_1498:277">
<rect width="44" height="44" fill="white" transform="translate(12 24)"/>
</clipPath>
</defs>
</svg>
