<svg width="20" height="20" fill="none" xmlns="http://www.w3.org/2000/svg"><path d="M10.197 20h-.2a69.5 69.5 0 01-4.424-.122c-1.292-.079-2.47-.525-3.41-1.29-.906-.74-1.524-1.739-1.839-2.97-.273-1.071-.288-2.123-.301-3.141-.01-.73-.02-1.595-.023-2.475.002-.884.013-1.749.023-2.479.013-1.017.028-2.07.301-3.141.315-1.232.933-2.23 1.84-2.97C3.101.648 4.28.202 5.572.123A69.68 69.68 0 0110.001 0a69.964 69.964 0 014.425.122c1.292.079 2.47.525 3.41 1.29.906.74 1.525 1.738 1.839 2.97.273 1.071.288 2.124.302 3.141.01.73.02 1.595.022 2.475v.004c-.002.88-.012 1.745-.022 2.475-.014 1.017-.029 2.07-.302 3.141-.314 1.231-.933 2.23-1.84 2.97-.938.765-2.117 1.211-3.409 1.29a69.152 69.152 0 01-4.23.122zm-.2-1.563a68.188 68.188 0 004.335-.119c.976-.06 1.823-.376 2.516-.942.642-.523 1.083-1.244 1.313-2.144.227-.892.24-1.85.253-2.776.01-.726.02-1.585.023-2.456a214.47 214.47 0 00-.023-2.456c-.012-.926-.026-1.884-.253-2.776-.23-.9-.671-1.622-1.313-2.145-.693-.565-1.54-.882-2.516-.941a68.267 68.267 0 00-4.33-.12 68.08 68.08 0 00-4.334.12c-.977.059-1.824.376-2.517.941-.641.523-1.083 1.245-1.313 2.145-.227.892-.24 1.85-.253 2.776-.01.726-.02 1.586-.022 2.458.002.868.012 1.728.022 2.454.013.926.026 1.884.253 2.776.23.9.672 1.621 1.313 2.144.693.566 1.54.883 2.517.942 1.375.084 2.792.123 4.33.12zm-.037-3.554A4.888 4.888 0 015.078 10 4.888 4.888 0 019.96 5.117 4.888 4.888 0 0114.843 10a4.888 4.888 0 01-4.883 4.883zm0-8.203c-1.83 0-3.32 1.49-3.32 3.32 0 1.83 1.49 3.32 3.32 3.32 1.831 0 3.32-1.49 3.32-3.32 0-1.83-1.489-3.32-3.32-3.32zm5.43-3.125a1.172 1.172 0 100 2.343 1.172 1.172 0 000-2.343z" fill="#000"/></svg>